AnekTamil-SemiCondensedSemiBold.ufo
<glyph name="exclam" format="2">
  <advance width="448.5333333333333"/>
  <unicode hex="0021"/>
  <outline>
    <contour>
      <point x="322.9583333333333" y="407.06666666666666" type="line"/>
      <point x="352.85833333333335" y="1278.0" type="line"/>
      <point x="95.675" y="1278.0" type="line"/>
      <point x="125.76666666666668" y="407.06666666666666" type="line"/>
    </contour>
    <contour>
      <point x="226.03333333333333" y="-23.141666666666666" type="curve" smooth="yes"/>
      <point x="314.0916666666667" y="-23.141666666666666"/>
      <point x="357.7166666666667" y="29.866666666666667"/>
      <point x="357.7166666666667" y="122.24166666666667" type="curve" smooth="yes"/>
      <point x="357.7166666666667" y="135.93333333333334" type="line" smooth="yes"/>
      <point x="357.7166666666667" y="227.11666666666667"/>
      <point x="314.0916666666667" y="280.7"/>
      <point x="226.03333333333333" y="280.7" type="curve" smooth="yes"/>
      <point x="135.78333333333333" y="280.7"/>
      <point x="94.54166666666666" y="227.11666666666667"/>
      <point x="94.54166666666666" y="135.93333333333334" type="curve" smooth="yes"/>
      <point x="94.54166666666666" y="122.24166666666667" type="line" smooth="yes"/>
      <point x="94.54166666666666" y="29.866666666666667"/>
      <point x="135.78333333333333" y="-23.141666666666666"/>
    </contour>
  </outline>
</glyph>
<glyph name="numbersign" format="2">
  <advance width="1029.0249999999999"/>
  <unicode hex="0023"/>
  <outline>
    <contour>
      <point x="149.64166666666668" y="0.0" type="line"/>
      <point x="338.85" y="0.0" type="line"/>
      <point x="483.17499999999995" y="1278.0" type="line"/>
      <point x="293.96666666666664" y="1278.0" type="line"/>
    </contour>
    <contour>
      <point x="45.94166666666667" y="304.6166666666667" type="line"/>
      <point x="933.4333333333333" y="304.6166666666667" type="line"/>
      <point x="933.4333333333333" y="480.02500000000003" type="line"/>
      <point x="45.94166666666667" y="480.02500000000003" type="line"/>
    </contour>
    <contour>
      <point x="549.425" y="0.0" type="line"/>
      <point x="739.5166666666667" y="0.0" type="line"/>
      <point x="880.7666666666667" y="1278.0" type="line"/>
      <point x="691.0583333333333" y="1278.0" type="line"/>
    </contour>
    <contour>
      <point x="97.89999999999999" y="800.1750000000001" type="line"/>
      <point x="983.3916666666667" y="800.1750000000001" type="line"/>
      <point x="983.3916666666667" y="975.3916666666668" type="line"/>
      <point x="97.89999999999999" y="975.3916666666668" type="line"/>
    </contour>
  </outline>
</glyph>
<glyph name="dollar" format="2">
  <advance width="862.5249999999999"/>
  <unicode hex="0024"/>
  <anchor x="420.6083333333333" y="0.0" name="bottom"/>
  <anchor x="420.6083333333333" y="1278.0" name="top"/>
  <outline>
    <contour>
      <point x="528.3833333333333" y="1171.0500000000002" type="line"/>
      <point x="528.3833333333333" y="1461.0916666666667" type="line"/>
      <point x="319.9583333333333" y="1461.0916666666667" type="line"/>
      <point x="319.9583333333333" y="1171.0500000000002" type="line"/>
    </contour>
    <contour>
      <point x="528.3833333333333" y="-189.9" type="line"/>
      <point x="528.3833333333333" y="108.675" type="line"/>
      <point x="319.9583333333333" y="108.675" type="line"/>
      <point x="319.9583333333333" y="-189.9" type="line"/>
    </contour>
    <component base="S"/>
  </outline>
</glyph>
<glyph name="percent" format="2">
  <advance width="1352.9833333333333"/>
  <unicode hex="0025"/>
  <outline>
    <contour>
      <point x="250.2416666666667" y="0.0" type="line"/>
      <point x="445.575" y="0.0" type="line"/>
      <point x="1103.5916666666667" y="1278.0" type="line"/>
      <point x="910.4083333333334" y="1278.0" type="line"/>
    </contour>
    <contour>
      <point x="1031.6083333333333" y="-26.108333333333334" type="curve" smooth="yes"/>
      <point x="1203.125" y="-26.108333333333334"/>
      <point x="1293.0749999999998" y="71.69166666666666"/>
      <point x="1293.0749999999998" y="246.325" type="curve" smooth="yes"/>
      <point x="1293.0749999999998" y="369.625" type="line" smooth="yes"/>
      <point x="1293.0749999999998" y="544.45"/>
      <point x="1203.125" y="641.25"/>
      <point x="1031.6083333333333" y="641.25" type="curve" smooth="yes"/>
      <point x="860.2083333333334" y="641.25"/>
      <point x="771.0666666666667" y="543.8333333333334"/>
      <point x="771.0666666666667" y="369.625" type="curve" smooth="yes"/>
      <point x="771.0666666666667" y="246.325" type="line" smooth="yes"/>
      <point x="771.0666666666667" y="71.30833333333332"/>
      <point x="859.9" y="-26.108333333333334"/>
    </contour>
    <contour>
      <point x="1031.6083333333333" y="120.64166666666667" type="curve" smooth="yes"/>
      <point x="974.0083333333333" y="120.64166666666667"/>
      <point x="946.6083333333333" y="159.425"/>
      <point x="946.6083333333333" y="237.83333333333334" type="curve" smooth="yes"/>
      <point x="946.6083333333333" y="377.1166666666667" type="line" smooth="yes"/>
      <point x="946.6083333333333" y="456.025"/>
      <point x="973.6999999999999" y="494.80833333333334"/>
      <point x="1031.6083333333333" y="494.80833333333334" type="curve" smooth="yes"/>
      <point x="1089.5166666666667" y="494.80833333333334"/>
      <point x="1116.6083333333333" y="456.025"/>
      <point x="1116.6083333333333" y="377.1166666666667" type="curve" smooth="yes"/>
      <point x="1116.6083333333333" y="237.83333333333334" type="line" smooth="yes"/>
      <point x="1116.6083333333333" y="159.425"/>
      <point x="1089.825" y="120.64166666666667"/>
    </contour>
    <contour>
      <point x="320.45" y="635.4833333333333" type="curve" smooth="yes"/>
      <point x="491.9666666666667" y="635.4833333333333"/>
      <point x="581.6083333333332" y="733.2833333333333"/>
      <point x="581.6083333333332" y="906.8" type="curve" smooth="yes"/>
      <point x="581.6083333333332" y="1030.9083333333333" type="line" smooth="yes"/>
      <point x="581.6083333333332" y="1204.3083333333334"/>
      <point x="491.9666666666667" y="1301.4166666666665"/>
      <point x="320.45" y="1301.4166666666665" type="curve" smooth="yes"/>
      <point x="148.43333333333334" y="1301.4166666666665"/>
      <point x="59.29166666666667" y="1204.3083333333334"/>
      <point x="59.29166666666667" y="1030.9083333333333" type="curve" smooth="yes"/>
      <point x="59.29166666666667" y="906.8" type="line" smooth="yes"/>
      <point x="59.29166666666667" y="732.5916666666667"/>
      <point x="148.43333333333334" y="635.4833333333333"/>
    </contour>
    <contour>
      <point x="320.45" y="781.925" type="curve" smooth="yes"/>
      <point x="262.84999999999997" y="781.925"/>
      <point x="235.64166666666665" y="819.9"/>
      <point x="235.64166666666665" y="898.8083333333334" type="curve" smooth="yes"/>
      <point x="235.64166666666665" y="1038.3999999999999" type="line" smooth="yes"/>
      <point x="235.64166666666665" y="1116.6916666666666"/>
      <point x="262.54166666666663" y="1155.5916666666667"/>
      <point x="320.45" y="1155.5916666666667" type="curve" smooth="yes"/>
      <point x="378.05" y="1155.5916666666667"/>
      <point x="405.14166666666665" y="1116.6916666666666"/>
      <point x="405.14166666666665" y="1038.3999999999999" type="curve" smooth="yes"/>
      <point x="405.14166666666665" y="898.8083333333334" type="line" smooth="yes"/>
      <point x="405.14166666666665" y="819.9"/>
      <point x="378.05" y="781.925"/>
    </contour>
  </outline>
</glyph>
<glyph name="ampersand" format="2">
  <advance width="1123.0"/>
  <unicode hex="0026"/>
  <outline>
    <contour>
      <point x="886.0500000000001" y="0.38333333333333336" type="curve"/>
      <point x="1144.0666666666666" y="0.38333333333333336" type="line"/>
      <point x="1144.0666666666666" y="17.71666666666667" type="line"/>
      <point x="1047.225" y="142.54166666666669"/>
      <point x="953.1333333333332" y="259.95000000000005"/>
      <point x="859.8666666666667" y="369.98333333333335" type="curve"/>
      <point x="808.9833333333333" y="431.675" type="line"/>
      <point x="491.2583333333333" y="797.4250000000001" type="line" smooth="yes"/>
      <point x="431.08333333333337" y="868.4916666666667"/>
      <point x="404.6166666666667" y="915.75"/>
      <point x="404.6166666666667" y="972.4416666666667" type="curve" smooth="yes"/>
      <point x="404.6166666666667" y="976.9833333333332" type="line" smooth="yes"/>
      <point x="404.6166666666667" y="1046.2166666666667"/>
      <point x="448.05833333333334" y="1089.25"/>
      <point x="550.6833333333334" y="1089.25" type="curve" smooth="yes"/>
      <point x="645.6166666666667" y="1089.25"/>
      <point x="731.0666666666667" y="1062.5083333333332"/>
      <point x="797.7166666666666" y="1030.4166666666665" type="curve"/>
      <point x="780.1500000000001" y="1239.525" type="line"/>
      <point x="715.1333333333334" y="1273.0666666666666"/>
      <point x="620.8083333333334" y="1301.0333333333333"/>
      <point x="491.6000000000001" y="1301.0333333333333" type="curve" smooth="yes"/>
      <point x="270.4" y="1301.0333333333333"/>
      <point x="151.7" y="1185.35"/>
      <point x="151.7" y="1000.0416666666666" type="curve" smooth="yes"/>
      <point x="151.7" y="992.275" type="line" smooth="yes"/>
      <point x="151.7" y="881.4333333333333"/>
      <point x="191.23333333333332" y="807.5916666666667"/>
      <point x="272.64166666666665" y="711.1" type="curve"/>
      <point x="312.0333333333333" y="661.8583333333333" type="line"/>
      <point x="677.8833333333333" y="250.01666666666668" type="line"/>
      <point x="707.4666666666667" y="216.31666666666666" type="line"/>
      <point x="746.2166666666667" y="169.53333333333333"/>
      <point x="844.1083333333333" y="52.475"/>
    </contour>
    <contour>
      <point x="447.9916666666666" y="-23.416666666666668" type="curve" smooth="yes"/>
      <point x="640.3833333333333" y="-23.416666666666668"/>
      <point x="741.6833333333333" y="50.175"/>
      <point x="827.3333333333334" y="180.525" type="curve"/>
      <point x="902.4583333333334" y="260.40000000000003" type="line"/>
      <point x="1000.3666666666667" y="407.5416666666667"/>
      <point x="1046.2" y="598.3916666666667"/>
      <point x="1062.3916666666667" y="816.375" type="curve"/>
      <point x="829.5166666666667" y="816.375" type="line"/>
      <point x="821.05" y="659.8166666666666"/>
      <point x="799.0500000000001" y="522.5666666666667"/>
      <point x="748.6333333333333" y="408.89166666666665" type="curve"/>
      <point x="684.55" y="314.5416666666667" type="line"/>
      <point x="638.95" y="231.20000000000002"/>
      <point x="576.3833333333333" y="181.74166666666667"/>
      <point x="474.30833333333334" y="181.74166666666667" type="curve" smooth="yes"/>
      <point x="359.85" y="181.74166666666667"/>
      <point x="302.79166666666663" y="245.10833333333332"/>
      <point x="302.79166666666663" y="366.1666666666667" type="curve" smooth="yes"/>
      <point x="302.79166666666663" y="423.73333333333335" type="line" smooth="yes"/>
      <point x="302.79166666666663" y="516.6166666666667"/>
      <point x="325.4583333333333" y="569.0250000000001"/>
      <point x="393.2583333333333" y="608.8583333333333" type="curve"/>
      <point x="266.58333333333337" y="771.8" type="line"/>
      <point x="119.25" y="684.0666666666666"/>
      <point x="62.416666666666664" y="577.0416666666666"/>
      <point x="62.416666666666664" y="407.5416666666667" type="curve" smooth="yes"/>
      <point x="62.416666666666664" y="348.7583333333333" type="line" smooth="yes"/>
      <point x="62.416666666666664" y="109.55833333333332"/>
      <point x="187.46666666666667" y="-23.416666666666668"/>
    </contour>
  </outline>
</glyph>
<glyph name="quotesingle" format="2">
  <advance width="357.875"/>
  <unicode hex="0027"/>
  <outline>
    <contour>
      <point x="270.81666666666666" y="834.6333333333333" type="line"/>
      <point x="294.18333333333334" y="1324.5833333333333" type="line"/>
      <point x="63.69166666666666" y="1324.5833333333333" type="line"/>
      <point x="86.675" y="834.6333333333333" type="line"/>
    </contour>
  </outline>
</glyph>
<glyph name="parenleft" format="2">
  <advance width="545.0083333333333"/>
  <unicode hex="0028"/>
  <outline>
    <contour>
      <point x="328.3666666666667" y="613.7166666666666" type="line" smooth="yes"/>
      <point x="328.3666666666667" y="917.0416666666667"/>
      <point x="390.425" y="1136.4083333333333"/>
      <point x="526.9333333333334" y="1351.5" type="curve"/>
      <point x="286.225" y="1351.5" type="line"/>
      <point x="161.0583333333333" y="1159.3083333333334"/>
      <point x="97.77499999999999" y="938.9916666666667"/>
      <point x="97.77499999999999" y="621.825" type="curve" smooth="yes"/>
      <point x="97.77499999999999" y="485.95" type="line" smooth="yes"/>
      <point x="97.77499999999999" y="167.975"/>
      <point x="159.94166666666666" y="-51.458333333333336"/>
      <point x="285.03333333333336" y="-243.34166666666667" type="curve"/>
      <point x="526.9333333333334" y="-243.34166666666667" type="line"/>
      <point x="390.425" y="-29.208333333333332"/>
      <point x="328.3666666666667" y="189.85"/>
      <point x="328.3666666666667" y="494.675" type="curve" smooth="yes"/>
    </contour>
  </outline>
</glyph>
<glyph name="parenright" format="2">
  <advance width="545.625"/>
  <unicode hex="0029"/>
  <outline>
    <contour>
      <point x="217.25833333333335" y="613.7166666666666" type="curve" smooth="yes"/>
      <point x="217.25833333333335" y="494.675" type="line" smooth="yes"/>
      <point x="217.25833333333335" y="189.85"/>
      <point x="155.2" y="-29.208333333333332"/>
      <point x="18.691666666666663" y="-243.34166666666667" type="curve"/>
      <point x="260.5916666666667" y="-243.34166666666667" type="line"/>
      <point x="385.68333333333334" y="-51.458333333333336"/>
      <point x="447.85" y="167.975"/>
      <point x="447.85" y="485.95" type="curve" smooth="yes"/>
      <point x="447.85" y="621.825" type="line" smooth="yes"/>
      <point x="447.85" y="938.9916666666667"/>
      <point x="384.56666666666666" y="1159.3083333333334"/>
      <point x="259.4" y="1351.5" type="curve"/>
      <point x="18.691666666666663" y="1351.5" type="line"/>
      <point x="155.2" y="1136.4083333333333"/>
      <point x="217.25833333333335" y="917.0416666666667"/>
    </contour>
  </outline>
</glyph>
<glyph name="asterisk" format="2">
  <advance width="710.0"/>
  <unicode hex="002A"/>
  <outline>
    <contour>
      <point x="240.86666666666667" y="651.8166666666666" type="line"/>
      <point x="352.05833333333334" y="833.4166666666666" type="line"/>
      <point x="357.0166666666667" y="833.4166666666666" type="line"/>
      <point x="468.7083333333333" y="651.8166666666666" type="line"/>
      <point x="624.4916666666667" y="756.2833333333333" type="line"/>
      <point x="481.93333333333334" y="916.6416666666668" type="line"/>
      <point x="482.93333333333334" y="921.7916666666667" type="line"/>
      <point x="673.7083333333334" y="956.8583333333333" type="line"/>
      <point x="630.0833333333334" y="1141.9583333333333" type="line"/>
      <point x="436.2333333333333" y="1067.4916666666668" type="line"/>
      <point x="433.1583333333333" y="1070.2583333333334" type="line"/>
      <point x="457.2166666666667" y="1278.0" type="line"/>
      <point x="252.78333333333333" y="1278.0" type="line"/>
      <point x="276.34166666666664" y="1070.2583333333334" type="line"/>
      <point x="273.075" y="1067.4916666666668" type="line"/>
      <point x="79.60833333333333" y="1141.9583333333333" type="line"/>
      <point x="36.29166666666667" y="956.8583333333333" type="line"/>
      <point x="226.45000000000002" y="921.7916666666667" type="line"/>
      <point x="227.83333333333334" y="916.6416666666668" type="line"/>
      <point x="84.89166666666667" y="756.2833333333333" type="line"/>
    </contour>
  </outline>
</glyph>
<glyph name="plus" format="2">
  <advance width="853.6750000000001"/>
  <unicode hex="002B"/>
  <outline>
    <contour>
      <point x="530.0083333333333" y="248.9" type="line"/>
      <point x="530.0083333333333" y="1007.4499999999999" type="line"/>
      <point x="324.05" y="1007.4499999999999" type="line"/>
      <point x="324.05" y="248.9" type="line"/>
    </contour>
    <contour>
      <point x="74.35833333333333" y="530.0" type="line"/>
      <point x="779.3166666666667" y="530.0" type="line"/>
      <point x="779.3166666666667" y="726.35" type="line"/>
      <point x="74.35833333333333" y="726.35" type="line"/>
    </contour>
  </outline>
</glyph>
<glyph name="comma" format="2">
  <advance width="389.1166666666666"/>
  <unicode hex="002C"/>
  <outline>
    <contour>
      <point x="308.44166666666666" y="305.8" type="curve"/>
      <point x="83.33333333333333" y="305.8" type="line"/>
      <point x="87.64166666666667" y="259.35"/>
      <point x="89.64166666666667" y="221.42499999999998"/>
      <point x="89.64166666666667" y="175.89166666666665" type="curve" smooth="yes"/>
      <point x="89.64166666666667" y="27.058333333333334"/>
      <point x="57.45" y="-89.28333333333333"/>
      <point x="0.4416666666666662" y="-193.74166666666667" type="curve"/>
      <point x="164.975" y="-238.45833333333334" type="line"/>
      <point x="273.68333333333334" y="-111.775"/>
      <point x="317.94166666666666" y="23.633333333333336"/>
      <point x="317.94166666666666" y="185.5" type="curve" smooth="yes"/>
      <point x="317.94166666666666" y="232.69166666666666"/>
      <point x="312.825" y="274.4666666666667"/>
    </contour>
  </outline>
</glyph>
<glyph name="hyphen" format="2">
  <advance width="672.275"/>
  <unicode hex="002D"/>
  <outline>
    <contour>
      <point x="89.19166666666666" y="414.25" type="line"/>
      <point x="583.0833333333334" y="414.25" type="line"/>
      <point x="583.0833333333334" y="612.025" type="line"/>
      <point x="89.19166666666666" y="612.025" type="line"/>
    </contour>
  </outline>
</glyph>
<glyph name="period" format="2">
  <advance width="389.675"/>
  <unicode hex="002E"/>
  <outline>
    <contour>
      <point x="194.93333333333334" y="-22.758333333333333" type="curve" smooth="yes"/>
      <point x="283.18333333333334" y="-22.758333333333333"/>
      <point x="327.0" y="30.441666666666666"/>
      <point x="327.0" y="123.2" type="curve" smooth="yes"/>
      <point x="327.0" y="136.89166666666668" type="line" smooth="yes"/>
      <point x="327.0" y="228.45833333333334"/>
      <point x="283.18333333333334" y="282.425"/>
      <point x="194.93333333333334" y="282.425" type="curve" smooth="yes"/>
      <point x="104.10833333333333" y="282.425"/>
      <point x="62.675000000000004" y="228.45833333333334"/>
      <point x="62.675000000000004" y="136.89166666666668" type="curve" smooth="yes"/>
      <point x="62.675000000000004" y="123.2" type="line" smooth="yes"/>
      <point x="62.675000000000004" y="30.441666666666666"/>
      <point x="104.10833333333333" y="-22.758333333333333"/>
    </contour>
  </outline>
</glyph>
<glyph name="slash" format="2">
  <advance width="726.6999999999999"/>
  <unicode hex="002F"/>
  <outline>
    <contour>
      <point x="9.583333333333334" y="-242.72500000000002" type="line"/>
      <point x="226.00833333333335" y="-242.72500000000002" type="line"/>
      <point x="717.1166666666667" y="1349.0333333333333" type="line"/>
      <point x="501.30833333333334" y="1349.0333333333333" type="line"/>
    </contour>
  </outline>
</glyph>
<glyph name="zero" format="2">
  <advance width="1002.6916666666666"/>
  <unicode hex="0030"/>
  <outline>
    <contour>
      <point x="500.99999999999994" y="-23.65" type="curve" smooth="yes"/>
      <point x="780.7750000000001" y="-23.65"/>
      <point x="922.775" y="132.51666666666668"/>
      <point x="922.775" y="432.5333333333333" type="curve"/>
      <point x="922.775" y="845.6583333333333" type="line"/>
      <point x="922.775" y="1144.4083333333333"/>
      <point x="780.7750000000001" y="1301.4583333333333"/>
      <point x="500.99999999999994" y="1301.4583333333333" type="curve" smooth="yes"/>
      <point x="220.91666666666666" y="1301.4583333333333"/>
      <point x="79.91666666666667" y="1144.4083333333333"/>
      <point x="79.91666666666667" y="845.6583333333333" type="curve"/>
      <point x="79.91666666666667" y="432.5333333333333" type="line"/>
      <point x="79.91666666666667" y="132.51666666666668"/>
      <point x="221.41666666666666" y="-23.65"/>
    </contour>
    <contour>
      <point x="500.99999999999994" y="183.0" type="curve" smooth="yes"/>
      <point x="382.675" y="183.0"/>
      <point x="330.7583333333334" y="261.53333333333336"/>
      <point x="330.7583333333334" y="417.2" type="curve" smooth="yes"/>
      <point x="330.7583333333334" y="860.6083333333333" type="line" smooth="yes"/>
      <point x="330.7583333333334" y="1016.2750000000001"/>
      <point x="381.98333333333335" y="1095.1166666666666"/>
      <point x="500.99999999999994" y="1095.1166666666666" type="curve" smooth="yes"/>
      <point x="620.0166666666667" y="1095.1166666666666"/>
      <point x="671.9333333333333" y="1016.4666666666667"/>
      <point x="671.9333333333333" y="860.6083333333333" type="curve" smooth="yes"/>
      <point x="671.9333333333333" y="417.2" type="line" smooth="yes"/>
      <point x="671.9333333333333" y="261.53333333333336"/>
      <point x="620.0166666666667" y="183.0"/>
    </contour>
  </outline>
</glyph>
<glyph name="one" format="2">
  <advance width="625.0083333333333"/>
  <unicode hex="0031"/>
  <outline>
    <contour>
      <point x="273.7" y="0.0" type="line"/>
      <point x="519.3166666666666" y="0.0" type="line"/>
      <point x="519.3166666666666" y="1278.0" type="line"/>
      <point x="300.1416666666667" y="1278.0" type="line"/>
      <point x="35.15833333333333" y="1122.2833333333333" type="line"/>
      <point x="30.166666666666668" y="875.3083333333334" type="line"/>
      <point x="260.31666666666666" y="1010.7333333333333" type="line"/>
      <point x="273.7" y="1010.7333333333333" type="line"/>
    </contour>
  </outline>
</glyph>
<glyph name="two" format="2">
  <advance width="806.4666666666667"/>
  <unicode hex="0032"/>
  <outline>
    <contour>
      <point x="49.09166666666667" y="0.0" type="line"/>
      <point x="752.4833333333332" y="0.0" type="line"/>
      <point x="752.4833333333332" y="214.25833333333335" type="line"/>
      <point x="226.64166666666665" y="214.25833333333335" type="line"/>
      <point x="333.16666666666663" y="177.46666666666667" type="line"/>
      <point x="333.16666666666663" y="223.90833333333336" type="line"/>
      <point x="511.15" y="446.06666666666666" type="line" smooth="yes"/>
      <point x="661.8833333333333" y="629.1166666666667"/>
      <point x="742.0916666666667" y="749.2833333333333"/>
      <point x="742.0916666666667" y="925.5666666666666" type="curve" smooth="yes"/>
      <point x="742.0916666666667" y="947.7249999999999" type="line" smooth="yes"/>
      <point x="742.0916666666667" y="1167.8999999999999"/>
      <point x="619.8916666666667" y="1299.8416666666667"/>
      <point x="373.325" y="1299.8416666666667" type="curve" smooth="yes"/>
      <point x="240.65833333333333" y="1299.8416666666667"/>
      <point x="140.67499999999998" y="1261.1833333333334"/>
      <point x="76.26666666666667" y="1221.4166666666667" type="curve"/>
      <point x="57.625" y="1003.5666666666666" type="line"/>
      <point x="124.85833333333332" y="1043.925"/>
      <point x="210.93333333333334" y="1082.275"/>
      <point x="311.1666666666667" y="1082.275" type="curve" smooth="yes"/>
      <point x="438.1916666666667" y="1082.275"/>
      <point x="492.325" y="1021.2833333333333"/>
      <point x="492.325" y="914.4916666666667" type="curve" smooth="yes"/>
      <point x="492.325" y="895.6333333333333" type="line" smooth="yes"/>
      <point x="492.325" y="788.725"/>
      <point x="433.03333333333336" y="705.0583333333333"/>
      <point x="307.1166666666667" y="552.025" type="curve" smooth="yes"/>
      <point x="49.09166666666667" y="232.29166666666666" type="line"/>
    </contour>
  </outline>
</glyph>
<glyph name="three" format="2">
  <advance width="829.1333333333333"/>
  <unicode hex="0033"/>
  <outline>
    <contour>
      <point x="361.925" y="-22.033333333333335" type="curve" smooth="yes"/>
      <point x="641.9416666666667" y="-22.033333333333335"/>
      <point x="768.9083333333333" y="113.64166666666667"/>
      <point x="768.9083333333333" y="330.85833333333335" type="curve" smooth="yes"/>
      <point x="768.9083333333333" y="383.1416666666667" type="line" smooth="yes"/>
      <point x="768.9083333333333" y="544.1583333333334"/>
      <point x="703.8833333333333" y="634.6916666666666"/>
      <point x="533.5416666666666" y="662.275" type="curve"/>
      <point x="544.4499999999999" y="635.1083333333332" type="line"/>
      <point x="544.4499999999999" y="670.7750000000001" type="line"/>
      <point x="693.6583333333333" y="696.8166666666666"/>
      <point x="761.2916666666666" y="787.5583333333334"/>
      <point x="761.2916666666666" y="939.95" type="curve" smooth="yes"/>
      <point x="761.2916666666666" y="979.3666666666667" type="line" smooth="yes"/>
      <point x="761.2916666666666" y="1181.9666666666667"/>
      <point x="643.4416666666666" y="1300.15"/>
      <point x="386.4166666666667" y="1300.15" type="curve" smooth="yes"/>
      <point x="246.85833333333335" y="1300.15"/>
      <point x="144.525" y="1265.8"/>
      <point x="74.425" y="1227.45" type="curve"/>
      <point x="56.28333333333334" y="1017.0916666666667" type="line"/>
      <point x="128.09166666666667" y="1052.1833333333334"/>
      <point x="223.47499999999997" y="1086.5"/>
      <point x="331.125" y="1086.5" type="curve" smooth="yes"/>
      <point x="465.46666666666664" y="1086.5"/>
      <point x="513.0999999999999" y="1033.1583333333333"/>
      <point x="513.0999999999999" y="932.4833333333332" type="curve" smooth="yes"/>
      <point x="513.0999999999999" y="909.45" type="line" smooth="yes"/>
      <point x="513.0999999999999" y="810.7833333333333"/>
      <point x="461.8916666666667" y="759.9749999999999"/>
      <point x="323.68333333333334" y="755.4749999999999" type="curve" smooth="yes"/>
      <point x="174.85833333333332" y="750.9" type="line"/>
      <point x="174.85833333333332" y="549.2833333333333" type="line"/>
      <point x="323.2583333333333" y="545.4" type="line" smooth="yes"/>
      <point x="464.85" y="541.2833333333333"/>
      <point x="516.875" y="495.21666666666664"/>
      <point x="516.875" y="388.15" type="curve" smooth="yes"/>
      <point x="516.875" y="355.40833333333336" type="line" smooth="yes"/>
      <point x="516.875" y="251.61666666666665"/>
      <point x="468.34999999999997" y="195.42499999999998"/>
      <point x="321.20833333333337" y="195.42499999999998" type="curve" smooth="yes"/>
      <point x="214.31666666666666" y="195.42499999999998"/>
      <point x="121.81666666666668" y="228.24166666666667"/>
      <point x="47.01666666666667" y="268.1" type="curve"/>
      <point x="65.775" y="42.93333333333334" type="line"/>
      <point x="126.99166666666666" y="11.241666666666667"/>
      <point x="234.31666666666666" y="-22.033333333333335"/>
    </contour>
  </outline>
</glyph>
<glyph name="four" format="2">
  <advance width="934.1416666666667"/>
  <unicode hex="0034"/>
  <outline>
    <contour>
      <point x="548.7166666666667" y="0.0" type="line"/>
      <point x="779.6583333333333" y="0.0" type="line"/>
      <point x="779.6583333333333" y="1278.0" type="line"/>
      <point x="383.2833333333333" y="1278.0" type="line"/>
      <point x="44.04166666666667" y="447.19166666666666" type="line"/>
      <point x="44.04166666666667" y="218.03333333333333" type="line"/>
      <point x="904.375" y="218.03333333333333" type="line"/>
      <point x="904.375" y="422.08333333333337" type="line"/>
      <point x="176.98333333333332" y="422.08333333333337" type="line"/>
      <point x="274.68333333333334" y="343.175" type="line"/>
      <point x="274.68333333333334" y="434.96666666666664" type="line"/>
      <point x="537.0916666666667" y="1107.6999999999998" type="line"/>
      <point x="558.8249999999999" y="1107.6999999999998" type="line"/>
      <point x="548.7166666666667" y="773.75" type="line"/>
    </contour>
  </outline>
</glyph>
<glyph name="five" format="2">
  <advance width="892.8500000000001"/>
  <unicode hex="0035"/>
  <outline>
    <contour>
      <point x="408.77500000000003" y="-21.958333333333336" type="curve" smooth="yes"/>
      <point x="709.4833333333333" y="-21.958333333333336"/>
      <point x="827.125" y="126.59166666666668"/>
      <point x="827.125" y="380.925" type="curve" smooth="yes"/>
      <point x="827.125" y="479.425" type="line" smooth="yes"/>
      <point x="827.125" y="699.975"/>
      <point x="747.1166666666667" y="829.275"/>
      <point x="564.5833333333334" y="829.275" type="curve" smooth="yes"/>
      <point x="431.3" y="829.275"/>
      <point x="362.06666666666666" y="767.325"/>
      <point x="328.44166666666666" y="670.4" type="curve"/>
      <point x="318.7916666666667" y="670.4" type="line"/>
      <point x="322.2916666666667" y="839.1" type="line"/>
      <point x="322.2916666666667" y="1066.2333333333333" type="line"/>
      <point x="788.7583333333333" y="1066.2333333333333" type="line"/>
      <point x="788.7583333333333" y="1278.0" type="line"/>
      <point x="90.99166666666666" y="1278.0" type="line"/>
      <point x="90.99166666666666" y="536.5166666666667" type="line"/>
      <point x="308.7583333333333" y="508.15000000000003" type="line"/>
      <point x="336.7416666666667" y="582.5583333333334"/>
      <point x="381.3833333333333" y="629.875"/>
      <point x="460.6083333333333" y="629.875" type="curve" smooth="yes"/>
      <point x="550.5833333333334" y="629.875"/>
      <point x="586.375" y="574.0250000000001"/>
      <point x="586.375" y="471.2416666666666" type="curve" smooth="yes"/>
      <point x="586.375" y="382.80833333333334" type="line" smooth="yes"/>
      <point x="586.375" y="260.2583333333333"/>
      <point x="531.5833333333334" y="195.76666666666668"/>
      <point x="377.5333333333333" y="195.76666666666668" type="curve" smooth="yes"/>
      <point x="261.73333333333335" y="195.76666666666668"/>
      <point x="159.1" y="232.69166666666666"/>
      <point x="85.3" y="273.0083333333333" type="curve"/>
      <point x="104.55833333333334" y="46.083333333333336" type="line"/>
      <point x="165.39166666666665" y="14.083333333333332"/>
      <point x="271.1" y="-21.958333333333336"/>
    </contour>
  </outline>
</glyph>
<glyph name="six" format="2">
  <advance width="949.3583333333335"/>
  <unicode hex="0036"/>
  <outline>
    <contour>
      <point x="486.5083333333333" y="-23.191666666666666" type="curve" smooth="yes"/>
      <point x="750.8249999999999" y="-23.191666666666666"/>
      <point x="883.9833333333332" y="116.40833333333335"/>
      <point x="883.9833333333332" y="366.76666666666665" type="curve" smooth="yes"/>
      <point x="883.9833333333332" y="459.3666666666667" type="line" smooth="yes"/>
      <point x="883.9833333333332" y="695.525"/>
      <point x="793.2083333333334" y="829.4333333333333"/>
      <point x="594.1833333333333" y="829.4333333333333" type="curve" smooth="yes"/>
      <point x="432.7083333333333" y="829.4333333333333"/>
      <point x="356.39166666666665" y="744.575"/>
      <point x="328.95833333333337" y="637.3916666666667" type="curve"/>
      <point x="285.79166666666663" y="637.3916666666667" type="line"/>
      <point x="313.9583333333333" y="486.15" type="line"/>
      <point x="339.0833333333333" y="574.7916666666666"/>
      <point x="405.23333333333335" y="633.8"/>
      <point x="498.2833333333333" y="633.8" type="curve" smooth="yes"/>
      <point x="606.6" y="633.8"/>
      <point x="644.5083333333334" y="568.725"/>
      <point x="644.5083333333334" y="453.175" type="curve" smooth="yes"/>
      <point x="644.5083333333334" y="365.69166666666666" type="line" smooth="yes"/>
      <point x="644.5083333333334" y="248.38333333333333"/>
      <point x="598.7083333333334" y="183.26666666666665"/>
      <point x="490.7333333333333" y="183.26666666666665" type="curve" smooth="yes"/>
      <point x="374.65" y="183.26666666666665"/>
      <point x="319.07500000000005" y="256.8"/>
      <point x="319.07500000000005" y="411.275" type="curve"/>
      <point x="319.07500000000005" y="798.725" type="line" smooth="yes"/>
      <point x="319.07500000000005" y="994.125"/>
      <point x="398.4666666666667" y="1084.7666666666667"/>
      <point x="573.05" y="1084.7666666666667" type="curve" smooth="yes"/>
      <point x="685.4" y="1084.7666666666667"/>
      <point x="764.7333333333333" y="1055.4916666666666"/>
      <point x="833.0" y="1019.5166666666667" type="curve"/>
      <point x="811.7833333333333" y="1234.7166666666665" type="line"/>
      <point x="748.6416666666667" y="1267.0666666666666"/>
      <point x="651.125" y="1299.3416666666667"/>
      <point x="520.025" y="1299.3416666666667" type="curve" smooth="yes"/>
      <point x="225.3" y="1299.3416666666667"/>
      <point x="76.03333333333335" y="1124.1833333333334"/>
      <point x="76.03333333333335" y="810.7916666666666" type="curve" smooth="yes"/>
      <point x="76.03333333333335" y="425.35833333333335" type="line" smooth="yes"/>
      <point x="76.03333333333335" y="129.16666666666666"/>
      <point x="218.92499999999998" y="-23.191666666666666"/>
    </contour>
  </outline>
</glyph>
<glyph name="seven" format="2">
  <advance width="796.8000000000001"/>
  <unicode hex="0037"/>
  <outline>
    <contour>
      <point x="138.65833333333333" y="0.0" type="line"/>
      <point x="399.65" y="0.0" type="line"/>
      <point x="750.375" y="1056.8249999999998" type="line"/>
      <point x="750.375" y="1278.0" type="line"/>
      <point x="40.93333333333333" y="1278.0" type="line"/>
      <point x="40.93333333333333" y="1063.625" type="line"/>
      <point x="497.4916666666667" y="1063.625" type="line"/>
    </contour>
  </outline>
</glyph>
<glyph name="eight" format="2">
  <advance width="955.1166666666667"/>
  <unicode hex="0038"/>
  <outline>
    <contour>
      <point x="476.8666666666667" y="-26.608333333333334" type="curve" smooth="yes"/>
      <point x="780.6666666666666" y="-26.608333333333334"/>
      <point x="892.5833333333333" y="111.14166666666667"/>
      <point x="892.5833333333333" y="320.93333333333334" type="curve" smooth="yes"/>
      <point x="892.5833333333333" y="368.125" type="line" smooth="yes"/>
      <point x="892.5833333333333" y="532.9166666666666"/>
      <point x="822.9666666666667" y="627.9666666666667"/>
      <point x="681.2083333333334" y="665.3083333333334" type="curve"/>
      <point x="681.2083333333334" y="674.2666666666667" type="line"/>
      <point x="814.975" y="705.6833333333333"/>
      <point x="881.0833333333334" y="793.05"/>
      <point x="881.0833333333334" y="937.3416666666667" type="curve" smooth="yes"/>
      <point x="881.0833333333334" y="977.7916666666667" type="line" smooth="yes"/>
      <point x="881.0833333333334" y="1180.7"/>
      <point x="759.9499999999999" y="1302.7250000000001"/>
      <point x="476.8666666666667" y="1302.7250000000001" type="curve" smooth="yes"/>
      <point x="196.74166666666667" y="1302.7250000000001"/>
      <point x="74.34166666666667" y="1180.7"/>
      <point x="74.34166666666667" y="977.7916666666667" type="curve" smooth="yes"/>
      <point x="74.34166666666667" y="935.4250000000001" type="line" smooth="yes"/>
      <point x="74.34166666666667" y="792.625"/>
      <point x="140.25833333333335" y="704.8"/>
      <point x="273.45" y="674.2666666666667" type="curve"/>
      <point x="273.45" y="665.3083333333334" type="line"/>
      <point x="132.95833333333334" y="629.0416666666666"/>
      <point x="62.84166666666666" y="532.4583333333334"/>
      <point x="62.84166666666666" y="368.125" type="curve" smooth="yes"/>
      <point x="62.84166666666666" y="320.93333333333334" type="line" smooth="yes"/>
      <point x="62.84166666666666" y="107.49166666666667"/>
      <point x="180.48333333333335" y="-26.608333333333334"/>
    </contour>
    <contour>
      <point x="478.75" y="173.525" type="curve" smooth="yes"/>
      <point x="354.39166666666665" y="173.525"/>
      <point x="305.81666666666666" y="234.90833333333333"/>
      <point x="305.81666666666666" y="336.84166666666664" type="curve" smooth="yes"/>
      <point x="305.81666666666666" y="388.02500000000003" type="line" smooth="yes"/>
      <point x="305.81666666666666" y="485.3833333333333"/>
      <point x="357.975" y="540.5666666666666"/>
      <point x="474.1" y="562.6500000000001" type="curve"/>
      <point x="594.0666666666666" y="541.9499999999999"/>
      <point x="649.6083333333333" y="488.03333333333336"/>
      <point x="649.6083333333333" y="388.02500000000003" type="curve" smooth="yes"/>
      <point x="649.6083333333333" y="336.84166666666664" type="line" smooth="yes"/>
      <point x="649.6083333333333" y="235.6"/>
      <point x="602.225" y="173.525"/>
    </contour>
    <contour>
      <point x="480.82499999999993" y="744.4916666666667" type="curve"/>
      <point x="370.4916666666667" y="762.225"/>
      <point x="312.825" y="813.8583333333332"/>
      <point x="312.825" y="914.9916666666667" type="curve" smooth="yes"/>
      <point x="312.825" y="954.7" type="line" smooth="yes"/>
      <point x="312.825" y="1051.2833333333333"/>
      <point x="360.70000000000005" y="1108.35"/>
      <point x="476.8666666666667" y="1108.35" type="curve" smooth="yes"/>
      <point x="595.2249999999999" y="1108.35"/>
      <point x="642.4083333333333" y="1051.2833333333333"/>
      <point x="642.4083333333333" y="954.3166666666667" type="curve" smooth="yes"/>
      <point x="642.4083333333333" y="914.6083333333333" type="line" smooth="yes"/>
      <point x="642.4083333333333" y="814.1666666666666"/>
      <point x="581.7083333333333" y="760.3416666666666"/>
    </contour>
  </outline>
</glyph>
<glyph name="nine" format="2">
  <advance width="949.1666666666667"/>
  <unicode hex="0039"/>
  <outline>
    <contour>
      <point x="463.34999999999997" y="1299.8833333333334" type="curve" smooth="yes"/>
      <point x="199.60833333333335" y="1299.8833333333334"/>
      <point x="65.375" y="1159.5166666666669"/>
      <point x="65.375" y="909.925" type="curve" smooth="yes"/>
      <point x="65.375" y="807.1833333333334" type="line" smooth="yes"/>
      <point x="65.375" y="578.475"/>
      <point x="158.18333333333334" y="446.025"/>
      <point x="360.94166666666666" y="446.025" type="curve" smooth="yes"/>
      <point x="515.775" y="446.025"/>
      <point x="592.5083333333333" y="524.5583333333333"/>
      <point x="620.2083333333333" y="637.875" type="curve"/>
      <point x="681.3916666666667" y="637.875" type="line"/>
      <point x="634.6333333333333" y="785.8166666666667" type="line"/>
      <point x="609.3583333333333" y="699.0166666666667"/>
      <point x="545.6666666666666" y="641.6583333333333"/>
      <point x="456.50000000000006" y="641.6583333333333" type="curve" smooth="yes"/>
      <point x="347.1" y="641.6583333333333"/>
      <point x="304.6583333333333" y="705.3916666666667"/>
      <point x="304.6583333333333" y="820.6666666666666" type="curve" smooth="yes"/>
      <point x="304.6583333333333" y="910.0416666666666" type="line" smooth="yes"/>
      <point x="304.6583333333333" y="1026.9666666666667"/>
      <point x="351.5333333333333" y="1093.4250000000002"/>
      <point x="460.0833333333333" y="1093.4250000000002" type="curve" smooth="yes"/>
      <point x="579.2166666666667" y="1093.4250000000002"/>
      <point x="630.0916666666666" y="1020.8916666666667"/>
      <point x="630.0916666666666" y="869.2666666666668" type="curve"/>
      <point x="630.0916666666666" y="466.4416666666666" type="line" smooth="yes"/>
      <point x="630.0916666666666" y="279.10833333333335"/>
      <point x="549.4000000000001" y="191.73333333333332"/>
      <point x="368.2916666666667" y="191.73333333333332" type="curve" smooth="yes"/>
      <point x="258.93333333333334" y="191.73333333333332"/>
      <point x="181.89999999999998" y="221.39166666666668"/>
      <point x="116.62499999999999" y="256.675" type="curve"/>
      <point x="138.34166666666667" y="34.43333333333334" type="line"/>
      <point x="196.41666666666666" y="5.083333333333333"/>
      <point x="287.94166666666666" y="-23.26666666666667"/>
      <point x="413.775" y="-23.26666666666667" type="curve" smooth="yes"/>
      <point x="720.0666666666667" y="-23.26666666666667"/>
      <point x="873.1333333333333" y="146.93333333333334"/>
      <point x="873.1333333333333" y="454.7583333333334" type="curve" smooth="yes"/>
      <point x="873.1333333333333" y="850.7416666666667" type="line" smooth="yes"/>
      <point x="873.1333333333333" y="1147.7583333333332"/>
      <point x="736.3583333333333" y="1299.8833333333334"/>
    </contour>
  </outline>
</glyph>
<glyph name="less" format="2">
  <advance width="868.7833333333332"/>
  <unicode hex="003C"/>
  <outline>
    <contour>
      <point x="237.98333333333332" y="635.9250000000001" type="line"/>
      <point x="778.7416666666667" y="752.1916666666667" type="line"/>
      <point x="778.7416666666667" y="955.775" type="line"/>
      <point x="74.35833333333333" y="783.925" type="line"/>
      <point x="74.35833333333333" y="471.1583333333333" type="line"/>
      <point x="778.7416666666667" y="299.30833333333334" type="line"/>
      <point x="778.7416666666667" y="502.8916666666667" type="line"/>
      <point x="237.98333333333332" y="619.1583333333334" type="line"/>
    </contour>
  </outline>
</glyph>
<glyph name="equal" format="2">
  <advance width="872.1999999999999"/>
  <unicode hex="003D"/>
  <outline>
    <contour>
      <point x="83.71666666666667" y="344.475" type="line"/>
      <point x="788.4833333333333" y="344.475" type="line"/>
      <point x="788.4833333333333" y="537.7583333333333" type="line"/>
      <point x="83.71666666666667" y="537.7583333333333" type="line"/>
    </contour>
    <contour>
      <point x="83.71666666666667" y="718.7833333333333" type="line"/>
      <point x="788.4833333333333" y="718.7833333333333" type="line"/>
      <point x="788.4833333333333" y="912.0666666666667" type="line"/>
      <point x="83.71666666666667" y="912.0666666666667" type="line"/>
    </contour>
  </outline>
</glyph>
<glyph name="greater" format="2">
  <advance width="868.7833333333332"/>
  <unicode hex="003E"/>
  <outline>
    <contour>
      <point x="630.8000000000001" y="635.9250000000001" type="line"/>
      <point x="630.8000000000001" y="619.1583333333334" type="line"/>
      <point x="90.04166666666666" y="502.8916666666667" type="line"/>
      <point x="90.04166666666666" y="299.30833333333334" type="line"/>
      <point x="794.425" y="471.1583333333333" type="line"/>
      <point x="794.425" y="783.925" type="line"/>
      <point x="90.04166666666666" y="955.775" type="line"/>
      <point x="90.04166666666666" y="752.1916666666667" type="line"/>
    </contour>
  </outline>
</glyph>
<glyph name="question" format="2">
  <advance width="732.6999999999999"/>
  <unicode hex="003F"/>
  <outline>
    <contour>
      <point x="189.68333333333334" y="385.03333333333336" type="line"/>
      <point x="303.7583333333333" y="419.03333333333336" type="line" smooth="yes"/>
      <point x="554.1166666666667" y="490.8833333333334"/>
      <point x="673.5083333333333" y="602.9083333333333"/>
      <point x="673.5083333333333" y="850.3416666666666" type="curve" smooth="yes"/>
      <point x="673.5083333333333" y="957.6166666666667" type="line" smooth="yes"/>
      <point x="673.5083333333333" y="1176.0916666666667"/>
      <point x="565.1166666666667" y="1300.5333333333333"/>
      <point x="331.55" y="1300.5333333333333" type="curve" smooth="yes"/>
      <point x="214.20833333333331" y="1300.5333333333333"/>
      <point x="116.18333333333335" y="1268.525"/>
      <point x="56.23333333333333" y="1236.8666666666668" type="curve"/>
      <point x="31.058333333333337" y="1028.9" type="line"/>
      <point x="102.16666666666667" y="1063.6416666666667"/>
      <point x="180.98333333333335" y="1089.925"/>
      <point x="266.30833333333334" y="1089.925" type="curve" smooth="yes"/>
      <point x="385.65" y="1089.925"/>
      <point x="430.0083333333333" y="1033.8166666666666"/>
      <point x="430.0083333333333" y="927.8333333333334" type="curve" smooth="yes"/>
      <point x="430.0083333333333" y="845.2333333333333" type="line" smooth="yes"/>
      <point x="430.0083333333333" y="729.425"/>
      <point x="389.5583333333334" y="671.7"/>
      <point x="254.8666666666667" y="629.4083333333333" type="curve" smooth="yes"/>
      <point x="189.68333333333334" y="610.0583333333333" type="line"/>
    </contour>
    <contour>
      <point x="278.78333333333336" y="-23.141666666666666" type="curve" smooth="yes"/>
      <point x="366.84166666666664" y="-23.141666666666666"/>
      <point x="410.46666666666664" y="29.866666666666667"/>
      <point x="410.46666666666664" y="122.24166666666667" type="curve" smooth="yes"/>
      <point x="410.46666666666664" y="135.93333333333334" type="line" smooth="yes"/>
      <point x="410.46666666666664" y="227.11666666666667"/>
      <point x="366.84166666666664" y="280.7"/>
      <point x="278.78333333333336" y="280.7" type="curve" smooth="yes"/>
      <point x="188.5333333333333" y="280.7"/>
      <point x="147.29166666666666" y="227.11666666666667"/>
      <point x="147.29166666666666" y="135.93333333333334" type="curve" smooth="yes"/>
      <point x="147.29166666666666" y="122.24166666666667" type="line" smooth="yes"/>
      <point x="147.29166666666666" y="29.866666666666667"/>
      <point x="188.5333333333333" y="-23.141666666666666"/>
    </contour>
  </outline>
</glyph>
<glyph name="at" format="2">
  <advance width="1507.7"/>
  <unicode hex="0040"/>
  <outline>
    <contour>
      <point x="626.0250000000001" y="65.81666666666666" type="curve" smooth="yes"/>
      <point x="750.0500000000001" y="65.81666666666666"/>
      <point x="803.7916666666666" y="135.55833333333334"/>
      <point x="833.9166666666666" y="232.50833333333335" type="curve"/>
      <point x="877.85" y="232.50833333333335" type="line"/>
      <point x="851.725" y="351.25" type="line"/>
      <point x="831.9833333333333" y="287.39166666666665"/>
      <point x="790.8" y="247.93333333333334"/>
      <point x="735.1" y="247.93333333333334" type="curve" smooth="yes"/>
      <point x="677.4416666666667" y="247.93333333333334"/>
      <point x="650.3416666666667" y="283.60833333333335"/>
      <point x="650.3416666666667" y="352.8833333333334" type="curve" smooth="yes"/>
      <point x="650.3416666666667" y="378.8833333333333"/>
      <point x="652.4166666666667" y="408.4916666666667"/>
      <point x="672.0" y="591.4916666666667" type="curve" smooth="yes"/>
      <point x="682.9666666666667" y="692.5416666666666"/>
      <point x="715.2666666666667" y="748.0666666666666"/>
      <point x="787.5833333333334" y="748.0666666666666" type="curve" smooth="yes"/>
      <point x="848.35" y="748.0666666666666"/>
      <point x="880.5" y="706.1166666666667"/>
      <point x="880.5" y="631.9499999999999" type="curve" smooth="yes"/>
      <point x="880.5" y="623.1416666666667"/>
      <point x="880.3083333333334" y="613.5666666666666"/>
      <point x="879.3083333333334" y="603.6833333333333" type="curve"/>
      <point x="937.0833333333334" y="759.3" type="line"/>
      <point x="885.6166666666667" y="759.3" type="line"/>
      <point x="873.3416666666667" y="858.475"/>
      <point x="828.5166666666667" y="924.65"/>
      <point x="714.2166666666666" y="924.65" type="curve" smooth="yes"/>
      <point x="547.2249999999999" y="924.65"/>
      <point x="474.29166666666663" y="794.9083333333333"/>
      <point x="450.025" y="566.925" type="curve" smooth="yes"/>
      <point x="430.6333333333333" y="381.04166666666663"/>
      <point x="428.175" y="349.175"/>
      <point x="428.175" y="312.95" type="curve" smooth="yes"/>
      <point x="428.175" y="151.54166666666666"/>
      <point x="494.33333333333337" y="65.81666666666666"/>
    </contour>
    <contour>
      <point x="823.8000000000001" y="76.93333333333334" type="line"/>
      <point x="1026.8999999999999" y="92.34166666666667" type="line"/>
      <point x="1115.4416666666666" y="909.1916666666666" type="line"/>
      <point x="907.8416666666666" y="909.1916666666666" type="line"/>
      <point x="907.0333333333333" y="901.3" type="line"/>
      <point x="891.4583333333334" y="724.8833333333333" type="line"/>
      <point x="887.65" y="693.55" type="line"/>
      <point x="845.0333333333333" y="307.675" type="line"/>
      <point x="848.8416666666667" y="277.225" type="line"/>
    </contour>
    <contour>
      <point x="982.0416666666666" y="242.08333333333334" type="curve"/>
      <point x="823.8000000000001" y="76.93333333333334" type="line"/>
      <point x="874.5166666666667" y="68.24166666666667"/>
      <point x="938.8666666666666" y="64.55000000000001"/>
      <point x="995.1666666666667" y="66.43333333333334" type="curve" smooth="yes"/>
      <point x="1270.0916666666665" y="72.27499999999999"/>
      <point x="1389.7166666666665" y="176.81666666666666"/>
      <point x="1420.6000000000001" y="437.39166666666665" type="curve" smooth="yes"/>
      <point x="1435.1416666666667" y="562.2916666666666"/>
      <point x="1445.0666666666666" y="671.1166666666667"/>
      <point x="1448.9916666666666" y="737.0916666666667" type="curve" smooth="yes"/>
      <point x="1469.5749999999998" y="1128.3583333333333"/>
      <point x="1227.0583333333334" y="1335.0333333333333"/>
      <point x="816.375" y="1335.0333333333333" type="curve" smooth="yes"/>
      <point x="373.65833333333336" y="1335.0333333333333"/>
      <point x="148.88333333333333" y="1103.4083333333333"/>
      <point x="100.15833333333335" y="671.4583333333333" type="curve" smooth="yes"/>
      <point x="86.65833333333333" y="552.6333333333332"/>
      <point x="69.96666666666667" y="373.68333333333334"/>
      <point x="65.31666666666666" y="277.21666666666664" type="curve" smooth="yes"/>
      <point x="47.74999999999999" y="-125.20833333333333"/>
      <point x="287.71666666666664" y="-329.39166666666665"/>
      <point x="731.5749999999999" y="-329.39166666666665" type="curve" smooth="yes"/>
      <point x="955.0999999999999" y="-329.39166666666665"/>
      <point x="1112.3666666666666" y="-282.1166666666667"/>
      <point x="1223.1750000000002" y="-227.70833333333334" type="curve"/>
      <point x="1251.1583333333333" y="-50.41666666666667" type="line"/>
      <point x="1144.8166666666668" y="-107.13333333333334"/>
      <point x="965.8583333333332" y="-164.64166666666668"/>
      <point x="747.45" y="-164.64166666666668" type="curve" smooth="yes"/>
      <point x="399.725" y="-164.64166666666668"/>
      <point x="241.78333333333336" y="-3.2416666666666645"/>
      <point x="255.39166666666665" y="287.5916666666667" type="curve" smooth="yes"/>
      <point x="260.0416666666667" y="375.025"/>
      <point x="275.0083333333333" y="534.2583333333332"/>
      <point x="292.80833333333334" y="677.275" type="curve" smooth="yes"/>
      <point x="328.15000000000003" y="964.2666666666667"/>
      <point x="464.65000000000003" y="1171.7083333333335"/>
      <point x="806.7666666666667" y="1171.7083333333335" type="curve" smooth="yes"/>
      <point x="1130.7416666666666" y="1171.7083333333335"/>
      <point x="1276.2333333333333" y="1000.2666666666667"/>
      <point x="1260.3" y="739.9666666666666" type="curve" smooth="yes"/>
      <point x="1255.875" y="678.425"/>
      <point x="1243.4499999999998" y="552.0833333333333"/>
      <point x="1230.1416666666667" y="448.0083333333333" type="curve" smooth="yes"/>
      <point x="1211.25" y="297.2666666666667"/>
      <point x="1158.275" y="237.70833333333334"/>
      <point x="1053.2333333333333" y="237.70833333333334" type="curve" smooth="yes"/>
      <point x="1022.4250000000001" y="237.70833333333334"/>
      <point x="1009.6916666666667" y="238.59166666666667"/>
    </contour>
  </outline>
</glyph>
<glyph name="A" format="2">
  <advance width="1004.8666666666667"/>
  <unicode hex="0041"/>
  <anchor x="502.93333333333334" y="0.0" name="bottom"/>
  <anchor x="1009.9666666666667" y="0.0" name="ogonek"/>
  <anchor x="502.93333333333334" y="1278.0" name="top"/>
  <outline>
    <contour>
      <point x="30.991666666666667" y="0.0" type="line"/>
      <point x="276.9166666666667" y="0.0" type="line"/>
      <point x="490.8916666666666" y="1108.1666666666667" type="line"/>
      <point x="513.8166666666666" y="1108.1666666666667" type="line"/>
      <point x="727.9499999999999" y="0.0" type="line"/>
      <point x="973.8750000000001" y="0.0" type="line"/>
      <point x="693.1" y="1278.0" type="line"/>
      <point x="311.6083333333333" y="1278.0" type="line"/>
    </contour>
    <contour>
      <point x="269.7083333333333" y="323.16666666666663" type="line"/>
      <point x="732.775" y="323.16666666666663" type="line"/>
      <point x="732.775" y="519.6166666666667" type="line"/>
      <point x="269.7083333333333" y="519.6166666666667" type="line"/>
    </contour>
  </outline>
</glyph>
<glyph name="B" format="2">
  <advance width="999.1166666666667"/>
  <unicode hex="0042"/>
  <anchor x="501.71666666666664" y="0.0" name="bottom"/>
  <anchor x="501.71666666666664" y="1278.0" name="top"/>
  <outline>
    <contour>
      <point x="284.2083333333333" y="0.0" type="line"/>
      <point x="562.7083333333334" y="0.0" type="line" smooth="yes"/>
      <point x="828.1916666666667" y="0.0"/>
      <point x="940.0083333333333" y="118.54166666666666"/>
      <point x="940.0083333333333" y="347.425" type="curve" smooth="yes"/>
      <point x="940.0083333333333" y="393.3" type="line" smooth="yes"/>
      <point x="940.0083333333333" y="563.0166666666668"/>
      <point x="877.1" y="659.275"/>
      <point x="707.8" y="686.3583333333333" type="curve"/>
      <point x="707.8" y="696.0500000000001" type="line"/>
      <point x="858.9499999999999" y="712.4083333333333"/>
      <point x="922.125" y="796.4083333333333"/>
      <point x="922.125" y="943.25" type="curve" smooth="yes"/>
      <point x="922.125" y="971.65" type="line" smooth="yes"/>
      <point x="922.125" y="1169.9166666666667"/>
      <point x="811.6166666666667" y="1278.0"/>
      <point x="545.6" y="1278.0" type="curve" smooth="yes"/>
      <point x="276.7916666666667" y="1278.0" type="line"/>
      <point x="276.7916666666667" y="1078.1" type="line"/>
      <point x="526.9583333333334" y="1078.1" type="line" smooth="yes"/>
      <point x="639.4416666666666" y="1078.1"/>
      <point x="679.2666666666667" y="1025.2166666666667"/>
      <point x="679.2666666666667" y="925.7083333333333" type="curve" smooth="yes"/>
      <point x="679.2666666666667" y="898.875" type="line" smooth="yes"/>
      <point x="679.2666666666667" y="800.9083333333333"/>
      <point x="638.5166666666667" y="746.525"/>
      <point x="525.1083333333333" y="746.525" type="curve" smooth="yes"/>
      <point x="279.56666666666666" y="746.525" type="line"/>
      <point x="279.56666666666666" y="557.9166666666666" type="line"/>
      <point x="528.1" y="557.9166666666666" type="line" smooth="yes"/>
      <point x="652.0583333333333" y="557.9166666666666"/>
      <point x="694.1166666666667" y="503.60833333333335"/>
      <point x="694.1166666666667" y="401.25" type="curve" smooth="yes"/>
      <point x="694.1166666666667" y="358.79166666666663" type="line" smooth="yes"/>
      <point x="694.1166666666667" y="257.05"/>
      <point x="652.0583333333333" y="202.43333333333334"/>
      <point x="535.5" y="202.43333333333334" type="curve" smooth="yes"/>
      <point x="284.2083333333333" y="202.43333333333334" type="line"/>
    </contour>
    <contour>
      <point x="108.11666666666667" y="0.0" type="line"/>
      <point x="347.3666666666667" y="0.0" type="line"/>
      <point x="347.3666666666667" y="1278.0" type="line"/>
      <point x="108.11666666666667" y="1278.0" type="line"/>
    </contour>
  </outline>
</glyph>
<glyph name="C" format="2">
  <advance width="830.6250000000001"/>
  <unicode hex="0043"/>
  <anchor x="459.5083333333333" y="0.0" name="bottom"/>
  <anchor x="459.5083333333333" y="1278.0" name="top"/>
  <outline>
    <contour>
      <point x="493.51666666666665" y="-23.34166666666667" type="curve" smooth="yes"/>
      <point x="611.4749999999999" y="-23.34166666666667"/>
      <point x="704.1999999999999" y="11.008333333333333"/>
      <point x="759.9250000000001" y="46.891666666666666" type="curve"/>
      <point x="777.1833333333333" y="272.97499999999997" type="line"/>
      <point x="719.7916666666667" y="233.95833333333334"/>
      <point x="649.0833333333334" y="203.21666666666667"/>
      <point x="555.0250000000001" y="203.21666666666667" type="curve" smooth="yes"/>
      <point x="396.55" y="203.21666666666667"/>
      <point x="328.875" y="297.04999999999995"/>
      <point x="328.875" y="458.9083333333333" type="curve" smooth="yes"/>
      <point x="328.875" y="822.5916666666667" type="line" smooth="yes"/>
      <point x="328.875" y="985.45"/>
      <point x="395.05" y="1079.975"/>
      <point x="546.3" y="1079.975" type="curve" smooth="yes"/>
      <point x="641.3583333333332" y="1079.975"/>
      <point x="710.7166666666667" y="1048.3083333333334"/>
      <point x="768.4916666666667" y="1011.1" type="curve"/>
      <point x="751.4250000000001" y="1231.45" type="line"/>
      <point x="695.1999999999999" y="1268.2583333333334"/>
      <point x="607.55" y="1301.3416666666667"/>
      <point x="491.1333333333334" y="1301.3416666666667" type="curve" smooth="yes"/>
      <point x="213.19166666666666" y="1301.3416666666667"/>
      <point x="77.84166666666667" y="1137.0583333333334"/>
      <point x="77.84166666666667" y="835.5749999999999" type="curve" smooth="yes"/>
      <point x="77.84166666666667" y="446.9583333333333" type="line" smooth="yes"/>
      <point x="77.84166666666667" y="142.13333333333333"/>
      <point x="209.35000000000002" y="-23.34166666666667"/>
    </contour>
  </outline>
</glyph>
<glyph name="D" format="2">
  <advance width="1027.4583333333333"/>
  <unicode hex="0044"/>
  <anchor x="500.5666666666667" y="0.0" name="bottom"/>
  <anchor x="517.2166666666667" y="639.0" name="center"/>
  <anchor x="500.5666666666667" y="1278.0" name="top"/>
  <outline>
    <contour>
      <point x="274.44166666666666" y="0.0" type="line"/>
      <point x="508.3083333333333" y="0.0" type="line" smooth="yes"/>
      <point x="808.6333333333333" y="0.0"/>
      <point x="951.2333333333332" y="154.71666666666667"/>
      <point x="951.2333333333332" y="437.72499999999997" type="curve" smooth="yes"/>
      <point x="951.2333333333332" y="841.4666666666667" type="line" smooth="yes"/>
      <point x="951.2333333333332" y="1123.5916666666667"/>
      <point x="806.5583333333334" y="1278.0"/>
      <point x="508.3083333333333" y="1278.0" type="curve" smooth="yes"/>
      <point x="275.05833333333334" y="1278.0" type="line"/>
      <point x="275.05833333333334" y="1070.0833333333335" type="line"/>
      <point x="497.625" y="1070.0833333333335" type="line" smooth="yes"/>
      <point x="636.6916666666666" y="1070.0833333333335"/>
      <point x="703.6916666666667" y="992.6166666666667"/>
      <point x="703.6916666666667" y="841.0416666666666" type="curve" smooth="yes"/>
      <point x="703.6916666666667" y="438.72499999999997" type="line" smooth="yes"/>
      <point x="703.6916666666667" y="287.76666666666665"/>
      <point x="636.6916666666666" y="209.8"/>
      <point x="497.625" y="209.8" type="curve" smooth="yes"/>
      <point x="274.44166666666666" y="209.8" type="line"/>
    </contour>
    <contour>
      <point x="108.11666666666667" y="0.0" type="line"/>
      <point x="351.89166666666665" y="0.0" type="line"/>
      <point x="351.89166666666665" y="1278.0" type="line"/>
      <point x="108.11666666666667" y="1278.0" type="line"/>
    </contour>
  </outline>
</glyph>
<glyph name="E" format="2">
  <advance width="874.175"/>
  <unicode hex="0045"/>
  <anchor x="456.89166666666665" y="0.0" name="bottom"/>
  <anchor x="821.5" y="0.0" name="ogonek"/>
  <anchor x="456.89166666666665" y="1278.0" name="top"/>
  <anchor x="20.0" y="1278.0" name="topleft"/>
  <outline>
    <contour>
      <point x="108.11666666666667" y="0.0" type="line"/>
      <point x="349.70000000000005" y="0.0" type="line"/>
      <point x="349.70000000000005" y="1278.0" type="line"/>
      <point x="108.11666666666667" y="1278.0" type="line"/>
    </contour>
    <contour>
      <point x="219.675" y="0.0" type="line"/>
      <point x="802.7750000000001" y="0.0" type="line"/>
      <point x="802.7750000000001" y="211.87500000000003" type="line"/>
      <point x="219.675" y="211.87500000000003" type="line"/>
    </contour>
    <contour>
      <point x="258.53333333333336" y="547.2333333333333" type="line"/>
      <point x="786.625" y="547.2333333333333" type="line"/>
      <point x="786.625" y="753.3916666666667" type="line"/>
      <point x="258.53333333333336" y="753.3916666666667" type="line"/>
    </contour>
    <contour>
      <point x="218.75" y="1067.7749999999999" type="line"/>
      <point x="798.8916666666668" y="1067.7749999999999" type="line"/>
      <point x="798.8916666666668" y="1278.0" type="line"/>
      <point x="218.75" y="1278.0" type="line"/>
    </contour>
  </outline>
</glyph>
<glyph name="F" format="2">
  <advance width="832.8"/>
  <unicode hex="0046"/>
  <anchor x="416.8416666666667" y="0.0" name="bottom"/>
  <anchor x="416.8416666666667" y="1278.0" name="top"/>
  <outline>
    <contour>
      <point x="108.11666666666667" y="0.0" type="line"/>
      <point x="354.54166666666663" y="0.0" type="line"/>
      <point x="354.54166666666663" y="1278.0" type="line"/>
      <point x="108.11666666666667" y="1278.0" type="line"/>
    </contour>
    <contour>
      <point x="258.53333333333336" y="486.27500000000003" type="line"/>
      <point x="761.3666666666667" y="486.27500000000003" type="line"/>
      <point x="761.3666666666667" y="700.6833333333333" type="line"/>
      <point x="258.53333333333336" y="700.6833333333333" type="line"/>
    </contour>
    <contour>
      <point x="218.75" y="1063.4" type="line"/>
      <point x="774.25" y="1063.4" type="line"/>
      <point x="774.25" y="1278.0" type="line"/>
      <point x="218.75" y="1278.0" type="line"/>
    </contour>
  </outline>
</glyph>
<glyph name="G" format="2">
  <advance width="1008.9083333333334"/>
  <unicode hex="0047"/>
  <anchor x="504.93333333333334" y="0.0" name="bottom"/>
  <anchor x="504.93333333333334" y="1278.0" name="top"/>
  <outline>
    <contour>
      <point x="422.25" y="-23.65" type="curve" smooth="yes"/>
      <point x="597.15" y="-23.65"/>
      <point x="659.2" y="68.45"/>
      <point x="684.8916666666667" y="183.34166666666667" type="curve"/>
      <point x="918.5416666666666" y="183.03333333333333" type="line"/>
      <point x="918.5416666666666" y="741.5333333333334" type="line"/>
      <point x="527.675" y="741.5333333333334" type="line"/>
      <point x="527.675" y="543.1166666666667" type="line"/>
      <point x="726.025" y="543.5" type="line"/>
      <point x="688.5833333333334" y="632.5" type="line"/>
      <point x="688.5833333333334" y="317.43333333333334" type="line"/>
      <point x="665.85" y="248.19166666666666"/>
      <point x="612.7833333333333" y="191.79999999999998"/>
      <point x="516.0" y="191.79999999999998" type="curve" smooth="yes"/>
      <point x="386.2166666666667" y="191.79999999999998"/>
      <point x="326.9583333333333" y="271.9916666666667"/>
      <point x="326.9583333333333" y="419.325" type="curve" smooth="yes"/>
      <point x="326.9583333333333" y="800.2583333333333" type="line" smooth="yes"/>
      <point x="326.9583333333333" y="989.7416666666667"/>
      <point x="410.0083333333333" y="1083.9666666666667"/>
      <point x="600.8583333333333" y="1083.9666666666667" type="curve" smooth="yes"/>
      <point x="724.3583333333333" y="1083.9666666666667"/>
      <point x="820.0500000000001" y="1045.3833333333334"/>
      <point x="893.8166666666667" y="1002.9083333333333" type="curve"/>
      <point x="873.9833333333332" y="1221.9916666666668" type="line"/>
      <point x="804.1500000000001" y="1263.1833333333334"/>
      <point x="690.9416666666667" y="1301.3416666666667"/>
      <point x="548.0666666666666" y="1301.3416666666667" type="curve" smooth="yes"/>
      <point x="239.025" y="1301.3416666666667"/>
      <point x="77.84166666666667" y="1133.5166666666667"/>
      <point x="77.84166666666667" y="811.1583333333333" type="curve" smooth="yes"/>
      <point x="77.84166666666667" y="424.3166666666667" type="line" smooth="yes"/>
      <point x="77.84166666666667" y="141.35833333333332"/>
      <point x="185.15" y="-23.65"/>
    </contour>
    <contour>
      <point x="697.0833333333333" y="236.45833333333334" type="line"/>
      <point x="688.5083333333333" y="0.0" type="line"/>
      <point x="918.5416666666666" y="0.0" type="line"/>
      <point x="918.5416666666666" y="236.45833333333334" type="line"/>
    </contour>
  </outline>
</glyph>
<glyph name="H" format="2">
  <advance width="1073.5666666666666"/>
  <unicode hex="0048"/>
  <anchor x="536.975" y="0.0" name="bottom"/>
  <anchor x="536.975" y="639.0" name="center"/>
  <anchor x="536.975" y="1278.0" name="top"/>
  <anchor x="20.0" y="1278.0" name="topleft"/>
  <outline>
    <contour>
      <point x="356.5" y="0.0" type="line"/>
      <point x="356.5" y="1278.0" type="line"/>
      <point x="108.11666666666667" y="1278.0" type="line"/>
      <point x="108.11666666666667" y="0.0" type="line"/>
    </contour>
    <contour>
      <point x="965.4499999999999" y="0.0" type="line"/>
      <point x="965.4499999999999" y="1278.0" type="line"/>
      <point x="717.0666666666667" y="1278.0" type="line"/>
      <point x="717.0666666666667" y="0.0" type="line"/>
    </contour>
    <contour>
      <point x="259.65000000000003" y="759.85" type="line"/>
      <point x="259.65000000000003" y="549.475" type="line"/>
      <point x="804.3916666666668" y="549.475" type="line"/>
      <point x="804.3916666666668" y="759.85" type="line"/>
    </contour>
  </outline>
</glyph>
<glyph name="I" format="2">
  <advance width="465.85"/>
  <unicode hex="0049"/>
  <anchor x="232.86666666666667" y="0.0" name="bottom"/>
  <anchor x="389.33333333333337" y="0.0" name="ogonek"/>
  <anchor x="233.05833333333334" y="1278.0" name="top"/>
  <anchor x="20.0" y="1278.0" name="topleft"/>
  <outline>
    <contour>
      <point x="357.1166666666666" y="0.0" type="line"/>
      <point x="357.1166666666666" y="1278.0" type="line"/>
      <point x="108.73333333333335" y="1278.0" type="line"/>
      <point x="108.73333333333335" y="0.0" type="line"/>
    </contour>
  </outline>
</glyph>
<glyph name="J" format="2">
  <advance width="679.3333333333334"/>
  <unicode hex="004A"/>
  <anchor x="341.43333333333334" y="0.0" name="bottom"/>
  <anchor x="453.2" y="1278.0" name="top"/>
  <outline>
    <contour>
      <point x="239.8833333333333" y="-17.76666666666667" type="curve" smooth="yes"/>
      <point x="486.4333333333333" y="-17.76666666666667"/>
      <point x="578.5250000000001" y="112.50833333333334"/>
      <point x="578.5250000000001" y="355.2083333333333" type="curve" smooth="yes"/>
      <point x="578.5250000000001" y="1278.0" type="line"/>
      <point x="330.45" y="1278.0" type="line"/>
      <point x="330.45" y="363.89166666666665" type="line" smooth="yes"/>
      <point x="330.45" y="255.35833333333335"/>
      <point x="296.43333333333334" y="197.91666666666666"/>
      <point x="180.94166666666666" y="197.91666666666666" type="curve" smooth="yes"/>
      <point x="130.85" y="197.91666666666666"/>
      <point x="84.99166666666666" y="208.45833333333331"/>
      <point x="37.86666666666667" y="227.275" type="curve"/>
      <point x="54.62500000000001" y="14.616666666666665" type="line"/>
      <point x="106.08333333333333" y="-6.383333333333333"/>
      <point x="172.925" y="-17.76666666666667"/>
    </contour>
  </outline>
</glyph>
<glyph name="K" format="2">
  <advance width="996.55"/>
  <unicode hex="004B"/>
  <anchor x="515.35" y="0.0" name="bottom"/>
  <anchor x="515.35" y="1278.0" name="top"/>
  <outline>
    <contour>
      <point x="710.875" y="0.0" type="line"/>
      <point x="983.3583333333333" y="0.0" type="line"/>
      <point x="616.1833333333333" y="700.4666666666667" type="line"/>
      <point x="617.1083333333333" y="642.0" type="line"/>
      <point x="971.0916666666668" y="1278.0" type="line"/>
      <point x="703.875" y="1278.0" type="line"/>
      <point x="415.1" y="738.5166666666667" type="line"/>
      <point x="331.6666666666667" y="738.5166666666667" type="line"/>
      <point x="331.6666666666667" y="568.9833333333333" type="line"/>
      <point x="415.1" y="568.9833333333333" type="line"/>
    </contour>
    <contour>
      <point x="108.11666666666667" y="0.0" type="line"/>
      <point x="352.04166666666663" y="0.0" type="line"/>
      <point x="352.04166666666663" y="1278.0" type="line"/>
      <point x="108.11666666666667" y="1278.0" type="line"/>
    </contour>
  </outline>
</glyph>
<glyph name="L" format="2">
  <advance width="812.8416666666666"/>
  <unicode hex="004C"/>
  <anchor x="428.9083333333333" y="0.0" name="bottom"/>
  <anchor x="351.2416666666667" y="645.475" name="center"/>
  <anchor x="232.55833333333334" y="1278.0" name="top"/>
  <anchor x="547.75" y="1278.0" name="topright"/>
  <outline>
    <contour>
      <point x="356.1916666666667" y="0.0" type="line"/>
      <point x="356.1916666666667" y="1278.0" type="line"/>
      <point x="108.11666666666667" y="1278.0" type="line"/>
      <point x="108.11666666666667" y="0.0" type="line"/>
    </contour>
    <contour>
      <point x="255.14166666666668" y="214.64166666666668" type="line"/>
      <point x="255.14166666666668" y="0.0" type="line"/>
      <point x="768.6083333333333" y="0.0" type="line"/>
      <point x="768.6083333333333" y="214.64166666666668" type="line"/>
    </contour>
  </outline>
</glyph>
<glyph name="M" format="2">
  <advance width="1333.3"/>
  <unicode hex="004D"/>
  <anchor x="667.2083333333334" y="0.0" name="bottom"/>
  <anchor x="667.2083333333334" y="1278.0" name="top"/>
  <outline>
    <contour>
      <point x="98.225" y="0.0" type="line"/>
      <point x="333.0083333333333" y="0.0" type="line"/>
      <point x="338.90000000000003" y="413.3583333333333" type="line"/>
      <point x="340.9833333333333" y="989.475" type="line"/>
      <point x="353.55833333333334" y="989.475" type="line"/>
      <point x="553.725" y="146.225" type="line"/>
      <point x="779.575" y="146.225" type="line"/>
      <point x="979.55" y="989.475" type="line"/>
      <point x="991.9333333333334" y="989.475" type="line"/>
      <point x="994.2083333333334" y="413.8583333333333" type="line"/>
      <point x="1000.2916666666666" y="0.0" type="line"/>
      <point x="1235.075" y="0.0" type="line"/>
      <point x="1209.3000000000002" y="1278.0" type="line"/>
      <point x="859.325" y="1278.0" type="line"/>
      <point x="672.7833333333333" y="465.475" type="line"/>
      <point x="662.0916666666667" y="465.475" type="line"/>
      <point x="474.1666666666667" y="1278.0" type="line"/>
      <point x="124.0" y="1278.0" type="line"/>
    </contour>
  </outline>
</glyph>
<glyph name="N" format="2">
  <advance width="1091.55"/>
  <unicode hex="004E"/>
  <anchor x="551.3083333333334" y="0.0" name="bottom"/>
  <anchor x="551.3083333333334" y="1278.0" name="top"/>
  <outline>
    <contour>
      <point x="455.2416666666667" y="1278.8833333333334" type="line"/>
      <point x="108.11666666666667" y="1278.8833333333334" type="line"/>
      <point x="108.11666666666667" y="0.0" type="line"/>
      <point x="340.90833333333336" y="0.0" type="line"/>
      <point x="340.90833333333336" y="421.4666666666667" type="line"/>
      <point x="326.725" y="1017.9" type="line"/>
      <point x="338.10833333333335" y="1017.9" type="line"/>
      <point x="642.1083333333332" y="0.0" type="line"/>
      <point x="983.4333333333333" y="0.0" type="line"/>
      <point x="983.4333333333333" y="1278.8833333333334" type="line"/>
      <point x="751.525" y="1278.8833333333334" type="line"/>
      <point x="751.525" y="857.475" type="line"/>
      <point x="765.4" y="275.0083333333334" type="line"/>
      <point x="754.0166666666667" y="275.0083333333334" type="line"/>
    </contour>
  </outline>
</glyph>
<glyph name="O" format="2">
  <advance width="1040.4083333333333"/>
  <unicode hex="004F"/>
  <anchor x="520.0500000000001" y="0.0" name="bottom"/>
  <anchor x="520.0500000000001" y="639.0" name="center"/>
  <anchor x="766.9416666666667" y="4.041666666666667" name="ogonek"/>
  <anchor x="520.0500000000001" y="1278.0" name="top"/>
  <anchor x="12.808333333333334" y="1278.0" name="topleft"/>
  <anchor x="965.5083333333333" y="1278.0" name="topright"/>
  <outline>
    <contour>
      <point x="520.0500000000001" y="-24.416666666666668" type="curve" smooth="yes"/>
      <point x="814.3249999999999" y="-24.416666666666668"/>
      <point x="962.5666666666667" y="138.14166666666668"/>
      <point x="962.5666666666667" y="442.5916666666667" type="curve" smooth="yes"/>
      <point x="962.5666666666667" y="832.3416666666667" type="line" smooth="yes"/>
      <point x="962.5666666666667" y="1136.175"/>
      <point x="813.75" y="1301.65"/>
      <point x="520.0500000000001" y="1301.65" type="curve" smooth="yes"/>
      <point x="226.04166666666669" y="1301.65"/>
      <point x="77.84166666666667" y="1136.175"/>
      <point x="77.84166666666667" y="832.3416666666667" type="curve" smooth="yes"/>
      <point x="77.84166666666667" y="442.5916666666667" type="line" smooth="yes"/>
      <point x="77.84166666666667" y="138.14166666666668"/>
      <point x="225.46666666666667" y="-24.416666666666668"/>
    </contour>
    <contour>
      <point x="520.0500000000001" y="182.54166666666666" type="curve" smooth="yes"/>
      <point x="388.14166666666665" y="182.54166666666666"/>
      <point x="328.68333333333334" y="268.0083333333333"/>
      <point x="328.68333333333334" y="425.18333333333334" type="curve" smooth="yes"/>
      <point x="328.68333333333334" y="850.4416666666666" type="line" smooth="yes"/>
      <point x="328.68333333333334" y="1009.9583333333334"/>
      <point x="388.14166666666665" y="1095.075"/>
      <point x="520.0500000000001" y="1095.075" type="curve" smooth="yes"/>
      <point x="651.4583333333334" y="1095.075"/>
      <point x="711.4166666666666" y="1009.9583333333334"/>
      <point x="711.4166666666666" y="850.4416666666666" type="curve" smooth="yes"/>
      <point x="711.4166666666666" y="425.18333333333334" type="line" smooth="yes"/>
      <point x="711.4166666666666" y="268.0083333333333"/>
      <point x="651.4583333333334" y="182.54166666666666"/>
    </contour>
  </outline>
</glyph>
<glyph name="P" format="2">
  <advance width="972.2166666666667"/>
  <unicode hex="0050"/>
  <anchor x="485.7416666666666" y="0.0" name="bottom"/>
  <anchor x="485.7416666666666" y="1278.0" name="top"/>
  <outline>
    <contour>
      <point x="264.7166666666667" y="383.31666666666666" type="line"/>
      <point x="520.8583333333333" y="383.31666666666666" type="line" smooth="yes"/>
      <point x="792.9833333333333" y="383.31666666666666"/>
      <point x="914.2249999999999" y="515.0"/>
      <point x="914.2249999999999" y="763.9416666666666" type="curve" smooth="yes"/>
      <point x="914.2249999999999" y="897.9166666666666" type="line" smooth="yes"/>
      <point x="914.2249999999999" y="1141.9"/>
      <point x="793.2916666666666" y="1278.0"/>
      <point x="519.7083333333334" y="1278.0" type="curve" smooth="yes"/>
      <point x="265.3333333333333" y="1278.0" type="line"/>
      <point x="265.3333333333333" y="1073.1916666666666" type="line"/>
      <point x="508.075" y="1073.1916666666666" type="line" smooth="yes"/>
      <point x="623.425" y="1073.1916666666666"/>
      <point x="669.7583333333333" y="1013.1916666666667"/>
      <point x="669.7583333333333" y="892.2666666666668" type="curve" smooth="yes"/>
      <point x="669.7583333333333" y="769.475" type="line" smooth="yes"/>
      <point x="669.7583333333333" y="649.1666666666666"/>
      <point x="623.425" y="588.625"/>
      <point x="507.15" y="588.625" type="curve" smooth="yes"/>
      <point x="264.7166666666667" y="588.625" type="line"/>
    </contour>
    <contour>
      <point x="108.11666666666667" y="0.0" type="line"/>
      <point x="351.5083333333333" y="0.0" type="line"/>
      <point x="351.5083333333333" y="414.45" type="line"/>
      <point x="349.81666666666666" y="530.3583333333333" type="line"/>
      <point x="349.81666666666666" y="1278.0" type="line"/>
      <point x="108.11666666666667" y="1278.0" type="line"/>
    </contour>
  </outline>
</glyph>
<glyph name="Q" format="2">
  <advance width="1042.9083333333335"/>
  <unicode hex="0051"/>
  <anchor x="522.0500000000001" y="0.0" name="bottom"/>
  <anchor x="522.0500000000001" y="1278.0" name="top"/>
  <outline>
    <contour>
      <point x="1036.3" y="-41.94166666666666" type="line"/>
      <point x="1036.3" y="169.28333333333333" type="line"/>
      <point x="732.0500000000001" y="159.825" type="line"/>
      <point x="732.0500000000001" y="170.59166666666667" type="line"/>
      <point x="880.6750000000001" y="198.06666666666666"/>
      <point x="962.375" y="298.55"/>
      <point x="962.375" y="501.8" type="curve" smooth="yes"/>
      <point x="962.375" y="829.8333333333334" type="line" smooth="yes"/>
      <point x="962.375" y="1136.0583333333334"/>
      <point x="812.9416666666666" y="1301.65"/>
      <point x="520.0500000000001" y="1301.65" type="curve" smooth="yes"/>
      <point x="226.65833333333336" y="1301.65"/>
      <point x="77.84166666666667" y="1136.0583333333334"/>
      <point x="77.84166666666667" y="829.45" type="curve" smooth="yes"/>
      <point x="77.84166666666667" y="450.16666666666663" type="line" smooth="yes"/>
      <point x="77.84166666666667" y="142.25833333333333"/>
      <point x="220.8166666666667" y="-11.541666666666668"/>
      <point x="579.4583333333333" y="-24.991666666666667" type="curve" smooth="yes"/>
    </contour>
    <contour>
      <point x="544.0583333333333" y="182.80833333333334" type="line" smooth="yes"/>
      <point x="403.09999999999997" y="186.35"/>
      <point x="328.68333333333334" y="272.0"/>
      <point x="328.68333333333334" y="429.9916666666667" type="curve" smooth="yes"/>
      <point x="328.68333333333334" y="846.3583333333333" type="line" smooth="yes"/>
      <point x="328.68333333333334" y="1009.8833333333333"/>
      <point x="388.7583333333333" y="1095.0"/>
      <point x="520.0500000000001" y="1095.0" type="curve" smooth="yes"/>
      <point x="650.8416666666667" y="1095.0"/>
      <point x="711.4166666666666" y="1009.8833333333333"/>
      <point x="711.4166666666666" y="846.3583333333333" type="curve" smooth="yes"/>
      <point x="711.4166666666666" y="440.55833333333334" type="line" smooth="yes"/>
      <point x="711.4166666666666" y="283.7583333333333"/>
      <point x="651.675" y="209.04166666666666"/>
      <point x="564.2833333333333" y="182.30833333333334" type="curve"/>
    </contour>
  </outline>
</glyph>
<glyph name="R" format="2">
  <advance width="994.9166666666667"/>
  <unicode hex="0052"/>
  <anchor x="508.44166666666666" y="0.0" name="bottom"/>
  <anchor x="498.825" y="1278.0" name="top"/>
  <outline>
    <contour>
      <point x="688.6916666666667" y="0.0" type="line"/>
      <point x="938.7333333333333" y="0.0" type="line"/>
      <point x="904.8000000000001" y="296.46666666666664" type="line" smooth="yes"/>
      <point x="881.9499999999999" y="491.52500000000003"/>
      <point x="837.575" y="596.2083333333333"/>
      <point x="628.6333333333334" y="613.9833333333333" type="curve"/>
      <point x="693.5666666666667" y="581.5083333333333" type="line"/>
      <point x="693.5666666666667" y="613.8583333333333" type="line"/>
      <point x="852.0416666666666" y="631.075"/>
      <point x="921.2333333333333" y="725.8916666666667"/>
      <point x="921.2333333333333" y="884.2833333333333" type="curve" smooth="yes"/>
      <point x="921.2333333333333" y="942.9583333333333" type="line" smooth="yes"/>
      <point x="921.2333333333333" y="1157.5833333333333"/>
      <point x="805.3416666666667" y="1278.0"/>
      <point x="538.4416666666667" y="1278.0" type="curve" smooth="yes"/>
      <point x="277.82500000000005" y="1278.0" type="line"/>
      <point x="277.82500000000005" y="1073.7666666666667" type="line"/>
      <point x="511.6166666666666" y="1073.7666666666667" type="line" smooth="yes"/>
      <point x="631.5166666666667" y="1073.7666666666667"/>
      <point x="675.2666666666667" y="1014.6916666666667"/>
      <point x="675.2666666666667" y="896.6166666666667" type="curve" smooth="yes"/>
      <point x="675.2666666666667" y="833.8416666666667" type="line" smooth="yes"/>
      <point x="675.2666666666667" y="718.8499999999999"/>
      <point x="630.25" y="659.0416666666667"/>
      <point x="511.30833333333334" y="658.7333333333333" type="curve" smooth="yes"/>
      <point x="281.7916666666667" y="657.9250000000001" type="line"/>
      <point x="281.7916666666667" y="462.72499999999997" type="line"/>
      <point x="496.83333333333337" y="462.22499999999997" type="line" smooth="yes"/>
      <point x="617.05" y="461.91666666666663"/>
      <point x="653.6666666666666" y="394.2083333333333"/>
      <point x="664.4833333333333" y="278.8666666666666" type="curve" smooth="yes"/>
    </contour>
    <contour>
      <point x="108.11666666666667" y="0.0" type="line"/>
      <point x="350.93333333333334" y="0.0" type="line"/>
      <point x="350.93333333333334" y="497.55" type="line"/>
      <point x="349.55" y="594.2833333333333" type="line"/>
      <point x="349.55" y="1278.0" type="line"/>
      <point x="108.11666666666667" y="1278.0" type="line"/>
    </contour>
  </outline>
</glyph>
<glyph name="S" format="2">
  <advance width="862.5249999999999"/>
  <unicode hex="0053"/>
  <anchor x="420.6083333333333" y="0.0" name="bottom"/>
  <anchor x="420.6083333333333" y="1278.0" name="top"/>
  <outline>
    <contour>
      <point x="398.84999999999997" y="-23.033333333333335" type="curve" smooth="yes"/>
      <point x="671.6750000000001" y="-23.033333333333335"/>
      <point x="803.6083333333333" y="102.49166666666666"/>
      <point x="803.6083333333333" y="335.3" type="curve" smooth="yes"/>
      <point x="803.6083333333333" y="364.05" type="line" smooth="yes"/>
      <point x="803.6083333333333" y="565.7333333333333"/>
      <point x="714.7833333333333" y="642.35"/>
      <point x="515.6583333333333" y="732.2583333333333" type="curve" smooth="yes"/>
      <point x="355.23333333333335" y="805.4916666666667"/>
      <point x="304.95" y="850.6666666666666"/>
      <point x="304.95" y="942.7333333333333" type="curve" smooth="yes"/>
      <point x="304.95" y="952.2833333333333" type="line" smooth="yes"/>
      <point x="304.95" y="1037.925"/>
      <point x="352.35833333333335" y="1085.6166666666666"/>
      <point x="480.01666666666665" y="1085.6166666666666" type="curve" smooth="yes"/>
      <point x="594.2916666666666" y="1085.6166666666666"/>
      <point x="687.5166666666667" y="1050.7666666666669"/>
      <point x="761.2416666666667" y="1007.45" type="curve"/>
      <point x="742.6" y="1226.8833333333332" type="line"/>
      <point x="673.0" y="1266.5333333333333"/>
      <point x="570.8583333333333" y="1301.0333333333333"/>
      <point x="429.6416666666667" y="1301.0333333333333" type="curve" smooth="yes"/>
      <point x="183.225" y="1301.0333333333333"/>
      <point x="55.10833333333333" y="1179.3166666666666"/>
      <point x="55.10833333333333" y="967.0" type="curve" smooth="yes"/>
      <point x="55.10833333333333" y="946.15" type="line" smooth="yes"/>
      <point x="55.10833333333333" y="750.8166666666667"/>
      <point x="153.96666666666664" y="657.975"/>
      <point x="356.55833333333334" y="566.5666666666666" type="curve" smooth="yes"/>
      <point x="498.6416666666667" y="503.09999999999997"/>
      <point x="553.3833333333333" y="463.69166666666666"/>
      <point x="553.3833333333333" y="365.475" type="curve" smooth="yes"/>
      <point x="553.3833333333333" y="342.95000000000005" type="line" smooth="yes"/>
      <point x="553.3833333333333" y="247.88333333333333"/>
      <point x="497.54999999999995" y="197.88333333333333"/>
      <point x="365.31666666666666" y="197.88333333333333" type="curve" smooth="yes"/>
      <point x="246.09166666666667" y="197.88333333333333"/>
      <point x="138.48333333333335" y="238.69166666666666"/>
      <point x="59.79166666666667" y="282.1666666666667" type="curve"/>
      <point x="78.93333333333332" y="49.43333333333334" type="line"/>
      <point x="148.18333333333334" y="13.125"/>
      <point x="260.01666666666665" y="-23.033333333333335"/>
    </contour>
  </outline>
</glyph>
<glyph name="T" format="2">
  <advance width="896.0333333333333"/>
  <unicode hex="0054"/>
  <anchor x="448.01666666666665" y="0.0" name="bottom"/>
  <anchor x="448.01666666666665" y="639.0" name="center"/>
  <anchor x="448.01666666666665" y="1278.0" name="top"/>
  <outline>
    <contour>
      <point x="324.07500000000005" y="0.0" type="line"/>
      <point x="572.4583333333334" y="0.0" type="line"/>
      <point x="572.4583333333334" y="1253.6000000000001" type="line"/>
      <point x="324.07500000000005" y="1253.6000000000001" type="line"/>
    </contour>
    <contour>
      <point x="43.125" y="1065.1666666666667" type="line"/>
      <point x="852.9083333333333" y="1065.1666666666667" type="line"/>
      <point x="852.9083333333333" y="1278.0" type="line"/>
      <point x="43.125" y="1278.0" type="line"/>
    </contour>
  </outline>
</glyph>
<glyph name="U" format="2">
  <advance width="1056.5666666666666"/>
  <unicode hex="0055"/>
  <anchor x="528.475" y="0.0" name="bottom"/>
  <anchor x="766.375" y="4.041666666666667" name="ogonek"/>
  <anchor x="528.475" y="1278.0" name="top"/>
  <anchor x="1048.625" y="1278.0" name="topright"/>
  <outline>
    <contour>
      <point x="528.475" y="-24.416666666666668" type="curve" smooth="yes"/>
      <point x="820.1" y="-24.416666666666668"/>
      <point x="956.5666666666667" y="130.36666666666667"/>
      <point x="956.5666666666667" y="424.3166666666667" type="curve" smooth="yes"/>
      <point x="956.5666666666667" y="1278.0" type="line"/>
      <point x="708.1833333333334" y="1278.0" type="line"/>
      <point x="708.1833333333334" y="411.32500000000005" type="line" smooth="yes"/>
      <point x="708.1833333333334" y="261.69166666666666"/>
      <point x="656.2333333333333" y="185.80833333333334"/>
      <point x="528.475" y="185.80833333333334" type="curve" smooth="yes"/>
      <point x="400.3333333333333" y="185.80833333333334"/>
      <point x="348.3833333333333" y="261.69166666666666"/>
      <point x="348.3833333333333" y="411.32500000000005" type="curve" smooth="yes"/>
      <point x="348.3833333333333" y="1278.0" type="line"/>
      <point x="100.0" y="1278.0" type="line"/>
      <point x="100.0" y="424.3166666666667" type="line" smooth="yes"/>
      <point x="100.0" y="130.36666666666667"/>
      <point x="236.9666666666667" y="-24.416666666666668"/>
    </contour>
  </outline>
</glyph>
<glyph name="V" format="2">
  <advance width="994.7833333333332"/>
  <unicode hex="0056"/>
  <anchor x="497.39166666666665" y="0.0" name="bottom"/>
  <anchor x="497.39166666666665" y="1278.0" name="top"/>
  <outline>
    <contour>
      <point x="304.225" y="0.0" type="line"/>
      <point x="691.0583333333334" y="0.0" type="line"/>
      <point x="964.4083333333334" y="1278.0" type="line"/>
      <point x="712.4083333333333" y="1278.0" type="line"/>
      <point x="508.0833333333333" y="181.325" type="line"/>
      <point x="486.39166666666665" y="181.325" type="line"/>
      <point x="282.56666666666666" y="1278.0" type="line"/>
      <point x="30.375" y="1278.0" type="line"/>
    </contour>
  </outline>
</glyph>
<glyph name="W" format="2">
  <advance width="1435.3166666666666"/>
  <unicode hex="0057"/>
  <anchor x="717.9083333333333" y="0.0" name="bottom"/>
  <anchor x="717.9083333333333" y="1278.0" name="top"/>
  <outline>
    <contour>
      <point x="223.4833333333333" y="0.0" type="line"/>
      <point x="585.7666666666667" y="0.0" type="line"/>
      <point x="673.8166666666666" y="726.075" type="line"/>
      <point x="711.6" y="1046.4583333333333" type="line"/>
      <point x="724.7916666666666" y="1046.4583333333333" type="line"/>
      <point x="762.1916666666666" y="726.075" type="line"/>
      <point x="851.3166666666666" y="0.0" type="line"/>
      <point x="1213.2916666666667" y="0.0" type="line"/>
      <point x="1392.5166666666667" y="1278.0" type="line"/>
      <point x="1144.8583333333333" y="1278.0" type="line"/>
      <point x="1045.3916666666667" y="424.0916666666667" type="line"/>
      <point x="1021.1666666666666" y="206.41666666666669" type="line"/>
      <point x="1007.2833333333334" y="206.41666666666669" type="line"/>
      <point x="981.0583333333334" y="424.2833333333333" type="line"/>
      <point x="872.9166666666667" y="1251.1833333333334" type="line"/>
      <point x="563.2833333333333" y="1251.1833333333334" type="line"/>
      <point x="454.2583333333334" y="424.2833333333333" type="line"/>
      <point x="428.0333333333333" y="206.41666666666669" type="line"/>
      <point x="414.4583333333333" y="206.41666666666669" type="line"/>
      <point x="390.6166666666667" y="424.2833333333333" type="line"/>
      <point x="292.10833333333335" y="1278.0" type="line"/>
      <point x="42.8" y="1278.0" type="line"/>
    </contour>
  </outline>
</glyph>
<glyph name="X" format="2">
  <advance width="972.95"/>
  <unicode hex="0058"/>
  <anchor x="486.975" y="0.0" name="bottom"/>
  <anchor x="486.975" y="1278.0" name="top"/>
  <outline>
    <contour>
      <point x="30.725" y="0.0" type="line"/>
      <point x="286.19166666666666" y="0.0" type="line"/>
      <point x="479.5166666666666" y="525.2583333333333" type="line"/>
      <point x="493.55" y="525.2583333333333" type="line"/>
      <point x="686.7583333333333" y="0.0" type="line"/>
      <point x="942.2249999999999" y="0.0" type="line"/>
      <point x="664.9166666666667" y="694.9" type="line"/>
      <point x="664.9166666666667" y="635.8249999999999" type="line"/>
      <point x="933.5750000000002" y="1278.0" type="line"/>
      <point x="680.9916666666667" y="1278.0" type="line"/>
      <point x="493.55" y="790.5166666666668" type="line"/>
      <point x="479.82499999999993" y="790.5166666666668" type="line"/>
      <point x="292.26666666666665" y="1278.0" type="line"/>
      <point x="39.68333333333333" y="1278.0" type="line"/>
      <point x="307.76666666666665" y="635.8249999999999" type="line"/>
      <point x="307.76666666666665" y="694.9" type="line"/>
    </contour>
  </outline>
</glyph>
<glyph name="Y" format="2">
  <advance width="947.3249999999999"/>
  <unicode hex="0059"/>
  <anchor x="473.81666666666666" y="0.0" name="bottom"/>
  <anchor x="473.81666666666666" y="1278.0" name="top"/>
  <anchor x="20.0" y="1278.0" name="topleft"/>
  <outline>
    <contour>
      <point x="362.67499999999995" y="352.30833333333334" type="line"/>
      <point x="586.3416666666667" y="352.30833333333334" type="line"/>
      <point x="931.4083333333334" y="1278.0" type="line"/>
      <point x="678.1416666666668" y="1278.0" type="line"/>
      <point x="544.525" y="865.7916666666667" type="line"/>
      <point x="481.27500000000003" y="647.1750000000001" type="line"/>
      <point x="467.55" y="647.1750000000001" type="line"/>
      <point x="404.6083333333333" y="865.7916666666667" type="line"/>
      <point x="268.9916666666667" y="1278.0" type="line"/>
      <point x="15.725" y="1278.0" type="line"/>
    </contour>
    <contour>
      <point x="354.3333333333333" y="0.0" type="line"/>
      <point x="594.6833333333333" y="0.0" type="line"/>
      <point x="594.6833333333333" y="585.6083333333333" type="line"/>
      <point x="354.3333333333333" y="585.6083333333333" type="line"/>
    </contour>
  </outline>
</glyph>
<glyph name="Z" format="2">
  <advance width="873.0583333333333"/>
  <unicode hex="005A"/>
  <anchor x="437.1833333333334" y="0.0" name="bottom"/>
  <anchor x="437.1833333333334" y="639.0" name="center"/>
  <anchor x="437.1833333333334" y="1278.0" name="top"/>
  <outline>
    <contour>
      <point x="813.4583333333334" y="214.33333333333334" type="line"/>
      <point x="328.975" y="214.33333333333334" type="line"/>
      <point x="805.5" y="1082.1916666666666" type="line"/>
      <point x="805.5" y="1278.0" type="line"/>
      <point x="65.48333333333333" y="1278.0" type="line"/>
      <point x="65.48333333333333" y="1064.8583333333333" type="line"/>
      <point x="534.5916666666667" y="1064.8583333333333" type="line"/>
      <point x="59.025" y="197.5" type="line"/>
      <point x="59.025" y="0.0" type="line"/>
      <point x="813.4583333333334" y="0.0" type="line"/>
    </contour>
  </outline>
</glyph>
<glyph name="bracketleft" format="2">
  <advance width="556.9333333333333"/>
  <unicode hex="005B"/>
  <outline>
    <contour>
      <point x="110.5" y="-243.34166666666667" type="line"/>
      <point x="514.7750000000001" y="-243.34166666666667" type="line"/>
      <point x="514.7750000000001" y="-60.55" type="line"/>
      <point x="336.2083333333333" y="-60.55" type="line"/>
      <point x="336.2083333333333" y="1168.7083333333333" type="line"/>
      <point x="514.7750000000001" y="1168.7083333333333" type="line"/>
      <point x="514.7750000000001" y="1351.5" type="line"/>
      <point x="110.5" y="1351.5" type="line"/>
    </contour>
  </outline>
</glyph>
<glyph name="backslash" format="2">
  <advance width="726.6999999999999"/>
  <unicode hex="005C"/>
  <outline>
    <contour>
      <point x="717.1166666666667" y="-242.72500000000002" type="line"/>
      <point x="225.39166666666668" y="1349.0333333333333" type="line"/>
      <point x="9.583333333333334" y="1349.0333333333333" type="line"/>
      <point x="500.69166666666666" y="-242.72500000000002" type="line"/>
    </contour>
  </outline>
</glyph>
<glyph name="bracketright" format="2">
  <advance width="556.9333333333333"/>
  <unicode hex="005D"/>
  <outline>
    <contour>
      <point x="446.43333333333334" y="-243.34166666666667" type="line"/>
      <point x="446.43333333333334" y="1351.5" type="line"/>
      <point x="42.15833333333333" y="1351.5" type="line"/>
      <point x="42.15833333333333" y="1168.7083333333333" type="line"/>
      <point x="220.725" y="1168.7083333333333" type="line"/>
      <point x="220.725" y="-60.55" type="line"/>
      <point x="42.15833333333333" y="-60.55" type="line"/>
      <point x="42.15833333333333" y="-243.34166666666667" type="line"/>
    </contour>
  </outline>
</glyph>
<glyph name="asciicircum" format="2">
  <advance width="753.0416666666666"/>
  <unicode hex="005E"/>
  <outline>
    <contour>
      <point x="219.1" y="1278.0" type="line"/>
      <point x="31.383333333333333" y="615.5833333333334" type="line"/>
      <point x="230.65833333333333" y="615.5833333333334" type="line"/>
      <point x="371.05833333333334" y="1142.8" type="line"/>
      <point x="382.05833333333334" y="1142.8" type="line"/>
      <point x="522.575" y="615.5833333333334" type="line"/>
      <point x="721.6583333333333" y="615.5833333333334" type="line"/>
      <point x="533.4416666666666" y="1278.0" type="line"/>
    </contour>
  </outline>
</glyph>
<glyph name="underscore" format="2">
  <advance width="746.1166666666666"/>
  <unicode hex="005F"/>
  <outline>
    <contour>
      <point x="34.525000000000006" y="-235.83333333333331" type="line"/>
      <point x="711.5916666666667" y="-235.83333333333331" type="line"/>
      <point x="711.5916666666667" y="-47.63333333333333" type="line"/>
      <point x="34.525000000000006" y="-47.63333333333333" type="line"/>
    </contour>
  </outline>
</glyph>
<glyph name="grave" format="2">
  <advance width="590.95"/>
  <unicode hex="0060"/>
  <anchor x="396.79166666666663" y="990.875" name="_top"/>
  <anchor x="394.325" y="1341.4833333333333" name="top"/>
  <outline>
    <contour>
      <point x="348.0083333333333" y="1363.2916666666665" type="line"/>
      <point x="100.025" y="1363.2916666666665" type="line"/>
      <point x="100.025" y="1361.6000000000001" type="line"/>
      <point x="301.6166666666667" y="1085.9833333333333" type="line"/>
      <point x="496.90833333333336" y="1085.9833333333333" type="line"/>
      <point x="496.90833333333336" y="1087.4833333333333" type="line"/>
    </contour>
  </outline>
</glyph>
<glyph name="a" format="2">
  <advance width="879.225"/>
  <unicode hex="0061"/>
  <anchor x="436.2" y="0.0" name="bottom"/>
  <anchor x="826.55" y="0.0" name="ogonek"/>
  <anchor x="436.2" y="990.875" name="top"/>
  <outline>
    <contour>
      <point x="558.2166666666667" y="0.0" type="line"/>
      <point x="794.6166666666667" y="0.0" type="line"/>
      <point x="794.6166666666667" y="637.3666666666667" type="line" smooth="yes"/>
      <point x="794.6166666666667" y="873.325"/>
      <point x="694.9083333333334" y="1011.3333333333334"/>
      <point x="424.90833333333336" y="1011.3333333333334" type="curve" smooth="yes"/>
      <point x="290.0" y="1011.3333333333334"/>
      <point x="181.75" y="972.25"/>
      <point x="108.19166666666666" y="931.1333333333333" type="curve"/>
      <point x="89.74166666666666" y="732.6083333333333" type="line"/>
      <point x="171.26666666666668" y="773.35"/>
      <point x="270.875" y="811.6666666666666"/>
      <point x="378.375" y="811.6666666666666" type="curve" smooth="yes"/>
      <point x="507.43333333333334" y="811.6666666666666"/>
      <point x="557.375" y="757.4833333333333"/>
      <point x="557.375" y="637.35" type="curve"/>
      <point x="558.7916666666666" y="586.075" type="line"/>
      <point x="558.7916666666666" y="225.05" type="line"/>
      <point x="566.8666666666667" y="214.075" type="line"/>
    </contour>
    <contour>
      <point x="303.2083333333333" y="-18.575" type="curve" smooth="yes"/>
      <point x="467.55" y="-18.575"/>
      <point x="530.2916666666666" y="69.34166666666667"/>
      <point x="555.6" y="181.54999999999998" type="curve"/>
      <point x="592.925" y="181.54999999999998" type="line"/>
      <point x="561.8333333333334" y="302.7583333333333" type="line"/>
      <point x="543.4833333333333" y="230.11666666666665"/>
      <point x="490.09999999999997" y="173.68333333333334"/>
      <point x="397.23333333333335" y="173.68333333333334" type="curve" smooth="yes"/>
      <point x="317.19166666666666" y="173.68333333333334"/>
      <point x="284.28333333333336" y="217.9"/>
      <point x="284.28333333333336" y="293.7583333333334" type="curve" smooth="yes"/>
      <point x="284.28333333333336" y="316.275" type="line" smooth="yes"/>
      <point x="284.28333333333336" y="387.85833333333335"/>
      <point x="318.9583333333333" y="423.07500000000005"/>
      <point x="408.55" y="440.4333333333333" type="curve" smooth="yes"/>
      <point x="601.1166666666667" y="477.2583333333333" type="line"/>
      <point x="581.6333333333333" y="640.8333333333334" type="line"/>
      <point x="361.75" y="599.8166666666666" type="line" smooth="yes"/>
      <point x="146.20000000000002" y="559.0416666666666"/>
      <point x="51.71666666666667" y="482.1916666666667"/>
      <point x="51.71666666666667" y="299.18333333333334" type="curve" smooth="yes"/>
      <point x="51.71666666666667" y="258.5166666666667" type="line" smooth="yes"/>
      <point x="51.71666666666667" y="80.10833333333333"/>
      <point x="137.1" y="-18.575"/>
    </contour>
  </outline>
</glyph>
<glyph name="b" format="2">
  <advance width="949.9166666666666"/>
  <unicode hex="0062"/>
  <anchor x="479.97499999999997" y="0.0" name="bottom"/>
  <anchor x="479.97499999999997" y="1324.5833333333333" name="top"/>
  <outline>
    <contour>
      <point x="586.9666666666667" y="-18.575" type="curve" smooth="yes"/>
      <point x="788.6083333333333" y="-18.575"/>
      <point x="879.8500000000001" y="120.71666666666665"/>
      <point x="879.8500000000001" y="386.675" type="curve" smooth="yes"/>
      <point x="879.8500000000001" y="604.9" type="line" smooth="yes"/>
      <point x="879.8500000000001" y="870.5833333333333"/>
      <point x="787.7666666666668" y="1009.45"/>
      <point x="592.1166666666667" y="1009.45" type="curve" smooth="yes"/>
      <point x="434.55" y="1009.45"/>
      <point x="366.9666666666667" y="921.85"/>
      <point x="342.0" y="806.9499999999999" type="curve"/>
      <point x="285.5333333333333" y="806.9499999999999" type="line"/>
      <point x="329.04166666666663" y="680.6083333333333" type="line"/>
      <point x="347.93333333333334" y="757.4"/>
      <point x="405.04166666666663" y="814.2916666666666"/>
      <point x="491.95000000000005" y="814.2916666666666" type="curve" smooth="yes"/>
      <point x="591.5833333333334" y="814.2916666666666"/>
      <point x="637.6166666666666" y="749.8333333333334"/>
      <point x="637.6166666666666" y="622.8166666666666" type="curve" smooth="yes"/>
      <point x="637.6166666666666" y="377.325" type="line" smooth="yes"/>
      <point x="637.6166666666666" y="248.03333333333333"/>
      <point x="590.3916666666668" y="182.5"/>
      <point x="491.87499999999994" y="182.5" type="curve" smooth="yes"/>
      <point x="392.7833333333333" y="182.5"/>
      <point x="334.96666666666664" y="247.60833333333332"/>
      <point x="332.1166666666667" y="364.8583333333333" type="curve"/>
      <point x="270.19166666666666" y="184.88333333333335" type="line"/>
      <point x="338.1583333333333" y="184.88333333333335" type="line"/>
      <point x="364.93333333333334" y="64.67500000000001"/>
      <point x="437.7916666666667" y="-18.575"/>
    </contour>
    <contour>
      <point x="95.65" y="0.0" type="line"/>
      <point x="335.73333333333335" y="0.0" type="line"/>
      <point x="327.0833333333333" y="215.25833333333335" type="line"/>
      <point x="332.1166666666667" y="251.85" type="line"/>
      <point x="332.1166666666667" y="736.9416666666667" type="line"/>
      <point x="331.30833333333334" y="764.175" type="line"/>
      <point x="335.80833333333334" y="1050.8833333333334" type="line"/>
      <point x="335.80833333333334" y="1324.5833333333333" type="line"/>
      <point x="95.65" y="1324.5833333333333" type="line"/>
    </contour>
  </outline>
</glyph>
<glyph name="c" format="2">
  <advance width="736.2333333333333"/>
  <unicode hex="0063"/>
  <anchor x="408.9666666666667" y="0.0" name="bottom"/>
  <anchor x="408.9666666666667" y="990.875" name="top"/>
  <outline>
    <contour>
      <point x="440.0333333333333" y="-19.458333333333336" type="curve" smooth="yes"/>
      <point x="538.6833333333334" y="-19.458333333333336"/>
      <point x="621.7833333333334" y="7.666666666666666"/>
      <point x="675.5" y="41.825" type="curve"/>
      <point x="693.2583333333333" y="246.71666666666664" type="line"/>
      <point x="640.8333333333334" y="213.74166666666667"/>
      <point x="580.0916666666667" y="189.07500000000002"/>
      <point x="501.4583333333333" y="189.07500000000002" type="curve" smooth="yes"/>
      <point x="369.31666666666666" y="189.07500000000002"/>
      <point x="309.95833333333337" y="264.83333333333337"/>
      <point x="309.95833333333337" y="398.9916666666667" type="curve" smooth="yes"/>
      <point x="309.95833333333337" y="597.025" type="line" smooth="yes"/>
      <point x="309.95833333333337" y="732.3833333333333"/>
      <point x="364.90000000000003" y="806.7583333333333"/>
      <point x="496.15833333333336" y="806.7583333333333" type="curve" smooth="yes"/>
      <point x="575.2916666666666" y="806.7583333333333"/>
      <point x="634.6833333333334" y="781.5166666666667"/>
      <point x="684.9916666666667" y="748.5416666666667" type="curve"/>
      <point x="667.0416666666666" y="950.5500000000001" type="line"/>
      <point x="614.7083333333333" y="983.4000000000001"/>
      <point x="535.95" y="1010.8333333333334"/>
      <point x="439.4166666666667" y="1010.8333333333334" type="curve" smooth="yes"/>
      <point x="186.58333333333334" y="1010.8333333333334"/>
      <point x="68.10833333333333" y="861.2083333333334"/>
      <point x="68.10833333333333" y="602.325" type="curve" smooth="yes"/>
      <point x="68.10833333333333" y="389.8916666666667" type="line" smooth="yes"/>
      <point x="68.10833333333333" y="129.78333333333333"/>
      <point x="185.7" y="-19.458333333333336"/>
    </contour>
  </outline>
</glyph>
<glyph name="d" format="2">
  <advance width="950.1083333333332"/>
  <unicode hex="0064"/>
  <anchor x="470.1333333333333" y="0.0" name="bottom"/>
  <anchor x="470.1333333333333" y="495.84166666666664" name="center"/>
  <anchor x="470.1333333333333" y="1324.5833333333333" name="top"/>
  <anchor x="961.7499999999999" y="1324.5833333333333" name="topright"/>
  <outline>
    <contour>
      <point x="358.10833333333335" y="-18.575" type="curve" smooth="yes"/>
      <point x="518.7083333333334" y="-18.575"/>
      <point x="586.6" y="70.94166666666666"/>
      <point x="611.9499999999999" y="184.88333333333335" type="curve"/>
      <point x="669.1083333333333" y="184.88333333333335" type="line"/>
      <point x="620.875" y="315.60833333333335" type="line"/>
      <point x="601.5999999999999" y="238.43333333333334"/>
      <point x="546.025" y="182.5"/>
      <point x="460.38333333333327" y="182.5" type="curve" smooth="yes"/>
      <point x="359.2916666666667" y="182.5"/>
      <point x="312.3" y="247.15"/>
      <point x="312.3" y="373.85833333333335" type="curve" smooth="yes"/>
      <point x="312.3" y="621.5416666666666" type="line" smooth="yes"/>
      <point x="312.3" y="749.3333333333333"/>
      <point x="360.2166666666667" y="814.2916666666666"/>
      <point x="459.34999999999997" y="814.2916666666666" type="curve" smooth="yes"/>
      <point x="558.675" y="814.2916666666666"/>
      <point x="615.2583333333333" y="747.7583333333333"/>
      <point x="617.8" y="631.9333333333334" type="curve"/>
      <point x="673.5833333333334" y="806.9499999999999" type="line"/>
      <point x="607.725" y="806.9499999999999" type="line"/>
      <point x="580.7583333333334" y="927.35"/>
      <point x="509.975" y="1009.45"/>
      <point x="362.95" y="1009.45" type="curve" smooth="yes"/>
      <point x="161.38333333333333" y="1009.45"/>
      <point x="70.06666666666668" y="869.1999999999999"/>
      <point x="70.06666666666668" y="600.75" type="curve" smooth="yes"/>
      <point x="70.06666666666668" y="381.9083333333333" type="line" smooth="yes"/>
      <point x="70.06666666666668" y="119.025"/>
      <point x="162.64999999999998" y="-18.575"/>
    </contour>
    <contour>
      <point x="614.1833333333333" y="0.0" type="line"/>
      <point x="854.4583333333334" y="0.0" type="line"/>
      <point x="854.4583333333334" y="1324.5833333333333" type="line"/>
      <point x="614.3" y="1324.5833333333333" type="line"/>
      <point x="614.3" y="1050.8833333333334" type="line"/>
      <point x="618.4166666666666" y="772.8833333333333" type="line"/>
      <point x="617.8" y="737.7083333333333" type="line"/>
      <point x="617.8" y="251.81666666666666" type="line"/>
      <point x="622.8333333333333" y="216.21666666666667" type="line"/>
    </contour>
  </outline>
</glyph>
<glyph name="e" format="2">
  <advance width="884.3000000000001"/>
  <unicode hex="0065"/>
  <anchor x="456.8666666666666" y="0.0" name="bottom"/>
  <anchor x="765.45" y="9.383333333333335" name="ogonek"/>
  <anchor x="453.4750000000001" y="990.875" name="top"/>
  <outline>
    <contour>
      <point x="496.30000000000007" y="-19.266666666666666" type="curve" smooth="yes"/>
      <point x="615.6666666666666" y="-19.266666666666666"/>
      <point x="718.1083333333333" y="7.625"/>
      <point x="791.5583333333333" y="48.16666666666667" type="curve"/>
      <point x="809.625" y="242.97500000000002" type="line"/>
      <point x="730.75" y="205.03333333333333"/>
      <point x="641.5666666666666" y="180.25"/>
      <point x="542.7583333333333" y="180.25" type="curve" smooth="yes"/>
      <point x="368.80833333333334" y="180.25"/>
      <point x="303.1666666666667" y="251.775"/>
      <point x="303.1666666666667" y="372.6" type="curve" smooth="yes"/>
      <point x="303.1666666666667" y="468.43333333333334" type="line"/>
      <point x="301.9" y="501.64166666666665" type="line"/>
      <point x="301.9" y="638.3416666666666" type="line" smooth="yes"/>
      <point x="301.9" y="760.3166666666666"/>
      <point x="345.89166666666665" y="823.6916666666666"/>
      <point x="449.09166666666664" y="823.6916666666666" type="curve" smooth="yes"/>
      <point x="551.7916666666666" y="823.6916666666666"/>
      <point x="597.325" y="761.5083333333333"/>
      <point x="597.325" y="639.7666666666667" type="curve" smooth="yes"/>
      <point x="597.325" y="576.1"/>
      <point x="596.6333333333333" y="498.875"/>
      <point x="595.0583333333334" y="402.6916666666667" type="curve"/>
      <point x="811.2833333333333" y="402.6916666666667" type="line"/>
      <point x="819.7416666666667" y="453.26666666666665"/>
      <point x="823.3166666666667" y="506.7916666666667"/>
      <point x="823.3166666666667" y="559.5916666666667" type="curve" smooth="yes"/>
      <point x="823.3166666666667" y="621.4333333333333" type="line" smooth="yes"/>
      <point x="823.3166666666667" y="869.5"/>
      <point x="699.65" y="1013.525"/>
      <point x="449.09166666666664" y="1013.525" type="curve" smooth="yes"/>
      <point x="196.42499999999998" y="1013.525"/>
      <point x="68.10833333333333" y="869.825"/>
      <point x="68.10833333333333" y="605.4666666666667" type="curve" smooth="yes"/>
      <point x="68.10833333333333" y="401.3" type="line" smooth="yes"/>
      <point x="68.10833333333333" y="125.16666666666667"/>
      <point x="208.04166666666669" y="-19.266666666666666"/>
    </contour>
    <contour>
      <point x="206.30833333333334" y="402.6916666666667" type="line"/>
      <point x="760.3583333333333" y="402.6916666666667" type="line"/>
      <point x="760.3583333333333" y="569.5333333333333" type="line"/>
      <point x="206.30833333333334" y="569.5333333333333" type="line"/>
    </contour>
  </outline>
</glyph>
<glyph name="f" format="2">
  <advance width="650.5583333333334"/>
  <unicode hex="0066"/>
  <anchor x="327.1666666666667" y="0.0" name="bottom"/>
  <anchor x="327.1666666666667" y="1323.5" name="top"/>
  <outline>
    <contour>
      <point x="392.3333333333333" y="1353.4583333333333" type="curve" smooth="yes"/>
      <point x="200.14166666666665" y="1353.4583333333333"/>
      <point x="104.69166666666668" y="1272.525"/>
      <point x="104.69166666666668" y="1138.95" type="curve" smooth="yes"/>
      <point x="104.69166666666668" y="1134.1416666666667" type="line" smooth="yes"/>
      <point x="104.69166666666668" y="1053.1583333333333"/>
      <point x="149.54999999999998" y="996.0416666666667"/>
      <point x="206.475" y="968.0333333333333" type="curve"/>
      <point x="206.475" y="942.4333333333333" type="line"/>
      <point x="363.78333333333336" y="944.2750000000001" type="line"/>
      <point x="349.55" y="972.6"/>
      <point x="338.27500000000003" y="1002.8583333333332"/>
      <point x="338.27500000000003" y="1040.533333333333" type="curve" smooth="yes"/>
      <point x="338.27500000000003" y="1043.7666666666667" type="line" smooth="yes"/>
      <point x="338.27500000000003" y="1115.075"/>
      <point x="377.5666666666667" y="1157.9083333333333"/>
      <point x="482.35833333333335" y="1157.9083333333333" type="curve" smooth="yes"/>
      <point x="541.375" y="1157.9083333333333"/>
      <point x="588.0333333333334" y="1146.5166666666667"/>
      <point x="631.7" y="1132.3916666666667" type="curve"/>
      <point x="612.0583333333333" y="1312.9166666666665" type="line"/>
      <point x="557.95" y="1334.9583333333333"/>
      <point x="482.8166666666667" y="1353.4583333333333"/>
    </contour>
    <contour>
      <point x="134.69166666666666" y="0.0" type="line"/>
      <point x="374.39166666666665" y="0.0" type="line"/>
      <point x="374.39166666666665" y="891.2333333333333" type="line"/>
      <point x="134.69166666666666" y="891.2333333333333" type="line"/>
    </contour>
    <contour>
      <point x="15.274999999999999" y="766.8333333333334" type="line"/>
      <point x="612.4" y="766.8333333333334" type="line"/>
      <point x="630.5416666666666" y="960.225" type="line"/>
      <point x="330.9166666666667" y="960.225" type="line"/>
      <point x="238.90833333333333" y="958.65" type="line"/>
      <point x="15.274999999999999" y="960.225" type="line"/>
    </contour>
  </outline>
</glyph>
<glyph name="g" format="2">
  <advance width="893.7083333333334"/>
  <unicode hex="0067"/>
  <anchor x="448.79999999999995" y="-348.54166666666663" name="bottom"/>
  <anchor x="447.87499999999994" y="992.1083333333333" name="top"/>
  <outline>
    <contour>
      <point x="448.5166666666667" y="281.0833333333333" type="curve"/>
      <point x="692.9166666666667" y="281.0833333333333"/>
      <point x="814.1750000000001" y="385.89166666666665"/>
      <point x="814.1750000000001" y="574.3083333333334" type="curve" smooth="yes"/>
      <point x="814.1750000000001" y="620.0" type="line" smooth="yes"/>
      <point x="814.1750000000001" y="746.4583333333334"/>
      <point x="758.1166666666666" y="816.7416666666667"/>
      <point x="639.6583333333334" y="840.7166666666667" type="curve"/>
      <point x="639.6583333333334" y="850.7166666666667" type="line"/>
      <point x="880.1083333333333" y="842.175" type="line"/>
      <point x="880.1083333333333" y="1023.4416666666666" type="line"/>
      <point x="451.26666666666665" y="1005.5666666666667" type="line" smooth="yes"/>
      <point x="174.11666666666665" y="993.9583333333334"/>
      <point x="65.46666666666667" y="868.5666666666666"/>
      <point x="65.46666666666667" y="668.9499999999999" type="curve" smooth="yes"/>
      <point x="65.46666666666667" y="601.9833333333333" type="line" smooth="yes"/>
      <point x="65.46666666666667" y="394.72499999999997"/>
      <point x="204.48333333333335" y="281.0833333333333"/>
    </contour>
    <contour>
      <point x="437.26666666666665" y="-188.92499999999998" type="line" smooth="yes"/>
      <point x="317.0" y="-188.92499999999998"/>
      <point x="256.56666666666666" y="-155.60833333333332"/>
      <point x="256.56666666666666" y="-89.10000000000001" type="curve" smooth="yes"/>
      <point x="256.56666666666666" y="-87.29166666666667" type="line" smooth="yes"/>
      <point x="256.56666666666666" y="-29.208333333333336"/>
      <point x="300.10833333333335" y="3.233333333333332"/>
      <point x="369.9" y="18.283333333333335" type="curve"/>
      <point x="318.65" y="16.78333333333333" type="line"/>
      <point x="532.8833333333333" y="-11.058333333333334" type="line" smooth="yes"/>
      <point x="614.1" y="-22.375"/>
      <point x="651.375" y="-44.4"/>
      <point x="651.375" y="-96.74166666666666" type="curve" smooth="yes"/>
      <point x="651.375" y="-98.85833333333333" type="line" smooth="yes"/>
      <point x="651.375" y="-160.14166666666668"/>
      <point x="592.3249999999999" y="-188.92499999999998"/>
      <point x="471.05833333333334" y="-188.92499999999998" type="curve" smooth="yes"/>
    </contour>
    <contour>
      <point x="424.0833333333333" y="-374.3" type="curve" smooth="yes"/>
      <point x="464.1416666666666" y="-374.3" type="line" smooth="yes"/>
      <point x="718.9333333333333" y="-374.3"/>
      <point x="868.9083333333334" y="-286.0916666666667"/>
      <point x="868.9083333333334" y="-106.00833333333333" type="curve" smooth="yes"/>
      <point x="868.9083333333334" y="-98.55" type="line" smooth="yes"/>
      <point x="868.9083333333334" y="58.60833333333333"/>
      <point x="784.05" y="133.22500000000002"/>
      <point x="589.3833333333333" y="164.40833333333333" type="curve" smooth="yes"/>
      <point x="400.9" y="193.59166666666667" type="line" smooth="yes"/>
      <point x="332.46666666666664" y="203.86666666666667"/>
      <point x="304.14166666666665" y="216.03333333333333"/>
      <point x="304.14166666666665" y="246.975" type="curve" smooth="yes"/>
      <point x="304.14166666666665" y="247.78333333333333" type="line" smooth="yes"/>
      <point x="304.14166666666665" y="274.15"/>
      <point x="325.4666666666667" y="288.7"/>
      <point x="374.475" y="289.0083333333334" type="curve"/>
      <point x="422.45" y="288.0833333333333" type="line"/>
      <point x="241.25" y="337.875" type="line"/>
      <point x="241.25" y="309.05" type="line"/>
      <point x="140.59166666666667" y="301.73333333333335"/>
      <point x="84.14999999999999" y="259.31666666666666"/>
      <point x="84.14999999999999" y="179.84166666666667" type="curve" smooth="yes"/>
      <point x="84.14999999999999" y="178.15" type="line" smooth="yes"/>
      <point x="84.14999999999999" y="102.31666666666666"/>
      <point x="135.45000000000002" y="58.50833333333334"/>
      <point x="229.23333333333332" y="39.625" type="curve"/>
      <point x="229.23333333333332" y="30.125000000000004" type="line"/>
      <point x="119.68333333333334" y="15.341666666666665"/>
      <point x="41.608333333333334" y="-38.96666666666667"/>
      <point x="41.608333333333334" y="-151.34166666666667" type="curve" smooth="yes"/>
      <point x="41.608333333333334" y="-155.34166666666667" type="line" smooth="yes"/>
      <point x="41.608333333333334" y="-309.3"/>
      <point x="182.825" y="-374.3"/>
    </contour>
    <contour>
      <point x="443.7583333333333" y="452.05" type="curve" smooth="yes"/>
      <point x="341.05" y="452.05"/>
      <point x="294.8666666666667" y="505.9666666666667"/>
      <point x="294.8666666666667" y="606.8666666666667" type="curve" smooth="yes"/>
      <point x="294.8666666666667" y="675.4916666666667" type="line" smooth="yes"/>
      <point x="294.8666666666667" y="773.6916666666667"/>
      <point x="337.96666666666664" y="829.3833333333333"/>
      <point x="442.75833333333327" y="829.3833333333333" type="curve" smooth="yes"/>
      <point x="445.3" y="829.3833333333333" type="line" smooth="yes"/>
      <point x="544.6583333333334" y="829.3833333333333"/>
      <point x="590.0333333333333" y="774.35"/>
      <point x="590.0333333333333" y="676.4166666666666" type="curve" smooth="yes"/>
      <point x="590.0333333333333" y="606.8666666666667" type="line" smooth="yes"/>
      <point x="590.0333333333333" y="505.9666666666667"/>
      <point x="543.7333333333333" y="452.05"/>
    </contour>
  </outline>
</glyph>
<glyph name="h" format="2">
  <advance width="952.5250000000001"/>
  <unicode hex="0068"/>
  <anchor x="477.16666666666674" y="0.0" name="bottom"/>
  <anchor x="477.16666666666674" y="662.0" name="center"/>
  <anchor x="216.13333333333333" y="1324.5833333333333" name="top"/>
  <outline>
    <contour>
      <point x="622.9916666666667" y="0.0" type="line"/>
      <point x="864.5333333333333" y="0.0" type="line"/>
      <point x="864.5333333333333" y="675.6166666666667" type="line" smooth="yes"/>
      <point x="864.5333333333333" y="895.525"/>
      <point x="785.075" y="1009.45"/>
      <point x="599.8833333333334" y="1009.45" type="curve" smooth="yes"/>
      <point x="439.6333333333333" y="1009.45"/>
      <point x="367.84999999999997" y="920.8916666666667"/>
      <point x="342.19166666666666" y="806.9499999999999" type="curve"/>
      <point x="279.19166666666666" y="806.9499999999999" type="line"/>
      <point x="334.075" y="677.0333333333334" type="line"/>
      <point x="352.65833333333336" y="751.8666666666667"/>
      <point x="404.075" y="808.5666666666667"/>
      <point x="490.83333333333337" y="808.5666666666667" type="curve" smooth="yes"/>
      <point x="590.0833333333334" y="808.5666666666667"/>
      <point x="622.9916666666667" y="745.875"/>
      <point x="622.9916666666667" y="639.05" type="curve" smooth="yes"/>
    </contour>
    <contour>
      <point x="95.65" y="0.0" type="line"/>
      <point x="337.19166666666666" y="0.0" type="line"/>
      <point x="337.19166666666666" y="728.2249999999999" type="line"/>
      <point x="331.30833333333334" y="757.4666666666666" type="line"/>
      <point x="335.80833333333334" y="1050.6916666666666" type="line"/>
      <point x="335.80833333333334" y="1324.5833333333333" type="line"/>
      <point x="95.65" y="1324.5833333333333" type="line"/>
    </contour>
  </outline>
</glyph>
<glyph name="i" format="2">
  <advance width="436.15833333333336"/>
  <unicode hex="0069"/>
  <anchor x="218.175" y="0.0" name="bottom"/>
  <anchor x="371.93333333333334" y="0.0" name="ogonek"/>
  <outline>
    <contour>
      <point x="97.5" y="0.0" type="line"/>
      <point x="338.84999999999997" y="0.0" type="line"/>
      <point x="338.84999999999997" y="990.875" type="line"/>
      <point x="97.5" y="990.875" type="line"/>
    </contour>
    <contour>
      <point x="218.175" y="1096.5" type="curve" smooth="yes"/>
      <point x="307.3833333333333" y="1096.5"/>
      <point x="348.7416666666667" y="1143.8583333333333"/>
      <point x="348.7416666666667" y="1222.7083333333333" type="curve" smooth="yes"/>
      <point x="348.7416666666667" y="1231.2833333333335" type="line" smooth="yes"/>
      <point x="348.7416666666667" y="1309.1333333333332"/>
      <point x="307.3833333333333" y="1357.1833333333332"/>
      <point x="218.175" y="1357.1833333333332" type="curve" smooth="yes"/>
      <point x="128.275" y="1357.1833333333332"/>
      <point x="87.60833333333333" y="1309.1333333333332"/>
      <point x="87.60833333333333" y="1231.2833333333335" type="curve" smooth="yes"/>
      <point x="87.60833333333333" y="1222.7083333333333" type="line" smooth="yes"/>
      <point x="87.60833333333333" y="1144.3583333333333"/>
      <point x="128.275" y="1096.5"/>
    </contour>
  </outline>
</glyph>
<glyph name="j" format="2">
  <advance width="448.85833333333335"/>
  <unicode hex="006A"/>
  <outline>
    <contour>
      <point x="110.00833333333333" y="179.025" type="line"/>
      <point x="351.55" y="179.025" type="line"/>
      <point x="351.55" y="990.875" type="line"/>
      <point x="110.00833333333333" y="990.875" type="line"/>
    </contour>
    <contour>
      <point x="230.87499999999997" y="1094.65" type="curve" smooth="yes"/>
      <point x="320.0833333333333" y="1094.65"/>
      <point x="361.44166666666666" y="1142.0083333333334"/>
      <point x="361.44166666666666" y="1220.8583333333331" type="curve" smooth="yes"/>
      <point x="361.44166666666666" y="1229.4333333333334" type="line" smooth="yes"/>
      <point x="361.44166666666666" y="1307.2833333333333"/>
      <point x="320.0833333333333" y="1355.3333333333333"/>
      <point x="230.87499999999997" y="1355.3333333333333" type="curve" smooth="yes"/>
      <point x="140.97500000000002" y="1355.3333333333333"/>
      <point x="100.30833333333334" y="1307.2833333333333"/>
      <point x="100.30833333333334" y="1229.4333333333334" type="curve" smooth="yes"/>
      <point x="100.30833333333334" y="1220.8583333333331" type="line" smooth="yes"/>
      <point x="100.30833333333334" y="1142.5083333333334"/>
      <point x="140.97500000000002" y="1094.65"/>
    </contour>
    <component base="jbottom"/>
  </outline>
</glyph>
<glyph name="k" format="2">
  <advance width="903.375"/>
  <unicode hex="006B"/>
  <anchor x="458.39166666666665" y="0.0" name="bottom"/>
  <anchor x="453.76666666666665" y="1324.5833333333333" name="top"/>
  <outline>
    <contour>
      <point x="625.3583333333333" y="0.0" type="line"/>
      <point x="892.4250000000001" y="0.0" type="line"/>
      <point x="575.2666666666668" y="553.7583333333333" type="line"/>
      <point x="575.2666666666668" y="501.51666666666665" type="line"/>
      <point x="879.7666666666668" y="990.875" type="line"/>
      <point x="617.6166666666667" y="990.875" type="line"/>
      <point x="380.18333333333334" y="601.1083333333333" type="line"/>
      <point x="313.2583333333333" y="601.1083333333333" type="line"/>
      <point x="313.2583333333333" y="441.1" type="line"/>
      <point x="378.33333333333337" y="441.1" type="line"/>
    </contour>
    <contour>
      <point x="95.65" y="0.0" type="line"/>
      <point x="336.5" y="0.0" type="line"/>
      <point x="336.5" y="1324.5833333333333" type="line"/>
      <point x="95.65" y="1324.5833333333333" type="line"/>
    </contour>
  </outline>
</glyph>
<glyph name="l" format="2">
  <advance width="437.15833333333336"/>
  <unicode hex="006C"/>
  <anchor x="219.48333333333335" y="0.0" name="bottom"/>
  <anchor x="219.48333333333335" y="662.0" name="center"/>
  <anchor x="219.48333333333335" y="1324.5833333333333" name="top"/>
  <anchor x="447.2583333333333" y="1324.5833333333333" name="topright"/>
  <outline>
    <contour>
      <point x="97.80833333333334" y="0.0" type="line"/>
      <point x="339.34999999999997" y="0.0" type="line"/>
      <point x="339.34999999999997" y="1324.5833333333333" type="line"/>
      <point x="97.80833333333334" y="1324.5833333333333" type="line"/>
    </contour>
  </outline>
</glyph>
<glyph name="m" format="2">
  <advance width="1428.5333333333333"/>
  <unicode hex="006D"/>
  <anchor x="713.575" y="0.0" name="bottom"/>
  <anchor x="713.575" y="990.875" name="top"/>
  <outline>
    <contour>
      <point x="1100.15" y="0.0" type="line"/>
      <point x="1340.5416666666665" y="0.0" type="line"/>
      <point x="1340.5416666666665" y="680.6166666666667" type="line" smooth="yes"/>
      <point x="1340.5416666666665" y="897.3333333333333"/>
      <point x="1264.8166666666666" y="1009.45"/>
      <point x="1086.5916666666667" y="1009.45" type="curve" smooth="yes"/>
      <point x="923.025" y="1009.45"/>
      <point x="856.8666666666667" y="914.85"/>
      <point x="830.7833333333333" y="805.8" type="curve"/>
      <point x="807.7916666666667" y="805.8" type="line"/>
      <point x="833.5583333333333" y="676.3416666666667" type="line"/>
      <point x="850.0666666666667" y="752.25"/>
      <point x="898.7499999999999" y="808.5666666666667"/>
      <point x="979.8499999999999" y="808.5666666666667" type="curve" smooth="yes"/>
      <point x="1069.7833333333333" y="808.5666666666667"/>
      <point x="1100.15" y="747.875"/>
      <point x="1100.15" y="646.2833333333333" type="curve" smooth="yes"/>
    </contour>
    <contour>
      <point x="95.65" y="0.0" type="line"/>
      <point x="336.0416666666667" y="0.0" type="line"/>
      <point x="336.0416666666667" y="767.3166666666666" type="line"/>
      <point x="325.7416666666667" y="774.5916666666667" type="line"/>
      <point x="334.58333333333337" y="990.875" type="line"/>
      <point x="95.65" y="990.875" type="line"/>
    </contour>
    <contour>
      <point x="598.2083333333333" y="0.0" type="line"/>
      <point x="837.9833333333333" y="0.0" type="line"/>
      <point x="837.9833333333333" y="673.025" type="line" smooth="yes"/>
      <point x="837.9833333333333" y="703.7916666666667"/>
      <point x="833.2166666666667" y="739.8166666666666"/>
      <point x="828.3666666666667" y="765.0833333333333" type="curve"/>
      <point x="809.2083333333334" y="925.0333333333333"/>
      <point x="736.75" y="1009.45"/>
      <point x="584.65" y="1009.45" type="curve" smooth="yes"/>
      <point x="430.70833333333337" y="1009.45"/>
      <point x="363.125" y="921.275"/>
      <point x="337.0083333333333" y="806.9499999999999" type="curve"/>
      <point x="289.64166666666665" y="806.9499999999999" type="line"/>
      <point x="331.80833333333334" y="676.4166666666667" type="line"/>
      <point x="348.5083333333334" y="752.25"/>
      <point x="397.19166666666666" y="808.5666666666667"/>
      <point x="478.2916666666667" y="808.5666666666667" type="curve" smooth="yes"/>
      <point x="567.8416666666667" y="808.5666666666667"/>
      <point x="598.2083333333333" y="747.875"/>
      <point x="598.2083333333333" y="646.2833333333333" type="curve" smooth="yes"/>
    </contour>
  </outline>
</glyph>
<glyph name="n" format="2">
  <advance width="952.5250000000001"/>
  <unicode hex="006E"/>
  <anchor x="477.16666666666674" y="0.0" name="bottom"/>
  <anchor x="477.16666666666674" y="990.875" name="top"/>
  <outline>
    <contour>
      <point x="622.9916666666667" y="0.0" type="line"/>
      <point x="864.5333333333333" y="0.0" type="line"/>
      <point x="864.5333333333333" y="675.6166666666667" type="line" smooth="yes"/>
      <point x="864.5333333333333" y="895.525"/>
      <point x="785.075" y="1009.45"/>
      <point x="599.5" y="1009.45" type="curve" smooth="yes"/>
      <point x="435.825" y="1009.45"/>
      <point x="365.0083333333333" y="920.5083333333333"/>
      <point x="338.1583333333333" y="806.9499999999999" type="curve"/>
      <point x="289.2583333333333" y="806.9499999999999" type="line"/>
      <point x="332.9583333333333" y="676.725" type="line"/>
      <point x="351.5416666666667" y="751.8666666666667"/>
      <point x="403.76666666666665" y="808.5666666666667"/>
      <point x="491.1416666666667" y="808.5666666666667" type="curve" smooth="yes"/>
      <point x="589.8916666666667" y="808.5666666666667"/>
      <point x="622.9916666666667" y="745.875"/>
      <point x="622.9916666666667" y="639.05" type="curve" smooth="yes"/>
    </contour>
    <contour>
      <point x="95.65" y="0.0" type="line"/>
      <point x="337.19166666666666" y="0.0" type="line"/>
      <point x="337.19166666666666" y="765.2083333333333" type="line"/>
      <point x="326.89166666666665" y="777.9666666666667" type="line"/>
      <point x="335.73333333333335" y="990.875" type="line"/>
      <point x="95.65" y="990.875" type="line"/>
    </contour>
  </outline>
</glyph>
<glyph name="o" format="2">
  <advance width="922.3083333333334"/>
  <unicode hex="006F"/>
  <anchor x="461.75" y="0.0" name="bottom"/>
  <anchor x="463.2916666666667" y="468.09166666666664" name="center"/>
  <anchor x="695.2583333333333" y="6.916666666666667" name="ogonek"/>
  <anchor x="461.75" y="990.875" name="top"/>
  <anchor x="879.1833333333334" y="990.875" name="topright"/>
  <outline>
    <contour>
      <point x="461.55833333333334" y="-22.533333333333335" type="curve" smooth="yes"/>
      <point x="720.8416666666667" y="-22.533333333333335"/>
      <point x="854.2" y="121.94166666666668"/>
      <point x="854.2" y="385.1333333333334" type="curve"/>
      <point x="854.2" y="605.25" type="line"/>
      <point x="854.2" y="869.2833333333334"/>
      <point x="720.4583333333334" y="1013.7166666666667"/>
      <point x="461.55833333333334" y="1013.7166666666667" type="curve" smooth="yes"/>
      <point x="202.35" y="1013.7166666666667"/>
      <point x="68.10833333333333" y="869.2833333333334"/>
      <point x="68.10833333333333" y="605.25" type="curve"/>
      <point x="68.10833333333333" y="385.1333333333334" type="line"/>
      <point x="68.10833333333333" y="121.94166666666668"/>
      <point x="201.96666666666667" y="-22.533333333333335"/>
    </contour>
    <contour>
      <point x="461.55833333333334" y="172.475" type="curve" smooth="yes"/>
      <point x="358.3416666666667" y="172.475"/>
      <point x="309.19166666666666" y="239.43333333333334"/>
      <point x="309.19166666666666" y="367.84166666666664" type="curve" smooth="yes"/>
      <point x="309.19166666666666" y="622.7333333333332" type="line" smooth="yes"/>
      <point x="309.19166666666666" y="752.0583333333333"/>
      <point x="358.3416666666667" y="818.7083333333334"/>
      <point x="461.55833333333334" y="818.7083333333334" type="curve" smooth="yes"/>
      <point x="564.4666666666667" y="818.7083333333334"/>
      <point x="613.425" y="752.0583333333333"/>
      <point x="613.425" y="622.7333333333332" type="curve" smooth="yes"/>
      <point x="613.425" y="367.84166666666664" type="line" smooth="yes"/>
      <point x="613.425" y="239.43333333333334"/>
      <point x="564.4666666666667" y="172.475"/>
    </contour>
  </outline>
</glyph>
<glyph name="p" format="2">
  <advance width="949.9166666666666"/>
  <unicode hex="0070"/>
  <anchor x="480.2833333333333" y="0.0" name="bottom"/>
  <anchor x="480.2833333333333" y="990.875" name="top"/>
  <outline>
    <contour>
      <point x="587.1583333333334" y="-18.575" type="curve" smooth="yes"/>
      <point x="788.3416666666667" y="-18.575"/>
      <point x="879.8500000000001" y="120.71666666666665"/>
      <point x="879.8500000000001" y="387.6333333333333" type="curve" smooth="yes"/>
      <point x="879.8500000000001" y="607.0500000000001" type="line" smooth="yes"/>
      <point x="879.8500000000001" y="871.4666666666666"/>
      <point x="787.4583333333334" y="1009.45"/>
      <point x="591.8083333333334" y="1009.45" type="curve" smooth="yes"/>
      <point x="431.40000000000003" y="1009.45"/>
      <point x="363.31666666666666" y="921.0833333333333"/>
      <point x="338.1583333333333" y="806.9499999999999" type="curve"/>
      <point x="277.05" y="806.9499999999999" type="line"/>
      <point x="329.04166666666663" y="680.6083333333333" type="line"/>
      <point x="347.93333333333334" y="757.4"/>
      <point x="405.04166666666663" y="814.2916666666666"/>
      <point x="491.6416666666667" y="814.2916666666666" type="curve" smooth="yes"/>
      <point x="591.5833333333334" y="814.2916666666666"/>
      <point x="637.6166666666666" y="749.8333333333334"/>
      <point x="637.6166666666666" y="623.125" type="curve" smooth="yes"/>
      <point x="637.6166666666666" y="376.4" type="line" smooth="yes"/>
      <point x="637.6166666666666" y="248.03333333333333"/>
      <point x="590.0833333333334" y="182.5"/>
      <point x="490.94999999999993" y="182.5" type="curve" smooth="yes"/>
      <point x="391.2416666666667" y="182.5"/>
      <point x="334.6583333333333" y="247.60833333333332"/>
      <point x="332.1166666666667" y="364.8583333333333" type="curve"/>
      <point x="277.1333333333333" y="184.88333333333335" type="line"/>
      <point x="341.0416666666667" y="184.88333333333335" type="line"/>
      <point x="367.2416666666667" y="64.67500000000001"/>
      <point x="439.175" y="-18.575"/>
    </contour>
    <contour>
      <point x="95.65" y="-347.0" type="line"/>
      <point x="335.80833333333334" y="-347.0" type="line"/>
      <point x="335.80833333333334" y="-39.733333333333334" type="line"/>
      <point x="330.35" y="225.46666666666667" type="line"/>
      <point x="332.1166666666667" y="263.4916666666667" type="line"/>
      <point x="332.1166666666667" y="726.1416666666667" type="line"/>
      <point x="325.7" y="750.55" type="line"/>
      <point x="335.73333333333335" y="990.875" type="line"/>
      <point x="95.65" y="990.875" type="line"/>
    </contour>
  </outline>
</glyph>
<glyph name="q" format="2">
  <advance width="950.1083333333332"/>
  <unicode hex="0071"/>
  <anchor x="470.1333333333333" y="0.0" name="bottom"/>
  <anchor x="470.1333333333333" y="990.875" name="top"/>
  <outline>
    <contour>
      <point x="358.10833333333335" y="-18.575" type="curve" smooth="yes"/>
      <point x="516.6333333333333" y="-18.575"/>
      <point x="584.1" y="70.94166666666666"/>
      <point x="608.875" y="184.88333333333335" type="curve"/>
      <point x="673.5833333333333" y="184.88333333333335" type="line"/>
      <point x="620.875" y="315.60833333333335" type="line"/>
      <point x="601.5999999999999" y="238.43333333333334"/>
      <point x="546.025" y="182.5"/>
      <point x="460.38333333333327" y="182.5" type="curve" smooth="yes"/>
      <point x="359.2916666666667" y="182.5"/>
      <point x="312.3" y="247.15"/>
      <point x="312.3" y="374.1666666666667" type="curve" smooth="yes"/>
      <point x="312.3" y="620.6166666666667" type="line" smooth="yes"/>
      <point x="312.3" y="749.3333333333333"/>
      <point x="359.90833333333336" y="814.2916666666666"/>
      <point x="458.42499999999995" y="814.2916666666666" type="curve" smooth="yes"/>
      <point x="557.1333333333333" y="814.2916666666666"/>
      <point x="613.7166666666666" y="749.9166666666667"/>
      <point x="617.8" y="631.9333333333334" type="curve"/>
      <point x="678.1416666666667" y="806.9499999999999" type="line"/>
      <point x="611.9499999999999" y="806.9499999999999" type="line"/>
      <point x="585.3666666666667" y="926.5833333333334"/>
      <point x="513.4333333333334" y="1009.45"/>
      <point x="363.2583333333333" y="1009.45" type="curve" smooth="yes"/>
      <point x="162.0" y="1009.45"/>
      <point x="70.06666666666668" y="869.1999999999999"/>
      <point x="70.06666666666668" y="603.2416666666667" type="curve" smooth="yes"/>
      <point x="70.06666666666668" y="381.9083333333333" type="line" smooth="yes"/>
      <point x="70.06666666666668" y="119.025"/>
      <point x="162.64999999999998" y="-18.575"/>
    </contour>
    <contour>
      <point x="614.3" y="-347.0" type="line"/>
      <point x="854.4583333333334" y="-347.0" type="line"/>
      <point x="854.4583333333334" y="990.875" type="line"/>
      <point x="614.1833333333333" y="990.875" type="line"/>
      <point x="623.4499999999999" y="764.7333333333333" type="line"/>
      <point x="617.8" y="731.3166666666667" type="line"/>
      <point x="617.8" y="269.1333333333333" type="line"/>
      <point x="619.5666666666666" y="222.48333333333335" type="line"/>
      <point x="614.3" y="-39.733333333333334" type="line"/>
    </contour>
  </outline>
</glyph>
<glyph name="r" format="2">
  <advance width="653.9416666666667"/>
  <unicode hex="0072"/>
  <anchor x="216.63333333333335" y="0.0" name="bottom"/>
  <anchor x="352.4666666666667" y="990.875" name="top"/>
  <outline>
    <contour>
      <point x="332.76666666666665" y="586.5666666666666" type="line"/>
      <point x="364.4916666666666" y="690.6583333333333"/>
      <point x="446.75" y="747.55"/>
      <point x="559.8083333333333" y="747.55" type="curve" smooth="yes"/>
      <point x="589.4333333333333" y="747.55"/>
      <point x="617.3166666666666" y="744.0083333333333"/>
      <point x="637.2833333333333" y="739.1583333333333" type="curve"/>
      <point x="627.0166666666667" y="995.7916666666666" type="line"/>
      <point x="609.6666666666666" y="999.3333333333334"/>
      <point x="593.35" y="1002.375"/>
      <point x="572.5666666666667" y="1002.375" type="curve" smooth="yes"/>
      <point x="425.65833333333336" y="1002.375"/>
      <point x="351.15833333333336" y="913.35"/>
      <point x="324.60833333333335" y="767.9499999999999" type="curve"/>
      <point x="264.775" y="767.9499999999999" type="line"/>
    </contour>
    <contour>
      <point x="95.65" y="0.0" type="line"/>
      <point x="337.19166666666666" y="0.0" type="line"/>
      <point x="337.19166666666666" y="691.95" type="line"/>
      <point x="311.15000000000003" y="706.4416666666667" type="line"/>
      <point x="322.18333333333334" y="990.875" type="line"/>
      <point x="95.65" y="990.875" type="line"/>
    </contour>
  </outline>
</glyph>
<glyph name="s" format="2">
  <advance width="758.0166666666667"/>
  <unicode hex="0073"/>
  <anchor x="375.18333333333334" y="0.0" name="bottom"/>
  <anchor x="373.1083333333333" y="990.875" name="top"/>
  <outline>
    <contour>
      <point x="361.69166666666666" y="-19.075" type="curve" smooth="yes"/>
      <point x="599.7416666666667" y="-19.075"/>
      <point x="714.875" y="82.45"/>
      <point x="714.875" y="273.56666666666666" type="curve" smooth="yes"/>
      <point x="714.875" y="291.2" type="line" smooth="yes"/>
      <point x="714.875" y="451.87500000000006"/>
      <point x="640.2333333333332" y="514.725"/>
      <point x="455.15833333333336" y="579.15" type="curve" smooth="yes"/>
      <point x="324.2416666666667" y="625.8166666666667"/>
      <point x="280.425" y="655.6833333333333"/>
      <point x="280.425" y="717.6916666666667" type="curve" smooth="yes"/>
      <point x="280.425" y="725.625" type="line" smooth="yes"/>
      <point x="280.425" y="781.0583333333334"/>
      <point x="316.14166666666665" y="813.475"/>
      <point x="417.4833333333333" y="813.475" type="curve" smooth="yes"/>
      <point x="521.4499999999999" y="813.475"/>
      <point x="609.6666666666666" y="782.0083333333333"/>
      <point x="682.1999999999999" y="743.4583333333333" type="curve"/>
      <point x="663.9416666666667" y="942.0583333333334" type="line"/>
      <point x="601.5666666666667" y="978.7166666666667"/>
      <point x="505.93333333333334" y="1010.45"/>
      <point x="383.40000000000003" y="1010.45" type="curve" smooth="yes"/>
      <point x="161.60833333333332" y="1010.45"/>
      <point x="45.75833333333333" y="915.5749999999999"/>
      <point x="45.75833333333333" y="737.0333333333333" type="curve" smooth="yes"/>
      <point x="45.75833333333333" y="723.8333333333333" type="line" smooth="yes"/>
      <point x="45.75833333333333" y="579.4499999999999"/>
      <point x="110.48333333333333" y="500.2666666666667"/>
      <point x="294.3333333333333" y="434.8833333333333" type="curve" smooth="yes"/>
      <point x="441.52500000000003" y="378.7583333333333"/>
      <point x="478.175" y="353.19166666666666"/>
      <point x="478.175" y="290.69166666666666" type="curve" smooth="yes"/>
      <point x="478.175" y="279.3666666666667" type="line" smooth="yes"/>
      <point x="478.175" y="216.85"/>
      <point x="436.64166666666665" y="183.35833333333332"/>
      <point x="335.68333333333334" y="183.35833333333332" type="curve" smooth="yes"/>
      <point x="222.76666666666665" y="183.35833333333332"/>
      <point x="130.125" y="218.66666666666666"/>
      <point x="49.13333333333333" y="259.90833333333336" type="curve"/>
      <point x="67.39166666666667" y="45.81666666666667" type="line"/>
      <point x="135.375" y="12.2"/>
      <point x="234.85833333333335" y="-19.075"/>
    </contour>
  </outline>
</glyph>
<glyph name="t" format="2">
  <advance width="670.6666666666666"/>
  <unicode hex="0074"/>
  <anchor x="377.375" y="0.0" name="bottom"/>
  <anchor x="336.81666666666666" y="495.84166666666664" name="center"/>
  <anchor x="257.2833333333333" y="1218.15" name="top"/>
  <anchor x="490.825" y="1424.4416666666666" name="topright"/>
  <outline>
    <contour>
      <point x="419.8583333333333" y="-17.458333333333332" type="curve" smooth="yes"/>
      <point x="502.14166666666665" y="-17.458333333333332"/>
      <point x="573.6333333333333" y="-1.3083333333333331"/>
      <point x="626.7" y="24.53333333333333" type="curve"/>
      <point x="645.0333333333333" y="227.65833333333333" type="line"/>
      <point x="602.7166666666667" y="209.03333333333333"/>
      <point x="553.0916666666667" y="196.3"/>
      <point x="499.80833333333334" y="196.3" type="curve" smooth="yes"/>
      <point x="403.75" y="196.3"/>
      <point x="369.2333333333333" y="234.08333333333334"/>
      <point x="369.2333333333333" y="323.8916666666667" type="curve" smooth="yes"/>
      <point x="369.2333333333333" y="925.8583333333333" type="line"/>
      <point x="130.95833333333334" y="925.8583333333333" type="line"/>
      <point x="130.95833333333334" y="278.78333333333336" type="line" smooth="yes"/>
      <point x="130.95833333333334" y="82.825"/>
      <point x="213.1" y="-17.458333333333332"/>
    </contour>
    <contour>
      <point x="12.466666666666667" y="791.8166666666666" type="line"/>
      <point x="616.1166666666667" y="791.8166666666666" type="line"/>
      <point x="634.4499999999999" y="984.4" type="line"/>
      <point x="12.466666666666667" y="984.4" type="line"/>
    </contour>
    <contour>
      <point x="134.3" y="966.4833333333333" type="line"/>
      <point x="362.7" y="966.4833333333333" type="line"/>
      <point x="371.54166666666663" y="1245.2333333333333" type="line"/>
      <point x="133.8" y="1217.2833333333333" type="line"/>
    </contour>
  </outline>
</glyph>
<glyph name="u" format="2">
  <advance width="952.5250000000001"/>
  <unicode hex="0075"/>
  <anchor x="477.16666666666674" y="0.0" name="bottom"/>
  <anchor x="889.9583333333333" y="0.0" name="ogonek"/>
  <anchor x="477.16666666666674" y="990.875" name="top"/>
  <anchor x="940.25" y="990.875" name="topright"/>
  <outline>
    <contour>
      <point x="329.53333333333336" y="990.875" type="line"/>
      <point x="87.99166666666667" y="990.875" type="line"/>
      <point x="87.99166666666667" y="315.2583333333333" type="line" smooth="yes"/>
      <point x="87.99166666666667" y="95.35000000000001"/>
      <point x="167.45000000000002" y="-18.575"/>
      <point x="353.025" y="-18.575" type="curve" smooth="yes"/>
      <point x="516.7" y="-18.575"/>
      <point x="587.5166666666667" y="70.36666666666667"/>
      <point x="614.3666666666667" y="183.925" type="curve"/>
      <point x="663.2666666666667" y="183.925" type="line"/>
      <point x="619.5666666666666" y="314.15000000000003" type="line"/>
      <point x="600.9833333333333" y="239.00833333333333"/>
      <point x="548.7583333333333" y="182.30833333333334"/>
      <point x="461.3833333333334" y="182.30833333333334" type="curve" smooth="yes"/>
      <point x="362.6333333333333" y="182.30833333333334"/>
      <point x="329.53333333333336" y="244.99999999999997"/>
      <point x="329.53333333333336" y="351.825" type="curve" smooth="yes"/>
    </contour>
    <contour>
      <point x="856.875" y="990.875" type="line"/>
      <point x="615.3333333333334" y="990.875" type="line"/>
      <point x="615.3333333333334" y="225.66666666666666" type="line"/>
      <point x="625.6333333333333" y="212.90833333333333" type="line"/>
      <point x="616.7916666666667" y="0.0" type="line"/>
      <point x="856.875" y="0.0" type="line"/>
    </contour>
  </outline>
</glyph>
<glyph name="v" format="2">
  <advance width="882.4916666666667"/>
  <unicode hex="0076"/>
  <anchor x="441.4" y="0.0" name="bottom"/>
  <anchor x="441.4" y="990.875" name="top"/>
  <outline>
    <contour>
      <point x="452.24166666666673" y="161.26666666666665" type="line"/>
      <point x="431.7833333333333" y="161.26666666666665" type="line"/>
      <point x="274.18333333333334" y="990.875" type="line"/>
      <point x="28.066666666666666" y="990.875" type="line"/>
      <point x="246.3166666666667" y="0.0" type="line"/>
      <point x="636.75" y="0.0" type="line"/>
      <point x="854.4250000000001" y="990.875" type="line"/>
      <point x="609.8416666666667" y="990.875" type="line"/>
    </contour>
  </outline>
</glyph>
<glyph name="w" format="2">
  <advance width="1332.3083333333334"/>
  <unicode hex="0077"/>
  <anchor x="666.5" y="0.0" name="bottom"/>
  <anchor x="666.5" y="990.875" name="top"/>
  <outline>
    <contour>
      <point x="201.19166666666666" y="0.0" type="line"/>
      <point x="552.6166666666667" y="0.0" type="line"/>
      <point x="640.5500000000001" y="620.975" type="line"/>
      <point x="660.7666666666667" y="787.5500000000001" type="line"/>
      <point x="673.8833333333333" y="787.5500000000001" type="line"/>
      <point x="694.0250000000001" y="620.975" type="line"/>
      <point x="781.0" y="0.0" type="line"/>
      <point x="1131.6166666666668" y="0.0" type="line"/>
      <point x="1297.3916666666667" y="990.875" type="line"/>
      <point x="1060.3000000000002" y="990.875" type="line"/>
      <point x="947.575" y="172.025" type="line"/>
      <point x="932.6916666666666" y="172.025" type="line"/>
      <point x="817.3833333333333" y="967.6" type="line"/>
      <point x="516.5" y="967.6" type="line"/>
      <point x="401.3833333333333" y="172.025" type="line"/>
      <point x="385.6166666666667" y="172.025" type="line"/>
      <point x="276.15833333333336" y="990.875" type="line"/>
      <point x="34.916666666666664" y="990.875" type="line"/>
    </contour>
  </outline>
</glyph>
<glyph name="x" format="2">
  <advance width="876.3499999999999"/>
  <unicode hex="0078"/>
  <anchor x="438.42499999999995" y="0.0" name="bottom"/>
  <anchor x="438.42499999999995" y="990.875" name="top"/>
  <outline>
    <contour>
      <point x="28.34166666666667" y="0.0" type="line"/>
      <point x="278.8833333333333" y="0.0" type="line"/>
      <point x="431.46666666666664" y="395.31666666666666" type="line"/>
      <point x="446.1916666666666" y="395.31666666666666" type="line"/>
      <point x="597.4666666666667" y="0.0" type="line"/>
      <point x="848.0083333333333" y="0.0" type="line"/>
      <point x="617.0916666666667" y="553.7416666666667" type="line"/>
      <point x="617.0916666666667" y="480.55833333333334" type="line"/>
      <point x="843.0083333333333" y="990.875" type="line"/>
      <point x="592.5833333333334" y="990.875" type="line"/>
      <point x="446.1916666666666" y="618.1166666666667" type="line"/>
      <point x="431.46666666666664" y="618.1166666666667" type="line"/>
      <point x="283.9583333333333" y="990.875" type="line"/>
      <point x="33.34166666666667" y="990.875" type="line"/>
      <point x="259.45" y="480.55833333333334" type="line"/>
      <point x="259.45" y="553.7416666666667" type="line"/>
    </contour>
  </outline>
</glyph>
<glyph name="y" format="2">
  <advance width="882.6833333333334"/>
  <unicode hex="0079"/>
  <anchor x="647.8416666666667" y="-106.90833333333333" name="bottom"/>
  <anchor x="441.9" y="990.875" name="top"/>
  <outline>
    <contour>
      <point x="552.125" y="202.38333333333335" type="line"/>
      <point x="423.2166666666667" y="202.38333333333335" type="line"/>
      <point x="273.60833333333335" y="990.875" type="line"/>
      <point x="28.066666666666666" y="990.875" type="line"/>
      <point x="248.39166666666668" y="39.30833333333333" type="line"/>
      <point x="525.5666666666667" y="39.30833333333333" type="line"/>
      <point x="409.43333333333334" y="121.98333333333333" type="line"/>
      <point x="291.89166666666665" y="-347.0" type="line"/>
      <point x="529.2083333333334" y="-347.0" type="line"/>
      <point x="854.6166666666667" y="990.875" type="line"/>
      <point x="610.075" y="990.875" type="line"/>
      <point x="429.9916666666667" y="166.21666666666667" type="line"/>
    </contour>
  </outline>
</glyph>
<glyph name="z" format="2">
  <advance width="779.1333333333333"/>
  <unicode hex="007A"/>
  <anchor x="389.2583333333334" y="0.0" name="bottom"/>
  <anchor x="389.875" y="495.84166666666664" name="center"/>
  <anchor x="389.2583333333334" y="990.875" name="top"/>
  <outline>
    <contour>
      <point x="721.075" y="204.15" type="line"/>
      <point x="327.3083333333334" y="204.15" type="line"/>
      <point x="717.0" y="805.25" type="line"/>
      <point x="717.0" y="990.875" type="line"/>
      <point x="60.633333333333326" y="990.875" type="line"/>
      <point x="60.633333333333326" y="788.4166666666666" type="line"/>
      <point x="446.175" y="788.4166666666666" type="line"/>
      <point x="57.75" y="187.31666666666666" type="line"/>
      <point x="57.75" y="0.0" type="line"/>
      <point x="721.075" y="0.0" type="line"/>
    </contour>
  </outline>
</glyph>
<glyph name="braceleft" format="2">
  <advance width="612.1750000000001"/>
  <unicode hex="007B"/>
  <outline>
    <contour>
      <point x="571.0166666666667" y="1335.3416666666667" type="line"/>
      <point x="525.2583333333333" y="1347.9583333333335"/>
      <point x="477.075" y="1356.65"/>
      <point x="428.5" y="1356.65" type="curve" smooth="yes"/>
      <point x="246.01666666666665" y="1356.65"/>
      <point x="157.50833333333333" y="1271.8583333333333"/>
      <point x="157.50833333333333" y="1069.4166666666667" type="curve" smooth="yes"/>
      <point x="157.50833333333333" y="996.3416666666666"/>
      <point x="171.50833333333333" y="853.2166666666667"/>
      <point x="171.50833333333333" y="792.0666666666666" type="curve" smooth="yes"/>
      <point x="171.50833333333333" y="706.725"/>
      <point x="140.00833333333333" y="665.475"/>
      <point x="48.4" y="658.4333333333333" type="curve"/>
      <point x="48.4" y="452.57500000000005" type="line"/>
      <point x="140.00833333333333" y="445.22499999999997"/>
      <point x="171.50833333333333" y="404.16666666666663"/>
      <point x="171.50833333333333" y="318.51666666666665" type="curve" smooth="yes"/>
      <point x="171.50833333333333" y="258.2916666666667"/>
      <point x="157.50833333333333" y="113.93333333333334"/>
      <point x="157.50833333333333" y="38.43333333333334" type="curve" smooth="yes"/>
      <point x="157.50833333333333" y="-164.39166666666665"/>
      <point x="246.01666666666665" y="-249.49166666666667"/>
      <point x="428.5" y="-249.49166666666667" type="curve" smooth="yes"/>
      <point x="477.075" y="-249.49166666666667"/>
      <point x="524.6833333333334" y="-240.99166666666667"/>
      <point x="571.0166666666667" y="-227.99166666666665" type="curve"/>
      <point x="571.0166666666667" y="-50.61666666666667" type="line"/>
      <point x="550.1583333333333" y="-57.39166666666666"/>
      <point x="524.375" y="-62.55"/>
      <point x="496.6666666666667" y="-62.55" type="curve" smooth="yes"/>
      <point x="418.65" y="-62.55"/>
      <point x="388.2166666666667" y="-25.0"/>
      <point x="388.2166666666667" y="61.37500000000001" type="curve" smooth="yes"/>
      <point x="388.2166666666667" y="119.41666666666666"/>
      <point x="401.71666666666664" y="259.625"/>
      <point x="401.71666666666664" y="323.97499999999997" type="curve" smooth="yes"/>
      <point x="401.71666666666664" y="452.5083333333333"/>
      <point x="365.29999999999995" y="534.0416666666666"/>
      <point x="223.56666666666666" y="553.2333333333333" type="curve"/>
      <point x="239.31666666666666" y="533.95" type="line"/>
      <point x="239.31666666666666" y="561.0416666666667" type="line"/>
      <point x="363.60833333333335" y="583.1166666666667"/>
      <point x="401.71666666666664" y="658.075"/>
      <point x="401.71666666666664" y="786.0333333333334" type="curve" smooth="yes"/>
      <point x="401.71666666666664" y="849.4583333333334"/>
      <point x="388.2166666666667" y="988.7416666666667"/>
      <point x="388.2166666666667" y="1046.7833333333333" type="curve" smooth="yes"/>
      <point x="388.2166666666667" y="1132.85"/>
      <point x="418.4583333333333" y="1170.3999999999999"/>
      <point x="495.28333333333336" y="1170.3999999999999" type="curve" smooth="yes"/>
      <point x="523.6833333333334" y="1170.3999999999999"/>
      <point x="549.9666666666667" y="1165.2416666666668"/>
      <point x="571.0166666666667" y="1158.7749999999999" type="curve"/>
    </contour>
  </outline>
</glyph>
<glyph name="bar" format="2">
  <advance width="461.20833333333337"/>
  <unicode hex="007C"/>
  <outline>
    <contour>
      <point x="334.43333333333334" y="-418.4083333333333" type="line"/>
      <point x="334.43333333333334" y="1423.5" type="line"/>
      <point x="126.775" y="1423.5" type="line"/>
      <point x="126.775" y="-418.4083333333333" type="line"/>
    </contour>
  </outline>
</glyph>
<glyph name="braceright" format="2">
  <advance width="612.1750000000001"/>
  <unicode hex="007D"/>
  <outline>
    <contour>
      <point x="41.15833333333333" y="1335.3416666666667" type="curve"/>
      <point x="41.15833333333333" y="1158.7749999999999" type="line"/>
      <point x="62.208333333333336" y="1165.2416666666668"/>
      <point x="88.49166666666666" y="1170.3999999999999"/>
      <point x="116.89166666666667" y="1170.3999999999999" type="curve" smooth="yes"/>
      <point x="193.71666666666667" y="1170.3999999999999"/>
      <point x="223.95833333333334" y="1132.85"/>
      <point x="223.95833333333334" y="1046.7833333333333" type="curve" smooth="yes"/>
      <point x="223.95833333333334" y="988.7416666666667"/>
      <point x="210.45833333333334" y="849.4583333333334"/>
      <point x="210.45833333333334" y="786.0333333333334" type="curve" smooth="yes"/>
      <point x="210.45833333333334" y="658.075"/>
      <point x="248.5666666666667" y="583.1166666666667"/>
      <point x="372.8583333333333" y="561.0416666666667" type="curve"/>
      <point x="372.8583333333333" y="533.95" type="line"/>
      <point x="388.60833333333335" y="553.2333333333333" type="line"/>
      <point x="246.875" y="534.0416666666666"/>
      <point x="210.45833333333334" y="452.5083333333333"/>
      <point x="210.45833333333334" y="323.97499999999997" type="curve" smooth="yes"/>
      <point x="210.45833333333334" y="259.625"/>
      <point x="223.95833333333334" y="119.41666666666666"/>
      <point x="223.95833333333334" y="61.37500000000001" type="curve" smooth="yes"/>
      <point x="223.95833333333334" y="-25.0"/>
      <point x="193.525" y="-62.55"/>
      <point x="115.50833333333333" y="-62.55" type="curve" smooth="yes"/>
      <point x="87.8" y="-62.55"/>
      <point x="62.01666666666666" y="-57.39166666666666"/>
      <point x="41.15833333333333" y="-50.61666666666667" type="curve"/>
      <point x="41.15833333333333" y="-227.99166666666665" type="line"/>
      <point x="87.49166666666666" y="-240.99166666666667"/>
      <point x="135.1" y="-249.49166666666667"/>
      <point x="183.675" y="-249.49166666666667" type="curve" smooth="yes"/>
      <point x="366.15833333333336" y="-249.49166666666667"/>
      <point x="454.6666666666667" y="-164.39166666666665"/>
      <point x="454.6666666666667" y="38.43333333333334" type="curve" smooth="yes"/>
      <point x="454.6666666666667" y="113.93333333333334"/>
      <point x="440.6666666666667" y="258.2916666666667"/>
      <point x="440.6666666666667" y="318.51666666666665" type="curve" smooth="yes"/>
      <point x="440.6666666666667" y="404.16666666666663"/>
      <point x="472.16666666666663" y="445.22499999999997"/>
      <point x="563.775" y="452.57500000000005" type="curve"/>
      <point x="563.775" y="658.4333333333333" type="line"/>
      <point x="472.16666666666663" y="665.475"/>
      <point x="440.6666666666667" y="706.725"/>
      <point x="440.6666666666667" y="792.0666666666666" type="curve" smooth="yes"/>
      <point x="440.6666666666667" y="853.2166666666667"/>
      <point x="454.6666666666667" y="996.3416666666666"/>
      <point x="454.6666666666667" y="1069.4166666666667" type="curve" smooth="yes"/>
      <point x="454.6666666666667" y="1271.8583333333333"/>
      <point x="366.15833333333336" y="1356.65"/>
      <point x="183.675" y="1356.65" type="curve" smooth="yes"/>
      <point x="135.1" y="1356.65"/>
      <point x="86.91666666666666" y="1347.9583333333335"/>
    </contour>
  </outline>
</glyph>
<glyph name="asciitilde" format="2">
  <advance width="958.4"/>
  <unicode hex="007E"/>
  <outline>
    <contour>
      <point x="653.7416666666667" y="492.18333333333334" type="curve" smooth="yes"/>
      <point x="810.4166666666666" y="492.18333333333334"/>
      <point x="870.1666666666666" y="590.1"/>
      <point x="870.1666666666666" y="749.0166666666667" type="curve" smooth="yes"/>
      <point x="870.1666666666666" y="800.4333333333333" type="line"/>
      <point x="696.0583333333333" y="800.4333333333333" type="line"/>
      <point x="696.0583333333333" y="788.1083333333333" type="line" smooth="yes"/>
      <point x="695.2916666666666" y="728.9166666666667"/>
      <point x="680.0166666666668" y="696.4499999999999"/>
      <point x="625.0583333333333" y="696.4499999999999" type="curve" smooth="yes"/>
      <point x="542.3833333333333" y="696.4499999999999"/>
      <point x="430.5083333333333" y="777.1833333333334"/>
      <point x="303.96666666666664" y="777.1833333333334" type="curve" smooth="yes"/>
      <point x="147.17499999999998" y="777.1833333333334"/>
      <point x="87.925" y="679.2166666666666"/>
      <point x="87.925" y="519.425" type="curve" smooth="yes"/>
      <point x="87.925" y="468.54999999999995" type="line"/>
      <point x="261.725" y="468.54999999999995" type="line"/>
      <point x="261.725" y="480.59999999999997" type="line" smooth="yes"/>
      <point x="262.3" y="539.25"/>
      <point x="278.57500000000005" y="572.4166666666666"/>
      <point x="332.725" y="572.4166666666666" type="curve" smooth="yes"/>
      <point x="417.44166666666666" y="572.4166666666666"/>
      <point x="528.6583333333333" y="492.18333333333334"/>
    </contour>
  </outline>
</glyph>
<glyph name="exclamdown" format="2">
  <advance width="448.5333333333333"/>
  <unicode hex="00A1"/>
  <outline>
    <contour>
      <point x="322.9583333333333" y="583.8083333333333" type="line"/>
      <point x="125.76666666666668" y="583.8083333333333" type="line"/>
      <point x="95.675" y="-287.125" type="line"/>
      <point x="352.85833333333335" y="-287.125" type="line"/>
    </contour>
    <contour>
      <point x="226.03333333333333" y="1014.0166666666667" type="curve" smooth="yes"/>
      <point x="135.78333333333333" y="1014.0166666666667"/>
      <point x="94.54166666666666" y="961.0083333333333"/>
      <point x="94.54166666666666" y="868.6333333333333" type="curve" smooth="yes"/>
      <point x="94.54166666666666" y="854.9416666666667" type="line" smooth="yes"/>
      <point x="94.54166666666666" y="763.7583333333333"/>
      <point x="135.78333333333333" y="710.1750000000001"/>
      <point x="226.03333333333333" y="710.1750000000001" type="curve" smooth="yes"/>
      <point x="314.0916666666667" y="710.1750000000001"/>
      <point x="357.7166666666667" y="763.7583333333333"/>
      <point x="357.7166666666667" y="854.9416666666667" type="curve" smooth="yes"/>
      <point x="357.7166666666667" y="868.6333333333333" type="line" smooth="yes"/>
      <point x="357.7166666666667" y="961.0083333333333"/>
      <point x="314.0916666666667" y="1014.0166666666667"/>
    </contour>
  </outline>
</glyph>
<glyph name="cent" format="2">
  <advance width="736.2333333333333"/>
  <unicode hex="00A2"/>
  <anchor x="408.9666666666667" y="0.0" name="bottom"/>
  <anchor x="408.9666666666667" y="990.875" name="top"/>
  <outline>
    <contour>
      <point x="531.6416666666667" y="897.075" type="line"/>
      <point x="531.6416666666667" y="1171.7" type="line"/>
      <point x="325.875" y="1171.7" type="line"/>
      <point x="325.875" y="897.075" type="line"/>
    </contour>
    <contour>
      <point x="531.6416666666667" y="-189.9" type="line"/>
      <point x="531.6416666666667" y="107.13333333333334" type="line"/>
      <point x="325.875" y="107.13333333333334" type="line"/>
      <point x="325.875" y="-189.9" type="line"/>
    </contour>
    <component base="c"/>
  </outline>
</glyph>
<glyph name="sterling" format="2">
  <advance width="885.9333333333333"/>
  <unicode hex="00A3"/>
  <outline>
    <contour>
      <point x="59.59166666666667" y="577.1166666666667" type="line"/>
      <point x="752.3000000000001" y="577.1166666666667" type="line"/>
      <point x="763.8333333333334" y="752.0583333333334" type="line"/>
      <point x="71.125" y="752.0583333333334" type="line"/>
    </contour>
    <contour>
      <point x="288.91666666666663" y="214.64166666666668" type="line"/>
      <point x="288.91666666666663" y="223.6" type="line"/>
      <point x="401.90000000000003" y="263.1333333333334"/>
      <point x="459.34999999999997" y="329.32500000000005"/>
      <point x="459.34999999999997" y="490.6666666666667" type="curve" smooth="yes"/>
      <point x="459.34999999999997" y="619.1083333333333"/>
      <point x="410.1416666666667" y="785.1583333333333"/>
      <point x="410.1416666666667" y="919.525" type="curve" smooth="yes"/>
      <point x="410.1416666666667" y="1030.6333333333334"/>
      <point x="458.0666666666667" y="1087.5416666666665"/>
      <point x="594.8166666666666" y="1087.5416666666665" type="curve" smooth="yes"/>
      <point x="663.7083333333334" y="1087.5416666666665"/>
      <point x="728.8333333333334" y="1076.2666666666667"/>
      <point x="796.4166666666666" y="1053.25" type="curve"/>
      <point x="779.3499999999999" y="1261.1333333333332" type="line"/>
      <point x="712.2083333333334" y="1285.025"/>
      <point x="621.8333333333334" y="1301.0333333333333"/>
      <point x="531.4583333333334" y="1301.0333333333333" type="curve" smooth="yes"/>
      <point x="268.59999999999997" y="1301.0333333333333"/>
      <point x="157.03333333333333" y="1184.8166666666666"/>
      <point x="157.03333333333333" y="956.3666666666667" type="curve" smooth="yes"/>
      <point x="157.03333333333333" y="807.2"/>
      <point x="208.625" y="631.6083333333333"/>
      <point x="208.31666666666666" y="484.6583333333333" type="curve" smooth="yes"/>
      <point x="208.31666666666666" y="334.7416666666667"/>
      <point x="174.84166666666664" y="266.1166666666667"/>
      <point x="92.75" y="218.74166666666665" type="curve" smooth="yes"/>
      <point x="67.59166666666667" y="207.45833333333334" type="line"/>
      <point x="67.59166666666667" y="0.0" type="line"/>
      <point x="835.3833333333333" y="0.0" type="line"/>
      <point x="835.3833333333333" y="214.64166666666668" type="line"/>
    </contour>
  </outline>
</glyph>
<glyph name="currency" format="2">
  <advance width="961.3916666666667"/>
  <unicode hex="00A4"/>
  <outline>
    <contour>
      <point x="480.1" y="243.41666666666666" type="curve" smooth="yes"/>
      <point x="705.9666666666666" y="243.41666666666666"/>
      <point x="824.0583333333333" y="367.85833333333335"/>
      <point x="824.0583333333333" y="593.5583333333333" type="curve" smooth="yes"/>
      <point x="824.0583333333333" y="643.25" type="line" smooth="yes"/>
      <point x="824.0583333333333" y="867.7583333333333"/>
      <point x="706.275" y="992.1999999999999"/>
      <point x="480.40833333333336" y="992.1999999999999" type="curve" smooth="yes"/>
      <point x="254.35" y="992.1999999999999"/>
      <point x="136.25833333333335" y="867.7583333333333"/>
      <point x="136.25833333333335" y="643.25" type="curve" smooth="yes"/>
      <point x="136.25833333333335" y="593.5583333333333" type="line" smooth="yes"/>
      <point x="136.25833333333335" y="367.85833333333335"/>
      <point x="254.04166666666666" y="243.41666666666666"/>
    </contour>
    <contour>
      <point x="480.40833333333336" y="421.975" type="curve" smooth="yes"/>
      <point x="392.7416666666667" y="421.975"/>
      <point x="349.825" y="477.0083333333333"/>
      <point x="349.825" y="586.95" type="curve" smooth="yes"/>
      <point x="349.825" y="649.6666666666666" type="line" smooth="yes"/>
      <point x="349.825" y="759.8000000000001"/>
      <point x="392.7416666666667" y="814.3333333333334"/>
      <point x="480.40833333333336" y="814.3333333333334" type="curve" smooth="yes"/>
      <point x="567.5749999999999" y="814.3333333333334"/>
      <point x="608.6083333333333" y="759.1083333333333"/>
      <point x="609.4916666666667" y="649.6666666666666" type="curve" smooth="yes"/>
      <point x="610.4916666666667" y="586.95" type="line" smooth="yes"/>
      <point x="611.375" y="477.0083333333333"/>
      <point x="567.5749999999999" y="421.975"/>
    </contour>
    <contour>
      <point x="735.1833333333334" y="449.34166666666664" type="line"/>
      <point x="602.3583333333333" y="325.85833333333335" type="line"/>
      <point x="775.7083333333334" y="117.03333333333333" type="line"/>
      <point x="916.2583333333333" y="230.10000000000002" type="line"/>
    </contour>
    <contour>
      <point x="362.8" y="330.625" type="line"/>
      <point x="228.325" y="449.3833333333333" type="line"/>
      <point x="45.63333333333333" y="230.10000000000002" type="line"/>
      <point x="185.49166666666667" y="117.03333333333333" type="line"/>
    </contour>
    <contour>
      <point x="219.29166666666666" y="789.925" type="line"/>
      <point x="357.65000000000003" y="905.875" type="line"/>
      <point x="185.375" y="1113.2416666666668" type="line"/>
      <point x="45.63333333333333" y="1000.3666666666667" type="line"/>
    </contour>
    <contour>
      <point x="597.2083333333334" y="897.65" type="line"/>
      <point x="729.15" y="773.7833333333333" type="line"/>
      <point x="915.2583333333333" y="1000.3666666666667" type="line"/>
      <point x="775.5166666666667" y="1113.2416666666668" type="line"/>
    </contour>
  </outline>
</glyph>
<glyph name="yen" format="2">
  <advance width="965.325"/>
  <unicode hex="00A5"/>
  <anchor x="481.8333333333333" y="0.0" name="bottom"/>
  <anchor x="481.8333333333333" y="1278.0" name="top"/>
  <anchor x="28.016666666666666" y="1278.0" name="topleft"/>
  <outline>
    <contour>
      <point x="542.4583333333334" y="519.7333333333333" type="line"/>
      <point x="866.5" y="519.7333333333333" type="line"/>
      <point x="878.5750000000002" y="681.25" type="line"/>
      <point x="579.5916666666667" y="681.25" type="line"/>
    </contour>
    <contour>
      <point x="102.9" y="389.2833333333333" type="line"/>
      <point x="90.63333333333334" y="230.725" type="line"/>
      <point x="866.5" y="230.725" type="line"/>
      <point x="878.5750000000002" y="389.2833333333333" type="line"/>
    </contour>
    <contour>
      <point x="374.05" y="681.25" type="line"/>
      <point x="102.9" y="681.25" type="line"/>
      <point x="90.63333333333334" y="519.7333333333333" type="line"/>
      <point x="413.06666666666666" y="519.7333333333333" type="line"/>
    </contour>
    <component base="Y" xOffset="8.016666666666667"/>
  </outline>
</glyph>
<glyph name="brokenbar" format="2">
  <advance width="461.97499999999997"/>
  <unicode hex="00A6"/>
  <outline>
    <contour>
      <point x="335.2" y="581.1666666666666" type="line"/>
      <point x="335.2" y="1423.5" type="line"/>
      <point x="126.775" y="1423.5" type="line"/>
      <point x="126.775" y="581.1666666666666" type="line"/>
    </contour>
    <contour>
      <point x="335.2" y="-418.4083333333333" type="line"/>
      <point x="335.2" y="428.3833333333333" type="line"/>
      <point x="126.775" y="428.3833333333333" type="line"/>
      <point x="126.775" y="-418.4083333333333" type="line"/>
    </contour>
  </outline>
</glyph>
<glyph name="section" format="2">
  <advance width="809.9916666666667"/>
  <unicode hex="00A7"/>
  <outline>
    <contour>
      <point x="449.04999999999995" y="438.875" type="curve"/>
      <point x="578.8666666666667" y="357.16666666666663" type="line"/>
      <point x="577.9833333333333" y="407.23333333333335" type="line"/>
      <point x="677.8583333333333" y="430.8666666666667"/>
      <point x="735.075" y="506.41666666666663"/>
      <point x="735.075" y="608.9416666666667" type="curve" smooth="yes"/>
      <point x="735.075" y="624.1333333333333" type="line" smooth="yes"/>
      <point x="735.075" y="769.2666666666667"/>
      <point x="657.4583333333334" y="823.85"/>
      <point x="477.1833333333334" y="890.5916666666667" type="curve" smooth="yes"/>
      <point x="342.84166666666664" y="937.9083333333333"/>
      <point x="306.08333333333337" y="963.775"/>
      <point x="306.08333333333337" y="1017.2833333333334" type="curve" smooth="yes"/>
      <point x="306.08333333333337" y="1024.7166666666667" type="line" smooth="yes"/>
      <point x="306.08333333333337" y="1076.1833333333332"/>
      <point x="340.9166666666667" y="1105.0583333333334"/>
      <point x="440.95000000000005" y="1105.0583333333334" type="curve" smooth="yes"/>
      <point x="544.65" y="1105.0583333333334"/>
      <point x="633.0999999999999" y="1073.7833333333333"/>
      <point x="702.9" y="1034.7333333333331" type="curve"/>
      <point x="684.6416666666667" y="1231.6416666666667" type="line"/>
      <point x="622.1916666666666" y="1268.0666666666666"/>
      <point x="527.2083333333334" y="1300.725"/>
      <point x="404.7083333333333" y="1300.725" type="curve" smooth="yes"/>
      <point x="186.07500000000002" y="1300.725"/>
      <point x="71.10833333333332" y="1210.2333333333333"/>
      <point x="71.10833333333332" y="1038.8833333333332" type="curve" smooth="yes"/>
      <point x="71.10833333333332" y="1027.8416666666667" type="line" smooth="yes"/>
      <point x="71.10833333333332" y="892.675"/>
      <point x="133.91666666666666" y="810.4916666666667"/>
      <point x="327.70833333333337" y="742.0333333333333" type="curve" smooth="yes"/>
      <point x="477.375" y="687.4916666666667"/>
      <point x="522.5166666666667" y="658.4"/>
      <point x="522.5166666666667" y="571.625" type="curve" smooth="yes"/>
      <point x="522.5166666666667" y="552.4833333333333" type="line" smooth="yes"/>
      <point x="522.5166666666667" y="502.0083333333334"/>
      <point x="500.8083333333333" y="460.30833333333334"/>
    </contour>
    <contour>
      <point x="356.01666666666665" y="745.3583333333333" type="curve"/>
      <point x="225.51666666666668" y="820.5" type="line"/>
      <point x="226.70833333333334" y="773.8833333333333" type="line"/>
      <point x="126.54999999999998" y="745.6666666666666"/>
      <point x="71.8" y="676.4333333333333"/>
      <point x="71.8" y="573.1750000000001" type="curve" smooth="yes"/>
      <point x="71.8" y="561.6416666666667" type="line" smooth="yes"/>
      <point x="71.8" y="427.47499999999997"/>
      <point x="145.63333333333333" y="362.04999999999995"/>
      <point x="323.9583333333333" y="292.3" type="curve" smooth="yes"/>
      <point x="460.6583333333333" y="240.21666666666667"/>
      <point x="498.6833333333333" y="216.45833333333334"/>
      <point x="498.6833333333333" y="157.83333333333334" type="curve" smooth="yes"/>
      <point x="498.6833333333333" y="150.20833333333334" type="line" smooth="yes"/>
      <point x="498.6833333333333" y="95.55"/>
      <point x="457.2666666666667" y="62.82500000000001"/>
      <point x="357.19166666666666" y="62.82500000000001" type="curve" smooth="yes"/>
      <point x="244.3083333333333" y="62.82500000000001"/>
      <point x="150.9333333333333" y="98.325"/>
      <point x="73.40833333333333" y="139.45000000000002" type="curve"/>
      <point x="91.35833333333333" y="-71.6" type="line"/>
      <point x="158.45833333333334" y="-106.40833333333333"/>
      <point x="256.98333333333335" y="-138.68333333333334"/>
      <point x="383.2416666666667" y="-138.68333333333334" type="curve" smooth="yes"/>
      <point x="620.5583333333334" y="-138.68333333333334"/>
      <point x="735.075" y="-40.00833333333333"/>
      <point x="735.075" y="139.10833333333332" type="curve" smooth="yes"/>
      <point x="735.075" y="152.11666666666665" type="line" smooth="yes"/>
      <point x="735.075" y="304.8416666666667"/>
      <point x="666.4666666666667" y="369.69166666666666"/>
      <point x="480.92499999999995" y="435.55833333333334" type="curve" smooth="yes"/>
      <point x="333.96666666666664" y="489.41666666666663"/>
      <point x="283.01666666666665" y="527.65"/>
      <point x="283.01666666666665" y="614.35" type="curve" smooth="yes"/>
      <point x="283.01666666666665" y="632.1750000000001" type="line"/>
      <point x="283.01666666666665" y="684.6583333333334"/>
      <point x="305.3416666666667" y="723.925"/>
    </contour>
  </outline>
</glyph>
<glyph name="copyright" format="2">
  <advance width="1277.125"/>
  <unicode hex="00A9"/>
  <outline>
    <contour>
      <point x="638.4666666666667" y="-23.533333333333335" type="curve" smooth="yes"/>
      <point x="998.2583333333333" y="-23.533333333333335"/>
      <point x="1199.2833333333333" y="176.95000000000002"/>
      <point x="1199.2833333333333" y="536.025" type="curve" smooth="yes"/>
      <point x="1199.2833333333333" y="745.1666666666666" type="line" smooth="yes"/>
      <point x="1199.2833333333333" y="1101.975"/>
      <point x="998.2583333333333" y="1300.7666666666667"/>
      <point x="638.4666666666667" y="1300.7666666666667" type="curve" smooth="yes"/>
      <point x="278.05833333333334" y="1300.7666666666667"/>
      <point x="77.84166666666667" y="1101.975"/>
      <point x="77.84166666666667" y="745.1666666666666" type="curve" smooth="yes"/>
      <point x="77.84166666666667" y="536.025" type="line" smooth="yes"/>
      <point x="77.84166666666667" y="176.95000000000002"/>
      <point x="278.05833333333334" y="-23.533333333333335"/>
    </contour>
    <contour>
      <point x="676.3083333333333" y="306.89166666666665" type="curve" smooth="yes"/>
      <point x="744.4666666666667" y="306.89166666666665"/>
      <point x="800.6916666666667" y="324.975"/>
      <point x="836.8" y="348.44166666666666" type="curve"/>
      <point x="848.4083333333334" y="491.04166666666663" type="line"/>
      <point x="813.75" y="468.4166666666667"/>
      <point x="773.2416666666667" y="451.6"/>
      <point x="720.225" y="451.6" type="curve" smooth="yes"/>
      <point x="631.8583333333333" y="451.6"/>
      <point x="591.2333333333333" y="501.925"/>
      <point x="591.2333333333333" y="590.4916666666667" type="curve" smooth="yes"/>
      <point x="591.2333333333333" y="692.8166666666667" type="line" smooth="yes"/>
      <point x="591.2333333333333" y="780.8083333333334"/>
      <point x="627.5916666666667" y="830.6333333333333"/>
      <point x="715.3416666666667" y="830.6333333333333" type="curve" smooth="yes"/>
      <point x="768.9749999999999" y="830.6333333333333"/>
      <point x="808.4833333333333" y="813.7416666666667"/>
      <point x="843.0250000000001" y="791.5" type="curve"/>
      <point x="830.9166666666666" y="931.6416666666667" type="line"/>
      <point x="795.6916666666667" y="954.1833333333334"/>
      <point x="742.5416666666667" y="972.075"/>
      <point x="675.5" y="972.075" type="curve" smooth="yes"/>
      <point x="504.875" y="972.075"/>
      <point x="424.65833333333336" y="870.2833333333333"/>
      <point x="424.65833333333336" y="693.3833333333333" type="curve" smooth="yes"/>
      <point x="424.65833333333336" y="586.4666666666666" type="line" smooth="yes"/>
      <point x="424.65833333333336" y="408.56666666666666"/>
      <point x="503.9916666666667" y="306.89166666666665"/>
    </contour>
    <contour>
      <point x="638.4666666666667" y="114.29166666666666" type="curve" smooth="yes"/>
      <point x="385.6" y="114.29166666666666"/>
      <point x="239.34166666666667" y="261.925"/>
      <point x="239.34166666666667" y="522.4916666666667" type="curve" smooth="yes"/>
      <point x="239.34166666666667" y="759.5833333333334" type="line" smooth="yes"/>
      <point x="239.34166666666667" y="1017.3833333333333"/>
      <point x="385.6" y="1162.9416666666666"/>
      <point x="638.4666666666667" y="1162.9416666666666" type="curve" smooth="yes"/>
      <point x="890.7166666666667" y="1162.9416666666666"/>
      <point x="1037.7833333333335" y="1017.3833333333333"/>
      <point x="1037.7833333333335" y="759.5833333333334" type="curve" smooth="yes"/>
      <point x="1037.7833333333335" y="522.4916666666667" type="line" smooth="yes"/>
      <point x="1037.7833333333335" y="261.925"/>
      <point x="890.7166666666667" y="114.29166666666666"/>
    </contour>
  </outline>
</glyph>
<glyph name="ordfeminine" format="2">
  <advance width="571.6416666666667"/>
  <unicode hex="00AA"/>
  <outline>
    <contour>
      <point x="345.84166666666664" y="640.2333333333333" type="line"/>
      <point x="511.9166666666667" y="640.2333333333333" type="line"/>
      <point x="511.9166666666667" y="1053.0500000000002" type="line" smooth="yes"/>
      <point x="511.9166666666667" y="1195.5583333333334"/>
      <point x="455.34999999999997" y="1290.8083333333332"/>
      <point x="275.825" y="1290.8083333333332" type="curve" smooth="yes"/>
      <point x="195.25833333333333" y="1290.8083333333332"/>
      <point x="126.11666666666667" y="1268.1499999999999"/>
      <point x="76.62499999999999" y="1241.1083333333333" type="curve"/>
      <point x="62.94166666666666" y="1102.0333333333333" type="line"/>
      <point x="116.93333333333334" y="1129.1583333333335"/>
      <point x="179.775" y="1152.975"/>
      <point x="247.35000000000002" y="1152.975" type="curve" smooth="yes"/>
      <point x="324.3666666666667" y="1152.975"/>
      <point x="349.34166666666664" y="1120.875"/>
      <point x="349.34166666666664" y="1058.6166666666668" type="curve"/>
      <point x="349.34166666666664" y="1011.925" type="line"/>
      <point x="349.34166666666664" y="784.15" type="line"/>
      <point x="352.4166666666667" y="778.225" type="line"/>
    </contour>
    <contour>
      <point x="196.06666666666666" y="628.1583333333334" type="curve" smooth="yes"/>
      <point x="291.45" y="628.1583333333334"/>
      <point x="327.6083333333333" y="678.3833333333333"/>
      <point x="344.65" y="747.6416666666667" type="curve"/>
      <point x="371.05833333333334" y="747.6416666666667" type="line"/>
      <point x="350.9583333333333" y="828.1166666666667" type="line"/>
      <point x="340.56666666666666" y="789.6916666666666"/>
      <point x="309.4583333333333" y="760.125"/>
      <point x="264.30833333333334" y="760.125" type="curve" smooth="yes"/>
      <point x="219.89166666666668" y="760.125"/>
      <point x="201.99166666666665" y="785.5666666666666"/>
      <point x="201.99166666666665" y="825.1333333333333" type="curve" smooth="yes"/>
      <point x="201.99166666666665" y="848.5999999999999" type="line" smooth="yes"/>
      <point x="201.99166666666665" y="892.05"/>
      <point x="220.08333333333331" y="912.7166666666666"/>
      <point x="272.425" y="924.0333333333333" type="curve" smooth="yes"/>
      <point x="376.83333333333337" y="945.4333333333334" type="line"/>
      <point x="363.65" y="1056.6916666666666" type="line"/>
      <point x="230.34166666666664" y="1031.2166666666667" type="line" smooth="yes"/>
      <point x="91.05833333333332" y="1003.8666666666667"/>
      <point x="38.56666666666666" y="949.9833333333332"/>
      <point x="38.56666666666666" y="838.075" type="curve" smooth="yes"/>
      <point x="38.56666666666666" y="808.3416666666667" type="line" smooth="yes"/>
      <point x="38.56666666666666" y="692.8083333333334"/>
      <point x="91.56666666666666" y="628.1583333333334"/>
    </contour>
  </outline>
</glyph>
<glyph name="logicalnot" format="2">
  <advance width="860.6666666666666"/>
  <unicode hex="00AC"/>
  <outline>
    <contour>
      <point x="779.625" y="248.9" type="line"/>
      <point x="779.625" y="649.3666666666667" type="line"/>
      <point x="573.975" y="649.3666666666667" type="line"/>
      <point x="573.975" y="248.9" type="line"/>
    </contour>
    <contour>
      <point x="74.35833333333333" y="530.3083333333334" type="line"/>
      <point x="779.625" y="530.3083333333334" type="line"/>
      <point x="779.625" y="726.35" type="line"/>
      <point x="74.35833333333333" y="726.35" type="line"/>
    </contour>
  </outline>
</glyph>
<glyph name="registered" format="2">
  <advance width="754.7166666666667"/>
  <unicode hex="00AE"/>
  <outline>
    <contour>
      <point x="377.35833333333335" y="527.3916666666667" type="curve" smooth="yes"/>
      <point x="588.4416666666667" y="527.3916666666667"/>
      <point x="703.4583333333334" y="650.8416666666666"/>
      <point x="703.4583333333334" y="854.5833333333333" type="curve" smooth="yes"/>
      <point x="703.4583333333334" y="969.7666666666668" type="line" smooth="yes"/>
      <point x="703.4583333333334" y="1173.3166666666666"/>
      <point x="588.4416666666667" y="1296.4583333333333"/>
      <point x="377.35833333333335" y="1296.4583333333333" type="curve" smooth="yes"/>
      <point x="165.58333333333334" y="1296.4583333333333"/>
      <point x="51.06666666666666" y="1173.0083333333332"/>
      <point x="51.06666666666666" y="969.7666666666668" type="curve" smooth="yes"/>
      <point x="51.06666666666666" y="854.5833333333333" type="line" smooth="yes"/>
      <point x="51.06666666666666" y="650.8416666666666"/>
      <point x="165.58333333333334" y="527.3916666666667"/>
    </contour>
    <contour>
      <point x="377.35833333333335" y="614.2666666666667" type="curve" smooth="yes"/>
      <point x="225.74166666666665" y="614.2666666666667"/>
      <point x="151.50833333333335" y="695.8916666666667"/>
      <point x="151.50833333333335" y="848.7416666666667" type="curve" smooth="yes"/>
      <point x="151.50833333333335" y="976.9916666666667" type="line" smooth="yes"/>
      <point x="151.50833333333335" y="1128.15"/>
      <point x="225.74166666666665" y="1209.3916666666667"/>
      <point x="377.35833333333335" y="1209.3916666666667" type="curve" smooth="yes"/>
      <point x="528.1666666666666" y="1209.3916666666667"/>
      <point x="602.7083333333334" y="1128.15"/>
      <point x="602.7083333333334" y="976.9916666666667" type="curve" smooth="yes"/>
      <point x="602.7083333333334" y="848.7416666666667" type="line" smooth="yes"/>
      <point x="602.7083333333334" y="695.8916666666667"/>
      <point x="528.1666666666666" y="614.2666666666667"/>
    </contour>
    <contour>
      <point x="433.19166666666666" y="725.9416666666666" type="line"/>
      <point x="525.3333333333333" y="725.9416666666666" type="line"/>
      <point x="514.4083333333334" y="807.0833333333333" type="line" smooth="yes"/>
      <point x="505.48333333333335" y="872.35"/>
      <point x="487.25833333333327" y="903.6666666666666"/>
      <point x="424.31666666666666" y="909.3583333333332" type="curve"/>
      <point x="440.1166666666667" y="898.5583333333333" type="line"/>
      <point x="440.1166666666667" y="910.8583333333333" type="line"/>
      <point x="494.4916666666666" y="915.2833333333333"/>
      <point x="518.4083333333333" y="945.7833333333333"/>
      <point x="518.4083333333333" y="996.5083333333333" type="curve" smooth="yes"/>
      <point x="518.4083333333333" y="1007.6333333333333" type="line" smooth="yes"/>
      <point x="518.4083333333333" y="1077.1750000000002"/>
      <point x="479.1083333333333" y="1115.0916666666667"/>
      <point x="392.55" y="1115.0916666666667" type="curve" smooth="yes"/>
      <point x="318.04166666666663" y="1115.0916666666667" type="line"/>
      <point x="318.04166666666663" y="1040.2833333333333" type="line"/>
      <point x="384.25" y="1040.2833333333333" type="line" smooth="yes"/>
      <point x="415.10833333333335" y="1040.2833333333333"/>
      <point x="428.15000000000003" y="1023.0833333333334"/>
      <point x="428.15000000000003" y="990.65" type="curve" smooth="yes"/>
      <point x="428.15000000000003" y="978.375" type="line" smooth="yes"/>
      <point x="428.15000000000003" y="944.9"/>
      <point x="414.8" y="928.5083333333333"/>
      <point x="383.01666666666665" y="928.2" type="curve" smooth="yes"/>
      <point x="318.96666666666664" y="927.8916666666667" type="line"/>
      <point x="318.96666666666664" y="855.0416666666666" type="line"/>
      <point x="374.01666666666665" y="854.85" type="line" smooth="yes"/>
      <point x="407.9083333333333" y="854.6583333333333"/>
      <point x="419.9916666666666" y="839.9583333333333"/>
      <point x="425.3416666666667" y="794.9833333333333" type="curve" smooth="yes"/>
    </contour>
    <contour>
      <point x="253.65833333333336" y="725.9416666666666" type="line"/>
      <point x="343.4166666666667" y="725.9416666666666" type="line"/>
      <point x="343.4166666666667" y="875.0666666666666" type="line"/>
      <point x="343.03333333333336" y="905.1666666666666" type="line"/>
      <point x="343.03333333333336" y="1115.0916666666667" type="line"/>
      <point x="253.65833333333336" y="1115.0916666666667" type="line"/>
    </contour>
  </outline>
</glyph>
<glyph name="degree" format="2">
  <advance width="596.3416666666667"/>
  <unicode hex="00B0"/>
  <outline>
    <contour>
      <point x="298.51666666666665" y="773.7583333333333" type="curve" smooth="yes"/>
      <point x="455.1333333333333" y="773.7583333333333"/>
      <point x="541.0" y="867.0916666666666"/>
      <point x="541.0" y="1029.6083333333333" type="curve" smooth="yes"/>
      <point x="541.0" y="1047.2583333333334" type="line" smooth="yes"/>
      <point x="541.0" y="1209.275"/>
      <point x="455.1333333333333" y="1302.6083333333333"/>
      <point x="298.51666666666665" y="1302.6083333333333" type="curve" smooth="yes"/>
      <point x="141.59166666666667" y="1302.6083333333333"/>
      <point x="55.34166666666667" y="1209.275"/>
      <point x="55.34166666666667" y="1047.2583333333334" type="curve" smooth="yes"/>
      <point x="55.34166666666667" y="1029.6083333333333" type="line" smooth="yes"/>
      <point x="55.34166666666667" y="867.0916666666666"/>
      <point x="141.59166666666667" y="773.7583333333333"/>
    </contour>
    <contour>
      <point x="298.51666666666665" y="913.0833333333334" type="curve" smooth="yes"/>
      <point x="243.88333333333335" y="913.0833333333334"/>
      <point x="217.18333333333334" y="953.25"/>
      <point x="217.18333333333334" y="1027.8416666666667" type="curve" smooth="yes"/>
      <point x="217.18333333333334" y="1049.1" type="line" smooth="yes"/>
      <point x="217.18333333333334" y="1122.6166666666666"/>
      <point x="243.88333333333335" y="1163.2833333333333"/>
      <point x="298.51666666666665" y="1163.2833333333333" type="curve" smooth="yes"/>
      <point x="353.4583333333333" y="1163.2833333333333"/>
      <point x="379.34999999999997" y="1122.6166666666666"/>
      <point x="379.34999999999997" y="1049.1" type="curve" smooth="yes"/>
      <point x="379.34999999999997" y="1027.8416666666667" type="line" smooth="yes"/>
      <point x="379.34999999999997" y="953.25"/>
      <point x="353.4583333333333" y="913.0833333333334"/>
    </contour>
  </outline>
</glyph>
<glyph name="plusminus" format="2">
  <advance width="871.8916666666667"/>
  <unicode hex="00B1"/>
  <outline>
    <contour>
      <point x="83.71666666666667" y="131.025" type="line"/>
      <point x="788.175" y="131.025" type="line"/>
      <point x="788.175" y="322.9166666666667" type="line"/>
      <point x="83.71666666666667" y="322.9166666666667" type="line"/>
    </contour>
    <contour>
      <point x="538.8666666666667" y="425.91666666666663" type="line"/>
      <point x="538.8666666666667" y="1062.925" type="line"/>
      <point x="333.2166666666667" y="1062.925" type="line"/>
      <point x="333.2166666666667" y="425.91666666666663" type="line"/>
    </contour>
    <contour>
      <point x="83.71666666666667" y="647.0166666666667" type="line"/>
      <point x="788.175" y="647.0166666666667" type="line"/>
      <point x="788.175" y="841.8249999999999" type="line"/>
      <point x="83.71666666666667" y="841.8249999999999" type="line"/>
    </contour>
  </outline>
</glyph>
<glyph name="twosuperior" format="2">
  <advance width="492.8416666666667"/>
  <unicode hex="00B2"/>
  <outline>
    <contour>
      <point x="28.124999999999996" y="713.0" type="line"/>
      <point x="462.05833333333334" y="713.0" type="line"/>
      <point x="462.05833333333334" y="852.3" type="line"/>
      <point x="160.28333333333333" y="852.3" type="line"/>
      <point x="228.58333333333334" y="828.5" type="line"/>
      <point x="228.58333333333334" y="858.3" type="line"/>
      <point x="326.45" y="960.3" type="line" smooth="yes"/>
      <point x="411.775" y="1044.5333333333333"/>
      <point x="457.2083333333333" y="1111.1583333333333"/>
      <point x="457.2083333333333" y="1203.0916666666667" type="curve" smooth="yes"/>
      <point x="457.2083333333333" y="1214.675" type="line" smooth="yes"/>
      <point x="457.2083333333333" y="1332.625"/>
      <point x="380.3" y="1407.8416666666667"/>
      <point x="231.36666666666667" y="1407.8416666666667" type="curve" smooth="yes"/>
      <point x="158.53333333333333" y="1407.8416666666667"/>
      <point x="94.03333333333333" y="1389.9166666666665"/>
      <point x="49.15833333333334" y="1366.4166666666665" type="curve"/>
      <point x="35.78333333333333" y="1226.1499999999999" type="line"/>
      <point x="76.29166666666667" y="1244.85"/>
      <point x="129.09166666666667" y="1264.8916666666667"/>
      <point x="189.90833333333333" y="1264.8916666666667" type="curve" smooth="yes"/>
      <point x="261.76666666666665" y="1264.8916666666667"/>
      <point x="286.7416666666667" y="1236.0333333333333"/>
      <point x="286.7416666666667" y="1188.8916666666667" type="curve" smooth="yes"/>
      <point x="286.7416666666667" y="1182.075" type="line" smooth="yes"/>
      <point x="286.7416666666667" y="1129.3166666666668"/>
      <point x="246.77499999999998" y="1083.0583333333334"/>
      <point x="181.4" y="1015.5916666666667" type="curve" smooth="yes"/>
      <point x="28.124999999999996" y="858.3333333333334" type="line"/>
    </contour>
  </outline>
</glyph>
<glyph name="threesuperior" format="2">
  <advance width="507.95833333333337"/>
  <unicode hex="00B3"/>
  <outline>
    <contour>
      <point x="220.375" y="698.2333333333333" type="curve" smooth="yes"/>
      <point x="396.69166666666666" y="698.2333333333333"/>
      <point x="471.81666666666666" y="777.05"/>
      <point x="471.81666666666666" y="890.8000000000001" type="curve" smooth="yes"/>
      <point x="471.81666666666666" y="910.9333333333334" type="line" smooth="yes"/>
      <point x="471.81666666666666" y="1003.1583333333334"/>
      <point x="431.3583333333333" y="1052.925"/>
      <point x="335.275" y="1066.425" type="curve"/>
      <point x="344.725" y="1049.9416666666668" type="line"/>
      <point x="344.725" y="1070.925" type="line"/>
      <point x="430.59166666666664" y="1085.8083333333334"/>
      <point x="467.7" y="1137.7666666666667"/>
      <point x="467.7" y="1217.3" type="curve" smooth="yes"/>
      <point x="467.7" y="1233.4666666666667" type="line" smooth="yes"/>
      <point x="467.7" y="1345.1499999999999"/>
      <point x="392.64166666666665" y="1407.725"/>
      <point x="235.51666666666665" y="1407.725" type="curve" smooth="yes"/>
      <point x="156.675" y="1407.725"/>
      <point x="91.3" y="1390.0666666666666"/>
      <point x="46.233333333333334" y="1368.2166666666667" type="curve"/>
      <point x="32.43333333333333" y="1234.375" type="line"/>
      <point x="73.35833333333332" y="1251.0"/>
      <point x="131.125" y="1269.5833333333333"/>
      <point x="197.74166666666665" y="1269.5833333333333" type="curve" smooth="yes"/>
      <point x="271.1583333333333" y="1269.5833333333333"/>
      <point x="296.4333333333333" y="1245.525"/>
      <point x="296.4333333333333" y="1203.4583333333335" type="curve" smooth="yes"/>
      <point x="296.4333333333333" y="1191.4" type="line" smooth="yes"/>
      <point x="296.4333333333333" y="1143.4416666666666"/>
      <point x="262.76666666666665" y="1126.275"/>
      <point x="196.24166666666665" y="1124.0833333333335" type="curve" smooth="yes"/>
      <point x="103.43333333333332" y="1121.2" type="line"/>
      <point x="103.43333333333332" y="997.9666666666667" type="line"/>
      <point x="201.08333333333331" y="994.775" type="line" smooth="yes"/>
      <point x="274.1166666666667" y="992.275"/>
      <point x="297.475" y="967.525"/>
      <point x="297.475" y="926.0333333333334" type="curve" smooth="yes"/>
      <point x="297.475" y="911.9333333333334" type="line" smooth="yes"/>
      <point x="297.475" y="869.3666666666667"/>
      <point x="274.0083333333333" y="838.725"/>
      <point x="190.70833333333334" y="838.725" type="curve" smooth="yes"/>
      <point x="128.35833333333332" y="838.725"/>
      <point x="73.08333333333333" y="855.2333333333333"/>
      <point x="27.741666666666667" y="873.625" type="curve"/>
      <point x="41.541666666666664" y="732.05" type="line"/>
      <point x="79.57499999999999" y="714.625"/>
      <point x="147.75833333333333" y="698.2333333333333"/>
    </contour>
  </outline>
</glyph>
<glyph name="micro" format="2">
  <advance width="960.4916666666666"/>
  <unicode hex="00B5"/>
  <outline>
    <contour>
      <point x="864.8416666666667" y="990.875" type="line"/>
      <point x="623.3" y="990.875" type="line"/>
      <point x="623.3" y="225.04999999999998" type="line"/>
      <point x="644.4833333333333" y="213.4" type="line"/>
      <point x="635.6416666666668" y="0.0" type="line"/>
      <point x="864.8416666666667" y="0.0" type="line"/>
    </contour>
    <contour>
      <point x="337.5" y="358.375" type="curve" smooth="yes"/>
      <point x="337.5" y="990.875" type="line"/>
      <point x="95.65" y="990.875" type="line"/>
      <point x="95.65" y="-347.0" type="line"/>
      <point x="328.7" y="-347.0" type="line"/>
      <point x="328.7" y="-237.33333333333331" type="line"/>
      <point x="310.8666666666667" y="80.99166666666666" type="line"/>
      <point x="317.1" y="80.99166666666666" type="line"/>
      <point x="340.9916666666667" y="18.674999999999997"/>
      <point x="382.28333333333336" y="-16.116666666666667"/>
      <point x="461.51666666666665" y="-16.116666666666667" type="curve" smooth="yes"/>
      <point x="561.575" y="-16.116666666666667"/>
      <point x="609.75" y="46.03333333333334"/>
      <point x="632.2583333333334" y="178.08333333333331" type="curve"/>
      <point x="679.5833333333333" y="178.08333333333331" type="line"/>
      <point x="626.9166666666666" y="315.3833333333333" type="line"/>
      <point x="609.1416666666667" y="240.24166666666667"/>
      <point x="558.0333333333334" y="183.54166666666669"/>
      <point x="476.475" y="183.54166666666669" type="curve" smooth="yes"/>
      <point x="375.91666666666663" y="183.54166666666669"/>
      <point x="337.5" y="246.1166666666667"/>
    </contour>
  </outline>
</glyph>
<glyph name="paragraph" format="2">
  <advance width="706.4916666666667"/>
  <unicode hex="00B6"/>
  <outline>
    <contour>
      <point x="334.54166666666663" y="647.2583333333333" type="curve"/>
      <point x="428.125" y="647.2583333333333" type="line"/>
      <point x="427.81666666666666" y="1278.0" type="line"/>
      <point x="335.1166666666666" y="1278.0" type="line" smooth="yes"/>
      <point x="144.85833333333332" y="1278.0"/>
      <point x="61.64166666666666" y="1180.0833333333333"/>
      <point x="61.64166666666666" y="1004.3083333333333" type="curve" smooth="yes"/>
      <point x="61.64166666666666" y="921.375" type="line" smooth="yes"/>
      <point x="61.64166666666666" y="742.4083333333333"/>
      <point x="144.85833333333332" y="647.2583333333333"/>
    </contour>
    <contour>
      <point x="598.3750000000001" y="0.0" type="line"/>
      <point x="598.3750000000001" y="1278.0" type="line"/>
      <point x="358.7916666666667" y="1278.0" type="line"/>
      <point x="358.09999999999997" y="0.0" type="line"/>
    </contour>
  </outline>
</glyph>
